<svg width="1080" height="1920" viewBox="0 0 1080 1920" fill="none" xmlns="http://www.w3.org/2000/svg">
<g clip-path="url(#clip0_11501_16840)">
<rect width="1080" height="1920" fill="#2BEED5"/>
<g clip-path="url(#clip1_11501_16840)">
<path d="M1147.53 1176.95V1176.9H1155.05V1157.66H985.581V1176.9H993.124V1361.52H956.898V1241.26H934.454V1213.53H915.736V1195.31H855.599V1213.53H836.881V1241.26H814.438V1324.3H794.974V1175.55H692.232V1289.65H642.573V1142.84H629.838V1124.14H530.099V1142.84H517.364V1344.07H481.371V1221.13H466.773V1204.59H439.976V1151.66H416.508V1204.59H389.711V1221.13H375.113V1309.17H332.578V1210.87H239.056V1195.66H202.666V1210.87H182.179V1354.54H138.153L138.153 1080H0L8.881e-06 3046H1196V1227.74H1147.53V1176.95Z" fill="#12DEC4"/>
</g>
<g clip-path="url(#clip2_11501_16840)">
<path d="M381.528 1398.95V1398.9H389.047V1379.66H219.581V1398.9H227.124V1583.52H190.898V1463.26H168.454V1435.53H149.736V1417.31H89.5994V1435.53H70.881V1463.26H48.4375V1546.3H28.9741V1397.55H-73.7678V1511.65H-123.427V1364.84H-136.162V1346.14H-235.901V1364.84H-248.636V1566.07H-284.629V1443.13H-299.227V1426.59H-326.024V1373.66H-349.492V1426.59H-376.289V1443.13H-390.887V1531.17H-433.422V1432.87H-526.944V1417.66H-563.334V1432.87H-583.821V1576.54H-627.847L-627.847 1302H-766L-766 3268H430V1449.74H381.528V1398.95Z" fill="#10CBB4"/>
</g>
<g clip-path="url(#clip3_11501_16840)">
<path d="M1577.53 1398.95V1398.9H1585.05V1379.66H1415.58V1398.9H1423.12V1583.52H1386.9V1463.26H1364.45V1435.53H1345.74V1417.31H1285.6V1435.53H1266.88V1463.26H1244.44V1546.3H1224.97V1397.55H1122.23V1511.65H1072.57V1364.84H1059.84V1346.14H960.099V1364.84H947.364V1566.07H911.371V1443.13H896.773V1426.59H869.976V1373.66H846.508V1426.59H819.711V1443.13H805.113V1531.17H762.578V1432.87H669.056V1417.66H632.666V1432.87H612.179V1576.54H568.153L568.153 1302H430L430 3268H1626V1449.74H1577.53V1398.95Z" fill="#10CBB4"/>
</g>
<path d="M244 887.998C239.755 873.516 223.307 862.482 203.19 861.328C199.05 850.85 186.162 843.209 170.904 843.209C163.311 843.209 156.306 845.101 150.672 848.292C144.73 835.32 128.378 826 109.131 826C84.8682 826 65.1984 840.811 65.1984 859.081C65.1984 864.715 67.0704 870.02 70.3717 874.665C68.1372 876.102 66.1334 877.739 64.4076 879.536C61.7983 881.381 59.7038 883.635 58.3054 886.161C57.1583 886.73 56.0586 887.346 55 888H244V887.998Z" fill="#5FF7E4"/>
<path d="M395 977C393.31 966.28 385.395 958.168 375.88 958.168C375.037 958.168 374.209 958.238 373.395 958.363C369.072 947.185 359.566 939.422 348.531 939.422C343.799 939.422 339.347 940.851 335.466 943.363C329.909 936.367 322.033 932 313.297 932C300.821 932 290.099 940.907 285.385 953.657C283.068 952.672 280.574 952.133 277.973 952.133C266.179 952.133 256.555 963.155 256 977H395Z" fill="#5FF7E4"/>
<path d="M845 880.998C845.131 861.261 858.218 845.307 874.349 845.307C878.706 845.307 882.837 846.48 886.556 848.569C893.023 835.067 904.988 826 918.683 826C931.36 826 942.554 833.768 949.277 845.628C951.637 844.887 954.111 844.494 956.659 844.494C966.728 844.494 975.622 850.646 980.99 860.045C984.074 858.323 987.498 857.356 991.107 857.356C1002.84 857.356 1012.63 867.487 1015 881H845V880.998Z" fill="#5FF7E4"/>
<path d="M879 897C877.419 886.519 870.017 878.586 861.118 878.586C860.329 878.586 859.555 878.655 858.794 878.777C854.751 867.847 845.86 860.257 835.54 860.257C831.115 860.257 826.951 861.654 823.321 864.11C818.123 857.27 810.757 853 802.588 853C790.919 853 780.891 861.709 776.482 874.176C774.315 873.213 771.983 872.685 769.55 872.685C758.52 872.685 749.519 883.463 749 897H879Z" fill="#5FF7E4"/>
<g clip-path="url(#clip4_11501_16840)">
<path fill-rule="evenodd" clip-rule="evenodd" d="M774.278 520.342C775.294 522.71 777.195 524.595 779.576 525.604C782.613 526.891 786.953 528.733 790.415 530.2C792.53 531.097 792.527 534.071 790.415 534.968L779.576 539.564C777.192 540.573 775.294 542.458 774.278 544.826C772.982 547.843 771.128 552.153 769.651 555.592C768.748 557.693 765.754 557.693 764.85 555.592C763.373 552.153 761.519 547.843 760.224 544.826C759.208 542.458 757.306 540.573 754.926 539.564C751.888 538.277 747.548 536.435 744.087 534.968C741.971 534.071 741.971 531.097 744.087 530.2C747.548 528.733 751.888 526.891 754.926 525.604C757.31 524.595 759.208 522.706 760.224 520.342C761.519 517.325 763.373 513.014 764.85 509.576C765.754 507.475 768.748 507.475 769.651 509.576C771.128 513.014 772.982 517.325 774.278 520.342Z" fill="#5FF7E4"/>
<path fill-rule="evenodd" clip-rule="evenodd" d="M716.877 568.237C717.256 569.122 717.967 569.826 718.857 570.204C719.992 570.685 721.614 571.373 722.908 571.921C723.698 572.257 723.697 573.368 722.908 573.703L718.857 575.421C717.966 575.798 717.256 576.502 716.877 577.387C716.392 578.515 715.699 580.126 715.147 581.411C714.81 582.196 713.691 582.196 713.353 581.411C712.801 580.126 712.108 578.515 711.624 577.387C711.244 576.502 710.534 575.798 709.644 575.421C708.509 574.94 706.887 574.252 705.593 573.703C704.802 573.368 704.802 572.257 705.593 571.921C706.887 571.373 708.509 570.685 709.644 570.204C710.535 569.826 711.244 569.121 711.624 568.237C712.108 567.109 712.801 565.498 713.353 564.213C713.691 563.428 714.81 563.428 715.147 564.213C715.699 565.498 716.392 567.109 716.877 568.237Z" fill="#5FF7E4"/>
</g>
<g clip-path="url(#clip5_11501_16840)">
<path fill-rule="evenodd" clip-rule="evenodd" d="M386.765 569.773C387.238 570.881 388.121 571.763 389.227 572.235C390.638 572.837 392.655 573.698 394.263 574.385C395.246 574.805 395.245 576.195 394.263 576.615L389.227 578.765C388.119 579.237 387.238 580.119 386.765 581.227C386.163 582.638 385.302 584.654 384.616 586.263C384.196 587.246 382.805 587.246 382.385 586.263C381.699 584.654 380.837 582.638 380.235 581.227C379.763 580.119 378.88 579.237 377.774 578.765C376.362 578.163 374.346 577.302 372.737 576.615C371.754 576.195 371.754 574.805 372.737 574.385C374.346 573.698 376.362 572.837 377.774 572.235C378.881 571.763 379.763 570.879 380.235 569.773C380.837 568.362 381.699 566.346 382.385 564.737C382.805 563.754 384.196 563.754 384.616 564.737C385.302 566.346 386.163 568.362 386.765 569.773Z" fill="#5FF7E4"/>
</g>
<g clip-path="url(#clip6_11501_16840)">
<path fill-rule="evenodd" clip-rule="evenodd" d="M570.753 696.288C571.513 698.07 572.934 699.488 574.713 700.248C576.983 701.216 580.227 702.602 582.815 703.706C584.396 704.381 584.394 706.619 582.815 707.294L574.713 710.752C572.931 711.512 571.513 712.93 570.753 714.712C569.785 716.983 568.399 720.226 567.295 722.814C566.619 724.395 564.382 724.395 563.706 722.814C562.602 720.226 561.216 716.983 560.248 714.712C559.489 712.93 558.067 711.512 556.288 710.752C554.018 709.784 550.774 708.398 548.186 707.294C546.605 706.619 546.605 704.381 548.186 703.706C550.774 702.602 554.018 701.216 556.288 700.248C558.07 699.488 559.489 698.067 560.248 696.288C561.216 694.017 562.602 690.774 563.706 688.186C564.382 686.605 566.619 686.605 567.295 688.186C568.399 690.774 569.785 694.017 570.753 696.288Z" fill="#5FF7E4"/>
</g>
<g clip-path="url(#clip7_11501_16840)">
<path fill-rule="evenodd" clip-rule="evenodd" d="M343.728 756.316C345.063 759.447 347.559 761.939 350.685 763.273C354.674 764.974 360.372 767.409 364.918 769.348C367.696 770.534 367.692 774.466 364.918 775.652L350.685 781.727C347.555 783.061 345.063 785.553 343.728 788.684C342.027 792.672 339.592 798.371 337.653 802.917C336.466 805.694 332.535 805.694 331.349 802.917C329.409 798.371 326.975 792.672 325.273 788.684C323.939 785.553 321.442 783.061 318.317 781.727C314.328 780.026 308.629 777.591 304.083 775.652C301.306 774.466 301.306 770.534 304.083 769.348C308.629 767.409 314.328 764.974 318.317 763.273C321.447 761.939 323.939 759.442 325.273 756.316C326.975 752.328 329.409 746.629 331.349 742.083C332.535 739.306 336.466 739.306 337.653 742.083C339.592 746.629 342.027 752.328 343.728 756.316Z" fill="#5FF7E4"/>
</g>
<g clip-path="url(#clip8_11501_16840)">
<path fill-rule="evenodd" clip-rule="evenodd" d="M171.765 647.773C172.238 648.881 173.121 649.763 174.227 650.235C175.638 650.837 177.655 651.698 179.263 652.385C180.246 652.805 180.245 654.195 179.263 654.615L174.227 656.765C173.119 657.237 172.238 658.119 171.765 659.227C171.163 660.638 170.302 662.654 169.616 664.263C169.196 665.246 167.805 665.246 167.385 664.263C166.699 662.654 165.837 660.638 165.235 659.227C164.763 658.119 163.88 657.237 162.774 656.765C161.362 656.163 159.346 655.302 157.737 654.615C156.754 654.195 156.754 652.805 157.737 652.385C159.346 651.698 161.362 650.837 162.774 650.235C163.881 649.763 164.763 648.879 165.235 647.773C165.837 646.362 166.699 644.346 167.385 642.737C167.805 641.754 169.196 641.754 169.616 642.737C170.302 644.346 171.163 646.362 171.765 647.773Z" fill="#5FF7E4"/>
</g>
<g clip-path="url(#clip9_11501_16840)">
<path fill-rule="evenodd" clip-rule="evenodd" d="M868.676 764.269C869.433 766.052 870.85 767.472 872.623 768.231C874.886 769.2 878.12 770.587 880.699 771.692C882.275 772.368 882.272 774.607 880.699 775.283L872.623 778.743C870.847 779.503 869.433 780.923 868.676 782.706C867.711 784.978 866.329 788.224 865.229 790.813C864.556 792.396 862.325 792.396 861.652 790.813C860.552 788.224 859.17 784.978 858.205 782.706C857.448 780.923 856.031 779.503 854.258 778.743C851.995 777.774 848.761 776.388 846.182 775.283C844.606 774.607 844.606 772.368 846.182 771.692C848.761 770.587 851.995 769.2 854.258 768.231C856.034 767.472 857.448 766.049 858.205 764.269C859.17 761.997 860.552 758.751 861.652 756.162C862.325 754.579 864.556 754.579 865.229 756.162C866.329 758.751 867.711 761.997 868.676 764.269Z" fill="#5FF7E4"/>
<path fill-rule="evenodd" clip-rule="evenodd" d="M889.154 700.607C889.611 701.683 890.465 702.539 891.535 702.998C892.9 703.582 894.851 704.419 896.407 705.086C897.358 705.493 897.357 706.844 896.407 707.252L891.535 709.34C890.464 709.798 889.611 710.655 889.154 711.73C888.571 713.101 887.738 715.059 887.074 716.622C886.668 717.576 885.322 717.576 884.916 716.622C884.252 715.059 883.419 713.101 882.837 711.73C882.38 710.655 881.525 709.798 880.455 709.34C879.09 708.755 877.139 707.918 875.583 707.252C874.632 706.844 874.632 705.493 875.583 705.086C877.139 704.419 879.09 703.582 880.455 702.998C881.527 702.539 882.38 701.681 882.837 700.607C883.419 699.237 884.252 697.278 884.916 695.716C885.322 694.761 886.668 694.761 887.074 695.716C887.738 697.278 888.571 699.237 889.154 700.607Z" fill="#5FF7E4"/>
<path fill-rule="evenodd" clip-rule="evenodd" d="M929.417 743.207C929.68 743.826 930.171 744.319 930.787 744.582C931.572 744.919 932.695 745.4 933.59 745.784C934.137 746.018 934.136 746.795 933.59 747.03L930.787 748.231C930.17 748.495 929.68 748.988 929.417 749.607C929.082 750.395 928.602 751.522 928.22 752.421C927.987 752.97 927.212 752.97 926.979 752.421C926.597 751.522 926.117 750.395 925.782 749.607C925.519 748.988 925.028 748.495 924.412 748.231C923.627 747.895 922.504 747.413 921.609 747.03C921.062 746.795 921.062 746.018 921.609 745.784C922.504 745.4 923.627 744.919 924.412 744.582C925.029 744.319 925.519 743.825 925.782 743.207C926.117 742.418 926.597 741.292 926.979 740.393C927.212 739.844 927.987 739.844 928.22 740.393C928.602 741.292 929.082 742.418 929.417 743.207Z" fill="#5FF7E4"/>
</g>
</g>
<defs>
<clipPath id="clip0_11501_16840">
<rect width="1080" height="1920" fill="white"/>
</clipPath>
<clipPath id="clip1_11501_16840">
<rect width="1196" height="1966" fill="white" transform="translate(0 1080)"/>
</clipPath>
<clipPath id="clip2_11501_16840">
<rect width="1196" height="1966" fill="white" transform="translate(-766 1302)"/>
</clipPath>
<clipPath id="clip3_11501_16840">
<rect width="1196" height="1966" fill="white" transform="translate(430 1302)"/>
</clipPath>
<clipPath id="clip4_11501_16840">
<rect width="87" height="74" fill="white" transform="translate(705 508)"/>
</clipPath>
<clipPath id="clip5_11501_16840">
<rect width="23" height="23" fill="white" transform="translate(372 564)"/>
</clipPath>
<clipPath id="clip6_11501_16840">
<rect width="37" height="37" fill="white" transform="translate(547 687)"/>
</clipPath>
<clipPath id="clip7_11501_16840">
<rect width="65" height="65" fill="white" transform="translate(302 740)"/>
</clipPath>
<clipPath id="clip8_11501_16840">
<rect width="23" height="23" fill="white" transform="translate(157 642)"/>
</clipPath>
<clipPath id="clip9_11501_16840">
<rect width="89" height="97" fill="white" transform="translate(845 695)"/>
</clipPath>
</defs>
</svg>
