<svg width="116" height="116" viewBox="0 0 116 116" fill="none" xmlns="http://www.w3.org/2000/svg">
<g clip-path="url(#clip0_44_707)">
<path d="M57.9998 116.053C90.0617 116.053 116.053 90.0619 116.053 58.0001C116.053 25.9383 90.0617 -0.0529785 57.9998 -0.0529785C25.938 -0.0529785 -0.0532227 25.9383 -0.0532227 58.0001C-0.0532227 90.0619 25.938 116.053 57.9998 116.053Z" fill="white"/>
<path d="M74.9189 29.3031C73.3026 22.0516 66.0057 17.5098 58.6198 19.1564C51.2357 20.803 46.5593 28.0146 48.1775 35.266C48.7118 37.661 49.8658 39.7624 51.4384 41.4412C52.2475 42.3052 50.4437 47.0763 51.4479 47.6997C52.2722 48.2113 55.8742 44.6169 56.7951 44.9466C59.1692 45.7954 61.8163 46.0058 64.4747 45.4127C71.8607 43.7661 76.537 36.5545 74.9189 29.3031ZM58.6463 38.9609C55.5312 38.9609 54.6748 36.9145 54.455 35.8932C54.3621 35.4896 54.3564 35.2073 54.3564 35.0689C54.3564 34.5858 54.7468 34.1954 55.23 34.1954C55.679 34.1954 56.0447 34.5346 56.094 34.9704C56.0959 34.9742 56.0978 34.9761 56.0997 34.9799C56.1035 35.0064 56.1072 35.0538 56.1091 35.1163C56.1167 35.1656 56.1243 35.213 56.1243 35.2679C56.1243 35.3001 56.1262 35.3361 56.1281 35.3721C56.1357 35.4441 56.1451 35.5199 56.1584 35.5995C56.1906 35.77 56.2494 35.9576 56.3441 36.149C56.3555 36.1698 56.3649 36.1869 56.3744 36.2058C56.67 36.7553 57.2763 37.2934 58.4492 37.356C60.2152 37.4071 60.7344 36.816 60.74 36.0827C60.6718 35.2338 60.6226 34.6237 58.5857 33.7918C56.202 32.8179 54.6823 32.2305 54.6823 30.1936C54.6823 28.1567 56.5753 27.3173 58.3052 27.3173C58.7391 27.3173 59.12 27.3685 59.4573 27.4499C60.1337 27.5845 60.8803 27.8611 61.4411 28.4106V28.4068C61.5851 28.5319 61.7329 28.7176 61.8675 28.9411C61.8807 28.9639 61.894 28.9847 61.9072 29.0075C61.9414 29.07 61.9755 29.1344 62.0077 29.2007C62.019 29.2216 62.0285 29.2424 62.038 29.2652C62.2104 29.6441 62.3298 30.0913 62.3298 30.5517C62.3298 30.6313 62.3412 30.7677 62.3127 30.9212C62.3108 30.9345 62.307 30.9477 62.3033 30.9629C62.2957 30.9989 62.2843 31.033 62.2692 31.0709C62.2635 31.0861 62.2597 31.1012 62.2521 31.1164C62.2464 31.1278 62.2388 31.141 62.2332 31.1524C62.0891 31.4385 61.7973 31.6375 61.4544 31.6375C61.155 31.6375 60.8935 31.484 60.7381 31.2528C60.7249 31.2339 60.7116 31.213 60.7003 31.1922C60.6775 31.1505 60.6586 31.1069 60.6415 31.0614C60.6396 31.0557 60.6358 31.0501 60.6339 31.0425C60.6264 31.0197 60.6188 30.997 60.6131 30.9724C60.5733 30.8341 60.5562 30.6882 60.5562 30.5631C60.5562 30.5366 60.5544 30.51 60.5525 30.4854C60.5525 30.4456 60.5468 30.4077 60.543 30.3698C60.5184 30.1557 60.4539 29.9833 60.3762 29.845C60.3687 29.8317 60.3611 29.8165 60.3516 29.8033C60.3365 29.7786 60.3213 29.754 60.3061 29.7313C59.8703 29.1041 58.94 28.7877 58.2616 28.7877C57.3446 28.7877 56.3612 29.2898 56.3612 30.2126C56.3612 31.1353 57.2441 31.6886 58.7372 32.1813C61.6571 33.2499 62.2578 34.114 62.5212 35.1675C62.813 36.3214 62.3108 38.9609 58.6463 38.9609ZM70.1762 28.4826L64.7817 38.3716C64.5619 38.7752 64.0541 38.9249 63.6505 38.7051C63.2469 38.4853 63.0972 37.9775 63.317 37.5739L68.7115 27.6849C68.9313 27.2813 69.4391 27.1316 69.8427 27.3514C70.2482 27.5712 70.396 28.079 70.1762 28.4826Z" fill="#10CBB4"/>
<path d="M80.2033 71.5251C77.9238 71.5971 69.7496 72.6468 67.5895 72.9083C67.0855 72.9689 65.9486 73.1243 64.4764 73.3308C64.573 72.5577 64.6583 71.8415 64.7435 71.2693C65.0941 68.8913 65.2153 68.3266 65.2153 68.3266C65.2153 68.3266 66.0775 69.6246 68.0765 69.9467C70.4052 70.3219 72.0689 68.59 73.2986 66.1306C74.5643 63.5972 75.3829 59.9914 75.5231 57.8919C75.6576 55.8664 75.4416 53.4069 74.4999 52.1033C73.5601 50.8016 71.6065 50.9816 70.5568 51.5614C69.5071 52.1393 68.3797 53.7499 68.1845 54.2293L68.3872 52.8044C68.3872 52.8044 68.6772 52.3212 67.4834 52.0313C66.2897 51.7414 65.6682 51.6599 65.401 52.6414C65.2665 53.1341 64.0652 59.3983 62.9037 65.5204C62.6422 65.8918 62.1325 66.4224 61.2457 66.6876C59.7981 67.1215 61.2931 61.2382 61.2931 61.2382C61.2931 61.2382 62.5399 55.4836 62.7369 54.6234C62.934 53.7632 62.8525 52.9332 61.9051 52.649C60.9558 52.3648 60.0217 52.3117 59.7375 53.2137C59.4551 54.1156 59.4551 54.1156 59.4551 54.1156C59.4551 54.1156 58.4395 52.7703 56.3704 53.0734C54.3013 53.3766 51.7925 56.27 50.2975 60.8042C48.8025 65.3385 49.3463 68.0386 49.604 69.149C49.8636 70.2574 50.4643 71.7468 52.5751 72.0632C54.6859 72.3796 56.2472 70.8259 57.0582 68.806C57.0582 68.806 57.098 70.5 58.5437 70.9812C59.6674 71.3564 61.1339 70.5758 62.0738 69.8898C61.8047 71.3147 61.5527 72.6411 61.3386 73.7761C56.6167 74.4563 50.8357 75.3241 49.4373 75.6197C48.3952 75.8414 46.5401 76.1332 44.4881 76.5501C44.49 76.5444 44.4919 76.5368 44.4937 76.5311C44.4937 76.5311 50.0095 56.8593 50.1535 56.306C50.2975 55.7527 50.7807 54.1592 50.1535 53.9432C49.5264 53.7253 48.5865 53.8219 47.6941 54.3524C46.8016 54.883 46.1991 55.6542 45.9395 56.4538C45.6799 57.2515 44.8727 59.8038 44.5108 60.8403C44.1489 61.8767 42.9305 65.3347 42.0513 66.6763C41.0869 68.1466 39.8572 69.2077 38.9401 68.5578C38.2238 68.05 38.5782 66.4356 38.7961 65.4958C39.014 64.556 39.6393 62.6252 39.9292 61.6853C40.2191 60.7455 40.653 59.5158 40.725 58.5494C40.797 57.585 40.0258 56.7172 39.3171 56.575C38.6085 56.4348 37.8562 56.306 37.5663 56.8612C37.2764 57.4163 37.4697 58.2595 37.3731 59.0553C37.2859 59.7735 36.9392 60.4594 36.689 61.1339C36.4086 61.8881 36.1377 62.6441 35.8856 63.4077C35.5105 64.5408 35.177 65.6872 34.9212 66.8525C34.673 67.9856 34.4323 69.1907 34.5384 70.3541C34.6218 71.2579 34.9686 72.1731 35.664 72.7586C36.2362 73.2399 37.0093 73.4578 37.7577 73.4085C39.0329 73.3232 40.2058 72.4744 41.085 71.6009C41.4905 71.1992 42.1499 70.5947 42.3356 70.0282C41.5378 72.4592 40.7117 74.8846 39.9519 77.327C39.9197 77.4293 39.8875 77.5335 39.8174 77.615C39.7359 77.7097 39.6146 77.759 39.4971 77.8044C39.41 77.8385 39.3209 77.8764 39.2338 77.9124C38.6104 78.1266 38.0192 78.3596 37.483 78.6116C36.1339 79.2464 35.0008 79.9626 34.1083 80.6125C32.8502 81.4652 31.6811 82.4354 30.6408 83.5457C29.3012 84.9763 28.2003 86.6399 27.4538 88.4551C26.7622 90.1377 26.1918 92.1178 26.6636 93.9141C27.1222 95.6497 28.5736 96.9534 30.3718 97.1485C31.6337 97.2849 32.9146 96.9098 34.0098 96.2655C35.105 95.6232 36.0278 94.7251 36.8577 93.7644C39.302 90.9392 40.8766 87.5665 42.0949 84.0706C42.4133 83.1592 42.7183 82.2421 43.0158 81.3231C46.6974 80.3075 55.5878 78.6438 57.8806 78.2497C58.3978 78.1607 59.3585 78.0186 60.5693 77.8461C60.4973 78.3028 60.4044 79.1706 60.6242 79.7087C60.9312 80.4648 61.979 80.9062 62.9927 79.7087C63.3452 79.2919 63.6218 78.4335 63.8454 77.3895C67.8245 76.8419 72.4838 76.2242 74.0868 76.0082C76.7642 75.6463 82.4429 75.2844 83.1307 74.5965C83.8185 73.9087 83.6726 72.9689 83.3107 72.3891C82.9526 71.815 82.4827 71.4531 80.2033 71.5251ZM67.2011 61.331C67.7942 59.0895 68.5199 56.4462 70.0509 55.3264C71.9476 53.9394 72.2508 56.6129 72.1522 57.9848C72.0442 59.4855 71.6823 60.935 71.1935 62.3485C70.7785 63.5498 70.3237 64.8004 69.4445 65.7156C68.6734 66.519 67.0438 67.0495 66.1495 66.0491C66.1514 66.0491 66.5739 63.7033 67.2011 61.331ZM58.8317 57.7688C58.5797 59.0553 57.9867 61.1756 57.2401 63.4361C56.4424 65.852 55.5537 67.8226 54.3221 67.5839C52.9484 67.3186 52.7684 65.221 52.8555 64.0463C52.9408 62.8715 53.2762 61.4845 53.8636 60.1449C54.972 57.6172 56.3401 56.8384 57.3462 56.4462C58.1572 56.1298 59.097 56.4197 58.8317 57.7688ZM38.1613 83.4699C38.0154 83.8583 37.8619 84.2411 37.7009 84.6238C37.3598 85.4348 36.9808 86.2288 36.5848 87.0151C35.7682 88.6295 34.8473 90.2078 33.6517 91.574C33.0605 92.2467 31.2983 94.1017 30.3737 92.978C29.6385 92.0837 30.5745 89.5049 32.6001 86.9734C35.141 83.7977 38.4815 82.568 38.4815 82.568C38.3792 82.604 38.2049 83.3524 38.1613 83.4699Z" fill="#742384"/>
<path d="M86.3651 61.7592C85.844 61.5868 85.304 62.4205 84.9989 62.79C84.6711 63.1898 84.2505 63.5062 83.8563 63.8416C82.9809 64.5844 81.0085 65.8937 79.8829 64.8307C79.4092 64.3816 79.3486 63.3186 79.4452 62.6346C79.5286 62.0415 79.9114 61.0354 79.9512 61.0335C80.9099 61.0126 81.9028 60.6166 82.4296 60.3911C83.9947 59.7223 85.3684 58.6877 86.3177 57.2628C87.6289 55.296 89.1031 51.6978 86.6834 49.9868C86.3234 49.7329 85.9027 49.5699 85.4669 49.496C83.9435 49.2364 82.6418 49.4771 81.4575 50.4813C79.8678 51.8285 79.3353 52.5315 78.009 54.991C76.5045 57.782 75.6594 61.1983 75.8413 64.3683C75.8849 65.1414 75.9891 65.9183 76.2563 66.644C76.5216 67.3716 76.9593 68.05 77.5808 68.5123C78.5528 69.2361 79.8735 69.3631 81.0236 69.075C82.4712 68.7131 84.1103 67.6767 84.5688 67.3148C85.0273 66.9529 87.0282 65.1452 87.3068 64.5692C87.5853 63.9932 87.1969 63.0458 87.1969 63.0458C87.0567 62.7066 86.7933 61.8994 86.3651 61.7592ZM82.8938 53.3273C83.1439 53.0696 83.4338 52.829 83.7825 52.7418C84.2846 52.6149 84.7128 52.8612 84.8056 53.3633C84.9478 54.1383 84.5404 55.0402 84.0913 55.6428C83.6631 56.215 83.1022 56.6754 82.5035 57.0601C82.2287 57.2363 81.9464 57.3784 81.6451 57.5035C80.8152 57.8464 80.5745 57.7631 80.5613 57.8388C80.7337 56.8971 81.6963 54.5551 82.8938 53.3273Z" fill="#742384"/>
</g>
<defs>
<clipPath id="clip0_44_707">
<rect width="116" height="116" fill="white"/>
</clipPath>
</defs>
</svg>
