<svg width="366" height="387" viewBox="0 0 366 387" fill="none" xmlns="http://www.w3.org/2000/svg">
<g clip-path="url(#clip0_11493_12460)">
<path d="M253.406 39.5419C252.405 39.6219 251.405 39.7319 250.395 39.852C250.065 39.892 249.725 39.952 249.395 39.992C248.715 40.082 248.045 40.182 247.365 40.292C246.964 40.3621 246.554 40.4321 246.154 40.5121C245.544 40.6221 244.924 40.7321 244.314 40.8621C243.884 40.9522 243.444 41.0522 243.014 41.1422C242.604 41.2322 242.204 41.3122 241.794 41.4022C241.664 41.4322 241.524 41.4722 241.394 41.5023C240.053 41.8223 238.713 42.1624 237.373 42.5524C237.183 42.6124 236.993 42.6725 236.793 42.7225C235.623 43.0625 234.442 43.4326 233.272 43.8326C233.082 43.8926 232.892 43.9427 232.702 44.0127C232.482 44.0927 232.252 44.1727 232.032 44.2527C231.302 44.5028 230.572 44.7728 229.852 45.0428C229.412 45.2029 228.971 45.3729 228.531 45.5429C227.751 45.843 226.971 46.163 226.191 46.4831C225.891 46.6031 225.601 46.7131 225.301 46.8432C225.221 46.8832 225.131 46.9232 225.051 46.9532C224.351 47.2532 223.651 47.5733 222.95 47.8833C222.55 48.0634 222.16 48.2334 221.76 48.4134C220.89 48.8135 220.03 49.2335 219.17 49.6636C218.96 49.7636 218.75 49.8637 218.54 49.9737C218.53 49.9737 218.51 49.9837 218.5 49.9937C217.439 50.5238 216.389 51.0739 215.339 51.634C215.219 51.694 215.109 51.764 214.989 51.834C214.059 52.3341 213.139 52.8542 212.219 53.3843C212.199 53.3843 212.189 53.4043 212.169 53.4143C211.839 53.6043 211.518 53.8043 211.188 54.0044C210.498 54.4044 209.818 54.8145 209.138 55.2346C208.728 55.4846 208.328 55.7447 207.918 56.0047C207.308 56.3848 206.698 56.7648 206.098 57.1649C206.048 57.1949 205.998 57.2249 205.958 57.2549C205.627 57.465 205.307 57.695 204.987 57.915C204.337 58.3451 203.697 58.7852 203.057 59.2252C202.647 59.5153 202.247 59.8053 201.837 60.0954C201.247 60.5155 200.657 60.9355 200.077 61.3656C199.967 61.4456 199.856 61.5256 199.746 61.6056C199.476 61.8057 199.216 62.0157 198.956 62.2157C198.296 62.7158 197.636 63.2259 196.976 63.736C196.586 64.0461 196.196 64.3561 195.806 64.6762C195.186 65.1763 194.566 65.6863 193.956 66.1964C193.745 66.3764 193.515 66.5465 193.305 66.7365C193.155 66.8565 193.025 66.9866 192.875 67.1166C191.925 67.9367 190.985 68.7669 190.065 69.607C189.925 69.727 189.785 69.847 189.655 69.9771C188.615 70.9372 187.594 71.9174 186.594 72.9076C186.494 73.0076 186.394 73.0976 186.294 73.1876C186.034 73.4476 185.784 73.7177 185.524 73.9777C185.064 74.4478 184.604 74.9179 184.154 75.388C183.784 75.778 183.424 76.1681 183.064 76.5582C182.624 77.0382 182.194 77.5083 181.763 77.9884C181.403 78.3885 181.053 78.7885 180.713 79.1986C180.293 79.6787 179.883 80.1588 179.483 80.6489C179.143 81.0589 178.803 81.469 178.473 81.8791C178.083 82.3692 177.693 82.8592 177.303 83.3493C177.133 83.5694 176.953 83.7894 176.783 84.0094C176.663 84.1595 176.563 84.3195 176.443 84.4695C175.752 85.3797 175.082 86.3098 174.432 87.23C174.302 87.42 174.162 87.6 174.042 87.7801C173.292 88.8802 172.572 89.9904 171.872 91.1006C171.692 91.3907 171.512 91.6907 171.342 91.9908C170.822 92.8509 170.322 93.7211 169.831 94.5912C169.651 94.9213 169.461 95.2513 169.291 95.5714C168.681 96.7116 168.091 97.8618 167.551 99.012L149.318 137.859L181.973 185.297L200.207 146.45C200.747 145.3 201.337 144.15 201.947 143.009C202.127 142.679 202.307 142.349 202.487 142.029C202.967 141.159 203.477 140.289 203.997 139.429C204.177 139.129 204.347 138.839 204.527 138.539C205.217 137.418 205.938 136.308 206.698 135.218C206.828 135.028 206.958 134.848 207.088 134.668C207.738 133.738 208.408 132.818 209.098 131.908C209.378 131.527 209.668 131.157 209.958 130.787C210.338 130.297 210.728 129.797 211.128 129.317C211.458 128.907 211.799 128.497 212.139 128.087C212.539 127.597 212.959 127.117 213.369 126.637C213.719 126.237 214.069 125.837 214.419 125.436C214.849 124.956 215.279 124.476 215.719 124.006C216.079 123.616 216.439 123.226 216.809 122.836C217.259 122.366 217.72 121.896 218.18 121.426C218.53 121.066 218.89 120.706 219.25 120.346C220.25 119.355 221.27 118.375 222.31 117.415C222.45 117.295 222.59 117.165 222.72 117.045C223.641 116.205 224.581 115.375 225.531 114.555C225.891 114.245 226.251 113.944 226.611 113.644C227.221 113.134 227.841 112.624 228.461 112.124C228.851 111.814 229.241 111.494 229.632 111.184C230.282 110.674 230.942 110.164 231.612 109.664C231.982 109.384 232.352 109.094 232.732 108.814C233.312 108.384 233.902 107.963 234.492 107.543C234.902 107.253 235.303 106.953 235.713 106.673C236.353 106.223 237.003 105.793 237.643 105.363C238.013 105.113 238.383 104.863 238.763 104.613C239.363 104.223 239.973 103.833 240.583 103.453C240.993 103.193 241.394 102.933 241.804 102.683C242.484 102.263 243.174 101.862 243.854 101.462C244.204 101.262 244.544 101.052 244.884 100.852C245.804 100.322 246.724 99.8121 247.655 99.302C247.775 99.242 247.885 99.172 248.005 99.102C249.055 98.5419 250.105 97.9918 251.165 97.4617C251.385 97.3517 251.615 97.2417 251.835 97.1317C252.695 96.7116 253.556 96.2915 254.416 95.8814C254.816 95.7014 255.206 95.5314 255.606 95.3514C256.306 95.0413 256.996 94.7212 257.696 94.4212C258.076 94.2612 258.456 94.1111 258.846 93.9511C259.627 93.6311 260.407 93.311 261.187 93.011C261.627 92.8409 262.067 92.6809 262.507 92.5109C263.237 92.2408 263.957 91.9708 264.687 91.7207C265.098 91.5807 265.518 91.4407 265.928 91.3007C267.098 90.9106 268.278 90.5405 269.448 90.1905C269.638 90.1305 269.828 90.0705 270.028 90.0204C271.369 89.6404 272.709 89.2903 274.049 88.9703C274.589 88.8402 275.129 88.7202 275.669 88.6002C276.099 88.5102 276.539 88.4102 276.97 88.3202C277.59 88.2001 278.2 88.0801 278.82 87.9701C279.22 87.9001 279.63 87.8201 280.03 87.7501C280.71 87.64 281.39 87.54 282.07 87.45C282.4 87.4 282.741 87.35 283.071 87.31C284.081 87.18 285.081 87.08 286.081 86.9999C292.362 86.4798 298.003 86.8599 302.944 88.0001C304.594 88.3802 306.154 88.8503 307.645 89.4003C309.875 90.2205 311.915 91.2307 313.766 92.4109C316.846 94.3712 319.387 96.8116 321.337 99.6521L288.681 52.2141C282.43 43.1325 270.168 38.1817 253.436 39.5619L253.406 39.5419Z" fill="#8B3D99"/>
<path d="M325.668 26.7198C326.258 27.58 326.808 28.4601 327.338 29.3703C327.408 29.4803 327.468 29.6003 327.528 29.7103C328.008 30.5605 328.468 31.4306 328.888 32.3208C328.938 32.4208 328.978 32.5308 329.028 32.6308C329.318 33.2609 329.578 33.9011 329.838 34.5512C330.059 35.1013 330.279 35.6614 330.479 36.2215C330.659 36.7315 330.829 37.2516 330.999 37.7717C331.179 38.3518 331.349 38.9319 331.509 39.522C331.729 40.3521 331.959 41.1823 332.139 42.0424C332.139 42.0424 332.139 42.0524 332.139 42.0624C332.369 43.1426 332.549 44.2328 332.699 45.353C332.709 45.433 332.729 45.523 332.739 45.603C332.879 46.6532 332.979 47.7134 333.049 48.7936C333.059 48.9636 333.079 49.1436 333.089 49.3137C333.149 50.3738 333.179 51.444 333.179 52.5342C333.179 52.7342 333.179 52.9443 333.179 53.1443C333.169 54.2445 333.129 55.3447 333.059 56.4749C333.049 56.6749 333.029 56.8749 333.009 57.075C332.939 58.0551 332.839 59.0553 332.709 60.0555C332.679 60.3355 332.639 60.6156 332.609 60.8956C332.449 62.0658 332.269 63.236 332.039 64.4262C331.999 64.6263 331.959 64.8363 331.919 65.0363C331.739 65.9465 331.529 66.8666 331.309 67.7968C331.139 68.5269 330.949 69.257 330.759 69.9872C330.579 70.6673 330.389 71.3574 330.189 72.0475C329.968 72.7876 329.738 73.5378 329.488 74.2879C329.268 74.988 329.038 75.6881 328.788 76.3882C328.518 77.1484 328.238 77.9085 327.948 78.6786C327.678 79.3888 327.408 80.0989 327.118 80.819C326.808 81.5891 326.468 82.3692 326.128 83.1594C325.708 84.1395 325.288 85.1197 324.828 86.1099L306.595 124.956L339.25 172.394L357.483 133.548C357.723 133.038 357.953 132.528 358.183 132.028C358.403 131.548 358.583 131.077 358.783 130.597C359.123 129.817 359.463 129.037 359.774 128.257C360.064 127.537 360.334 126.827 360.604 126.117C360.894 125.347 361.184 124.586 361.444 123.826C361.694 123.126 361.914 122.426 362.144 121.726C362.384 120.976 362.624 120.226 362.844 119.486C363.044 118.795 363.234 118.105 363.414 117.425C363.604 116.695 363.794 115.965 363.964 115.235C364.034 114.945 364.124 114.645 364.184 114.345C364.324 113.715 364.444 113.094 364.564 112.474C364.604 112.274 364.654 112.064 364.684 111.864C364.904 110.674 365.094 109.494 365.254 108.324C365.294 108.044 365.324 107.774 365.354 107.494C365.475 106.483 365.575 105.493 365.655 104.503C365.665 104.303 365.695 104.103 365.705 103.903C365.705 103.813 365.725 103.723 365.725 103.633C365.785 102.603 365.815 101.583 365.825 100.572C365.825 100.372 365.825 100.162 365.825 99.9622C365.825 98.872 365.795 97.8019 365.735 96.7417C365.725 96.5617 365.705 96.3916 365.695 96.2116C365.665 95.8315 365.645 95.4415 365.615 95.0714C365.555 94.3813 365.474 93.7012 365.384 93.0211C365.374 92.941 365.354 92.851 365.344 92.771C365.194 91.6608 365.004 90.5606 364.774 89.4805C364.774 89.4805 364.774 89.4804 364.774 89.4704C364.644 88.8703 364.514 88.2802 364.364 87.7001C364.304 87.4501 364.214 87.2001 364.144 86.95C363.984 86.3599 363.814 85.7798 363.634 85.2097C363.474 84.6896 363.304 84.1696 363.114 83.6595C362.914 83.0994 362.694 82.5393 362.474 81.9892C362.354 81.6991 362.254 81.3891 362.134 81.099C361.984 80.749 361.824 80.4189 361.664 80.0789C361.614 79.9788 361.574 79.8688 361.524 79.7688C361.104 78.8787 360.644 78.0085 360.164 77.1584C360.094 77.0384 360.034 76.9283 359.964 76.8083C359.614 76.2082 359.253 75.6181 358.883 75.028C358.693 74.738 358.503 74.4479 358.303 74.1579L325.648 26.7198H325.668Z" fill="#8B3D99"/>
<path d="M268.978 6.36631C215.479 10.7671 153.499 53.6943 130.815 102.042L112.582 140.889L149.288 137.869L167.521 99.022C181.623 68.9569 220.16 42.2724 253.416 39.5419C286.671 36.8015 302.254 59.0352 288.151 89.1003L269.918 127.947L306.615 124.926L324.848 86.0798C347.531 37.7216 322.477 1.95556 268.988 6.35631L268.978 6.36631Z" fill="#BD77C7"/>
<path d="M189.585 175.575C188.615 175.655 187.634 175.785 186.654 175.945C186.324 175.995 185.994 176.075 185.664 176.145C185.094 176.255 184.524 176.345 183.944 176.485C183.844 176.505 183.744 176.535 183.654 176.565C183.444 176.615 183.224 176.675 183.014 176.735C182.283 176.925 181.543 177.135 180.813 177.365C180.563 177.445 180.313 177.515 180.063 177.605C179.893 177.665 179.723 177.705 179.553 177.765C179.263 177.865 178.963 177.995 178.673 178.105C177.963 178.365 177.253 178.625 176.542 178.915C176.352 178.995 176.162 179.055 175.972 179.135C175.702 179.255 175.432 179.396 175.152 179.516C174.572 179.776 173.992 180.036 173.412 180.316C173.182 180.426 172.942 180.526 172.712 180.636C172.462 180.766 172.222 180.906 171.972 181.036C171.442 181.316 170.922 181.596 170.391 181.886C170.141 182.026 169.881 182.146 169.641 182.296C169.411 182.426 169.191 182.576 168.961 182.716C168.441 183.026 167.931 183.336 167.421 183.666C167.161 183.826 166.901 183.976 166.641 184.146C166.441 184.276 166.251 184.426 166.051 184.566C165.511 184.926 164.981 185.307 164.45 185.687C164.19 185.877 163.91 186.047 163.65 186.247C163.5 186.357 163.35 186.487 163.2 186.607C162.56 187.097 161.93 187.597 161.31 188.117C161.06 188.327 160.8 188.517 160.55 188.727C160.43 188.827 160.32 188.937 160.2 189.037C160.02 189.197 159.84 189.357 159.66 189.517C159.03 190.067 158.419 190.637 157.829 191.208C157.679 191.348 157.529 191.488 157.389 191.628C157.319 191.698 157.239 191.768 157.179 191.838C156.899 192.118 156.649 192.408 156.369 192.698C155.899 193.178 155.439 193.668 154.989 194.158C154.659 194.528 154.359 194.898 154.049 195.268C153.639 195.758 153.229 196.238 152.839 196.738C152.759 196.848 152.658 196.948 152.578 197.059C152.108 197.669 151.668 198.289 151.238 198.919C151.178 199.009 151.118 199.099 151.058 199.189C150.588 199.879 150.148 200.589 149.738 201.289C149.618 201.499 149.498 201.709 149.378 201.919C148.928 202.719 148.498 203.52 148.118 204.33C148.038 204.5 147.968 204.66 147.888 204.83C147.828 204.97 147.778 205.1 147.718 205.24C147.618 205.47 147.518 205.71 147.428 205.94C147.338 206.16 147.258 206.37 147.178 206.59C147.088 206.82 147.008 207.05 146.927 207.27C146.857 207.48 146.787 207.69 146.717 207.9C146.647 208.12 146.577 208.35 146.507 208.57C146.447 208.78 146.387 208.991 146.337 209.191C146.277 209.411 146.227 209.631 146.177 209.841C146.157 209.931 146.127 210.031 146.107 210.121C146.087 210.201 146.077 210.281 146.067 210.361C145.987 210.741 145.917 211.111 145.867 211.481C145.847 211.601 145.827 211.731 145.807 211.851C145.737 212.331 145.697 212.801 145.667 213.261C145.667 213.281 145.667 213.301 145.667 213.321C145.667 213.431 145.667 213.531 145.667 213.641C145.657 213.921 145.647 214.201 145.647 214.481C145.647 214.631 145.647 214.792 145.657 214.942C145.657 215.192 145.677 215.432 145.697 215.682C145.697 215.752 145.697 215.822 145.707 215.882C145.707 215.982 145.737 216.072 145.747 216.172C145.767 216.372 145.797 216.572 145.827 216.772C145.857 216.932 145.877 217.102 145.907 217.262C145.947 217.452 145.987 217.642 146.027 217.832C146.047 217.912 146.057 218.002 146.077 218.092C146.097 218.172 146.127 218.242 146.147 218.312C146.197 218.492 146.247 218.662 146.297 218.832C146.347 218.992 146.397 219.142 146.447 219.292C146.507 219.462 146.577 219.632 146.637 219.792C146.677 219.882 146.707 219.972 146.737 220.062C146.767 220.122 146.797 220.182 146.817 220.232C146.887 220.402 146.968 220.562 147.058 220.723C147.128 220.863 147.198 221.003 147.278 221.143C147.368 221.303 147.458 221.453 147.558 221.613C147.608 221.703 147.658 221.793 147.718 221.883C147.778 221.973 147.838 222.063 147.898 222.143L151.398 227.234L134.085 264.14C134.045 264.22 134.015 264.29 133.985 264.37C133.905 264.55 133.845 264.72 133.775 264.89C133.675 265.13 133.575 265.36 133.495 265.59C133.425 265.8 133.365 266 133.305 266.2C133.235 266.42 133.165 266.65 133.115 266.87C133.105 266.91 133.085 266.96 133.075 267C133.055 267.09 133.055 267.18 133.035 267.27C132.965 267.65 132.905 268.01 132.875 268.371C132.875 268.451 132.845 268.531 132.845 268.611C132.845 268.691 132.845 268.761 132.845 268.841C132.845 269.101 132.845 269.341 132.845 269.591C132.845 269.691 132.845 269.801 132.845 269.901C132.845 269.951 132.865 270.001 132.875 270.051C132.895 270.261 132.935 270.461 132.975 270.661C132.995 270.771 133.005 270.901 133.035 271.011C133.035 271.051 133.065 271.081 133.075 271.121C133.125 271.301 133.195 271.481 133.255 271.651C133.295 271.771 133.325 271.891 133.375 272.001C133.385 272.031 133.405 272.061 133.425 272.091C133.505 272.271 133.605 272.431 133.695 272.601C133.755 272.701 133.805 272.821 133.865 272.921C133.895 272.961 133.925 273.011 133.955 273.051L166.611 320.489C166.511 320.349 166.441 320.189 166.351 320.039C166.261 319.869 166.161 319.709 166.081 319.529C166.021 319.389 165.971 319.239 165.911 319.089C165.851 318.919 165.781 318.739 165.731 318.559C165.691 318.409 165.661 318.249 165.631 318.099C165.591 317.899 165.551 317.699 165.531 317.489C165.511 317.339 165.511 317.179 165.501 317.029C165.491 316.789 165.481 316.539 165.501 316.279C165.501 316.129 165.521 315.969 165.531 315.819C165.561 315.459 165.621 315.088 165.691 314.718C165.721 314.588 165.731 314.458 165.771 314.318C165.821 314.098 165.891 313.868 165.961 313.648C166.021 313.448 166.071 313.238 166.151 313.038C166.231 312.808 166.331 312.568 166.431 312.338C166.531 312.088 166.621 311.848 166.741 311.588L184.674 273.371L178.513 264.42C178.503 264.35 178.493 264.29 178.483 264.22C178.453 264.02 178.433 263.83 178.403 263.63C178.383 263.47 178.363 263.3 178.353 263.13C178.333 262.89 178.323 262.64 178.313 262.4C178.313 262.25 178.303 262.099 178.303 261.939C178.303 261.669 178.303 261.389 178.323 261.109C178.323 260.979 178.323 260.849 178.333 260.719C178.363 260.259 178.413 259.789 178.473 259.309C178.493 259.189 178.513 259.059 178.533 258.939C178.593 258.569 178.653 258.199 178.733 257.829C178.773 257.649 178.803 257.479 178.853 257.299C178.903 257.079 178.963 256.859 179.023 256.639C179.073 256.429 179.133 256.228 179.193 256.018C179.263 255.798 179.333 255.568 179.403 255.348C179.473 255.138 179.543 254.928 179.613 254.718C179.693 254.488 179.773 254.268 179.863 254.038C179.943 253.818 180.023 253.608 180.113 253.388C180.203 253.158 180.303 252.928 180.403 252.698C180.533 252.398 180.663 252.098 180.803 251.788C181.183 250.978 181.613 250.177 182.063 249.377C182.183 249.167 182.303 248.957 182.423 248.747C182.844 248.037 183.284 247.337 183.744 246.647C183.804 246.557 183.864 246.467 183.924 246.377C184.424 245.637 184.974 244.917 185.534 244.196C185.924 243.696 186.334 243.216 186.744 242.726C187.054 242.356 187.354 241.976 187.684 241.616C188.124 241.116 188.595 240.636 189.065 240.156C189.405 239.806 189.735 239.436 190.085 239.096C190.225 238.956 190.375 238.816 190.525 238.676C191.125 238.095 191.735 237.535 192.355 236.985C192.535 236.825 192.715 236.665 192.895 236.505C193.255 236.195 193.635 235.895 194.005 235.595C194.626 235.085 195.256 234.575 195.896 234.085C196.306 233.775 196.726 233.475 197.146 233.175C197.676 232.795 198.206 232.414 198.746 232.054C199.196 231.754 199.656 231.454 200.116 231.164C200.627 230.844 201.137 230.524 201.657 230.214C202.127 229.934 202.607 229.654 203.087 229.384C203.607 229.094 204.137 228.804 204.667 228.534C205.147 228.284 205.627 228.044 206.107 227.814C206.688 227.534 207.268 227.264 207.848 227.014C208.308 226.814 208.768 226.604 209.238 226.413C209.948 226.123 210.658 225.853 211.368 225.603C211.828 225.433 212.289 225.263 212.759 225.103C213.009 225.023 213.259 224.943 213.509 224.863C214.239 224.633 214.979 224.423 215.709 224.233C215.919 224.183 216.139 224.113 216.349 224.063C217.019 223.903 217.689 223.773 218.36 223.643C218.69 223.583 219.02 223.503 219.35 223.443C220.33 223.283 221.31 223.153 222.28 223.073C227.331 222.653 231.542 223.433 234.722 225.143C236.633 226.173 238.173 227.534 239.303 229.174L206.648 181.736C203.627 177.355 197.716 174.975 189.625 175.635L189.585 175.575Z" fill="#5E186C"/>
<path d="M324.978 129.527C325.118 129.767 325.258 130.007 325.368 130.257C325.458 130.457 325.528 130.677 325.608 130.887C325.698 131.137 325.798 131.387 325.868 131.657C325.928 131.878 325.968 132.098 326.008 132.318C326.068 132.608 326.118 132.898 326.158 133.188C326.208 133.598 326.238 134.018 326.238 134.448C326.238 134.518 326.238 134.578 326.238 134.648C326.238 135.088 326.198 135.528 326.148 135.988C326.138 136.078 326.128 136.178 326.118 136.268C326.048 136.758 325.958 137.248 325.838 137.759C325.768 138.079 325.658 138.399 325.568 138.729C325.478 139.019 325.408 139.309 325.298 139.609C325.178 139.939 325.038 140.279 324.898 140.619C324.748 140.979 324.618 141.329 324.447 141.699L249.285 301.896L281.94 349.334L357.103 189.137C357.153 189.027 357.203 188.917 357.253 188.807C357.363 188.547 357.443 188.307 357.553 188.057C357.693 187.717 357.833 187.377 357.953 187.047C358.053 186.747 358.133 186.457 358.223 186.167C358.323 185.847 358.423 185.517 358.493 185.197C358.503 185.137 358.533 185.077 358.543 185.016C358.643 184.576 358.713 184.136 358.773 183.716C358.783 183.626 358.793 183.526 358.803 183.436C358.833 183.196 358.863 182.946 358.883 182.706C358.893 182.496 358.893 182.296 358.903 182.096C358.903 182.026 358.903 181.966 358.903 181.896C358.903 181.546 358.893 181.196 358.863 180.856C358.863 180.776 358.833 180.706 358.823 180.636C358.793 180.336 358.733 180.046 358.673 179.756C358.643 179.596 358.633 179.416 358.593 179.256C358.583 179.195 358.553 179.146 358.533 179.096C358.463 178.835 358.363 178.585 358.273 178.325C358.213 178.165 358.173 177.985 358.103 177.825C358.083 177.785 358.053 177.745 358.033 177.695C357.923 177.445 357.773 177.205 357.643 176.965C357.553 176.815 357.493 176.655 357.393 176.505C357.353 176.445 357.313 176.375 357.263 176.315L324.608 128.877C324.748 129.087 324.858 129.307 324.978 129.527Z" fill="#742384"/>
<path d="M13.885 339.483C8.08406 339.963 3.82335 338.232 1.64298 335.072L34.2985 382.51C36.4789 385.67 40.7296 387.401 46.5406 386.921L252.075 370.018L219.42 322.58L13.885 339.483Z" fill="#742384"/>
<path d="M280.65 351.705C281.12 350.925 281.56 350.134 281.93 349.334L249.275 301.896C248.905 302.696 248.465 303.487 247.995 304.267C247.855 304.497 247.715 304.717 247.564 304.937C247.184 305.527 246.784 306.107 246.354 306.687C246.194 306.897 246.044 307.117 245.874 307.327C245.594 307.687 245.304 308.037 245.004 308.387C244.774 308.657 244.564 308.927 244.324 309.187C244.004 309.548 243.674 309.888 243.334 310.238C243.104 310.478 242.884 310.718 242.644 310.958C241.944 311.648 241.223 312.318 240.463 312.958C240.233 313.158 240.003 313.338 239.763 313.528C239.313 313.898 238.853 314.268 238.383 314.628C238.093 314.848 237.793 315.068 237.493 315.278C237.103 315.559 236.723 315.829 236.323 316.099C236.003 316.319 235.673 316.529 235.342 316.739C234.972 316.979 234.592 317.209 234.222 317.429C233.882 317.629 233.542 317.829 233.192 318.019C232.812 318.229 232.432 318.439 232.042 318.639C231.702 318.819 231.352 318.989 231.012 319.159C230.592 319.359 230.172 319.559 229.751 319.739C229.421 319.889 229.091 320.029 228.751 320.169C228.241 320.379 227.721 320.569 227.211 320.759C226.931 320.859 226.641 320.969 226.361 321.069C225.431 321.38 224.501 321.65 223.58 321.87C223.12 321.98 222.66 322.07 222.21 322.15C221.98 322.19 221.74 322.25 221.51 322.29C220.81 322.41 220.11 322.5 219.41 322.55L252.065 369.988C252.755 369.928 253.456 369.838 254.166 369.728C254.396 369.688 254.636 369.638 254.866 369.588C255.276 369.508 255.676 369.438 256.086 369.348C256.136 369.338 256.186 369.318 256.236 369.308C257.166 369.088 258.086 368.818 259.016 368.507C259.086 368.487 259.156 368.467 259.227 368.447C259.437 368.377 259.657 368.277 259.867 368.197C260.377 368.007 260.897 367.817 261.407 367.607C261.537 367.557 261.667 367.507 261.807 367.457C262.007 367.367 262.207 367.267 262.407 367.177C262.827 366.987 263.247 366.797 263.667 366.597C263.827 366.517 263.997 366.447 264.157 366.367C264.337 366.277 264.517 366.167 264.707 366.077C265.097 365.877 265.478 365.667 265.858 365.457C266.038 365.357 266.218 365.267 266.388 365.167C266.558 365.067 266.718 364.957 266.888 364.857C267.268 364.627 267.638 364.397 268.008 364.167C268.188 364.047 268.378 363.947 268.558 363.827C268.708 363.727 268.838 363.627 268.988 363.527C269.378 363.257 269.768 362.987 270.158 362.707C270.348 362.567 270.548 362.446 270.728 362.306C270.838 362.226 270.938 362.136 271.049 362.056C271.519 361.696 271.979 361.326 272.429 360.956C272.609 360.806 272.799 360.676 272.969 360.526C273.019 360.476 273.069 360.436 273.119 360.386C273.869 359.736 274.599 359.076 275.299 358.386C275.339 358.346 275.379 358.316 275.419 358.276C275.619 358.076 275.799 357.866 275.999 357.666C276.329 357.316 276.669 356.976 276.989 356.615C277.229 356.355 277.44 356.085 277.67 355.815C277.97 355.465 278.26 355.115 278.54 354.755C278.6 354.675 278.68 354.595 278.74 354.515C278.84 354.385 278.92 354.245 279.02 354.115C279.45 353.535 279.85 352.955 280.23 352.365C280.37 352.145 280.52 351.915 280.66 351.695L280.65 351.705Z" fill="#742384"/>
<path d="M312.365 124.466C323.897 123.516 329.338 131.277 324.437 141.699L249.275 301.896C244.384 312.318 230.942 321.63 219.41 322.58L13.875 339.483C2.34306 340.433 -3.09787 332.681 1.80296 322.25L76.9657 162.053C81.8565 151.631 95.2988 142.319 106.831 141.369L112.582 140.899L149.288 137.878L269.918 127.957L306.615 124.936L312.375 124.466H312.365ZM181.103 223.473C191.935 218.212 201.777 209.231 206.348 199.489C213.169 184.956 205.657 174.255 189.585 175.575C173.502 176.895 154.939 189.747 148.128 204.28C143.557 214.021 145.427 222.033 151.988 225.873L134.055 264.09C130.655 271.331 134.425 276.712 142.437 276.052C150.438 275.392 159.77 268.931 163.17 261.689L181.103 223.473Z" fill="#A35AAD"/>
<path d="M101.072 118.024L125.14 101.358L186.342 189.746C189.878 194.852 188.603 201.866 183.497 205.402L177.938 209.251C172.832 212.787 165.818 211.512 162.282 206.406L101.08 118.018L101.072 118.024Z" fill="#F7D163"/>
<path d="M100.77 16.4181L85.5671 17.6283C90.9581 17.1982 96.1689 19.8886 100.64 26.3097C101.28 27.2299 101.88 28.12 102.45 28.9902C102.63 29.2702 102.8 29.5403 102.98 29.8203C103.35 30.4004 103.72 30.9805 104.06 31.5506C104.25 31.8607 104.43 32.1707 104.61 32.4808C104.91 32.9909 105.2 33.5009 105.48 34.001C105.651 34.3111 105.821 34.6111 105.981 34.9112C106.261 35.4313 106.521 35.9514 106.771 36.4514C106.881 36.6615 106.991 36.8815 107.091 37.0916C107.431 37.8017 107.751 38.5018 108.031 39.1819C108.151 39.462 108.241 39.732 108.351 40.012C108.531 40.4621 108.721 40.9222 108.871 41.3723C108.891 41.4423 108.911 41.5123 108.941 41.5823C109.141 42.1624 109.321 42.7425 109.471 43.3026C109.511 43.4426 109.541 43.5726 109.581 43.7127C109.731 44.2928 109.871 44.8729 109.981 45.433C109.981 45.483 110.001 45.533 110.011 45.583C110.121 46.1831 110.211 46.7632 110.281 47.3333C110.281 47.3733 110.281 47.4233 110.291 47.4633C110.351 48.0334 110.391 48.5835 110.401 49.1236C110.401 49.1836 110.401 49.2436 110.401 49.3036C110.411 49.8437 110.401 50.3738 110.371 50.8939C110.371 50.9639 110.361 51.0339 110.351 51.0939C110.321 51.504 110.271 51.9141 110.221 52.3141C110.191 52.5442 110.161 52.7642 110.121 52.9842C110.071 53.2943 110.011 53.6043 109.941 53.9044C109.901 54.1144 109.851 54.3145 109.801 54.5245C109.721 54.8345 109.631 55.1546 109.541 55.4647C109.481 55.6547 109.431 55.8447 109.371 56.0348C109.261 56.3748 109.141 56.7049 109.011 57.0349C108.951 57.195 108.901 57.355 108.831 57.505C108.631 57.9951 108.421 58.4752 108.201 58.9552C107.861 59.6754 107.481 60.3855 107.081 61.0956C106.991 61.2556 106.911 61.4057 106.821 61.5657C106.421 62.2558 106.001 62.9459 105.55 63.636C105.4 63.8661 105.24 64.1061 105.08 64.3462C104.9 64.6162 104.73 64.8862 104.54 65.1563C104.37 65.4163 104.19 65.6664 104.01 65.9264C103.83 66.1965 103.64 66.4565 103.45 66.7266C103.26 66.9966 103.07 67.2667 102.87 67.5467C102.67 67.8267 102.48 68.0968 102.28 68.3768C102.04 68.7069 101.8 69.0469 101.56 69.387C101.27 69.7871 100.99 70.1871 100.7 70.5872C100.46 70.9173 100.23 71.2473 99.9896 71.5774C99.7895 71.8574 99.5895 72.1375 99.3994 72.4175C99.1694 72.7376 98.9494 73.0576 98.7193 73.3777C98.5193 73.6577 98.3193 73.9478 98.1293 74.2378C97.8992 74.5679 97.6792 74.8879 97.4492 75.228C97.2491 75.5281 97.049 75.8281 96.839 76.1381C96.619 76.4782 96.3889 76.8083 96.1689 77.1583C96.0889 77.2883 95.9989 77.4084 95.9189 77.5384C95.8188 77.6984 95.7188 77.8684 95.6188 78.0285C95.3388 78.4685 95.0587 78.9186 94.7787 79.3687C94.5986 79.6688 94.4086 79.9688 94.2286 80.2689C93.9485 80.7389 93.6685 81.209 93.3885 81.6991C93.2084 81.9991 93.0384 82.3092 92.8684 82.6193C92.5683 83.1493 92.2782 83.6994 91.9782 84.2595C91.8282 84.5396 91.6781 84.8096 91.5381 85.0897C91.098 85.9298 90.668 86.8 90.2479 87.6901L90.0579 88.0902C83.8368 101.252 81.1164 116.285 77.3258 124.316C77.1157 124.756 76.9057 125.166 76.6956 125.557C76.6256 125.687 76.5556 125.797 76.4856 125.927C76.3356 126.177 76.1955 126.437 76.0455 126.677C76.0055 126.737 75.9655 126.787 75.9255 126.847C75.6955 127.197 75.4654 127.517 75.2254 127.807C75.1153 127.947 74.9954 128.077 74.8853 128.207C74.7853 128.317 74.6953 128.427 74.5953 128.517C74.4152 128.697 74.2352 128.857 74.0552 129.007C74.0252 129.037 73.9851 129.067 73.9551 129.097C73.7351 129.267 73.5051 129.417 73.2651 129.547C73.2251 129.567 73.1751 129.597 73.135 129.617C72.905 129.737 72.6649 129.837 72.4249 129.907C72.3849 129.917 72.3549 129.927 72.3149 129.937C72.0549 130.007 71.7948 130.067 71.5148 130.087L86.7173 128.877C86.7173 128.877 86.7474 128.877 86.7674 128.877C86.9374 128.867 87.0974 128.837 87.2574 128.807C87.3474 128.787 87.4275 128.757 87.5175 128.737C87.5575 128.727 87.5875 128.717 87.6275 128.707C87.6575 128.707 87.6875 128.697 87.7175 128.687C87.8775 128.637 88.0275 128.577 88.1776 128.507C88.2276 128.477 88.2876 128.447 88.3376 128.417C88.3776 128.397 88.4276 128.367 88.4676 128.347C88.5176 128.317 88.5776 128.297 88.6277 128.257C88.7977 128.157 88.9577 128.047 89.1277 127.917C89.1277 127.917 89.1477 127.897 89.1577 127.897C89.1877 127.867 89.2278 127.837 89.2578 127.807C89.3978 127.697 89.5378 127.577 89.6678 127.447C89.7078 127.407 89.7478 127.357 89.7978 127.307C89.8979 127.207 89.9978 127.097 90.0879 126.997C90.1679 126.917 90.2379 126.837 90.3179 126.747C90.358 126.697 90.3879 126.637 90.4279 126.597C90.668 126.297 90.898 125.977 91.1281 125.637C91.1581 125.587 91.1881 125.557 91.2181 125.506C91.2181 125.496 91.2381 125.476 91.2381 125.466C91.3881 125.236 91.5281 124.976 91.6782 124.716C91.7482 124.596 91.8182 124.476 91.8882 124.356C92.0983 123.966 92.3083 123.546 92.5183 123.116C96.319 115.085 99.0294 100.052 105.25 86.89L105.44 86.4899C105.861 85.5998 106.291 84.7296 106.731 83.8895C106.881 83.6094 107.021 83.3394 107.171 83.0593C107.471 82.4992 107.761 81.9491 108.061 81.419C108.231 81.109 108.411 80.809 108.581 80.5089C108.861 80.0288 109.141 79.5387 109.421 79.0786C109.601 78.7786 109.781 78.4786 109.971 78.1785C110.251 77.7284 110.531 77.2783 110.811 76.8383C111.001 76.5482 111.181 76.2582 111.371 75.9681C111.592 75.6281 111.822 75.288 112.042 74.9479C112.242 74.6479 112.452 74.3379 112.652 74.0378C112.872 73.7077 113.102 73.3777 113.322 73.0576C113.522 72.7676 113.722 72.4775 113.922 72.1875C114.152 71.8574 114.382 71.5374 114.602 71.2173C114.792 70.9473 114.992 70.6672 115.182 70.3972C115.432 70.0471 115.682 69.6971 115.932 69.357C116.212 68.9669 116.482 68.5869 116.752 68.2068C117.002 67.8668 117.242 67.5167 117.493 67.1866C117.693 66.9066 117.893 66.6265 118.083 66.3565C118.273 66.0864 118.473 65.8064 118.663 65.5364C118.853 65.2663 119.043 64.9863 119.233 64.7162C119.403 64.4662 119.583 64.2061 119.753 63.9561C119.943 63.676 120.123 63.406 120.303 63.1359C120.433 62.9359 120.573 62.7259 120.703 62.5258C120.723 62.4958 120.733 62.4658 120.753 62.4458C121.203 61.7457 121.623 61.0556 122.023 60.3655C122.113 60.2155 122.193 60.0554 122.283 59.9054C122.683 59.1953 123.063 58.4752 123.403 57.765C123.634 57.285 123.844 56.7949 124.034 56.3148C124.094 56.1548 124.154 56.0047 124.214 55.8447C124.344 55.5147 124.464 55.1746 124.574 54.8446C124.634 54.6545 124.694 54.4645 124.744 54.2645C124.834 53.9544 124.924 53.6443 125.004 53.3343C125.054 53.1243 125.104 52.9242 125.144 52.7142C125.184 52.5542 125.224 52.3941 125.254 52.2341C125.284 52.0941 125.294 51.9441 125.324 51.794C125.364 51.574 125.394 51.344 125.424 51.1139C125.444 50.9839 125.464 50.8639 125.484 50.7339C125.514 50.4538 125.534 50.1738 125.554 49.8937C125.554 49.8237 125.564 49.7637 125.574 49.6937C125.574 49.6637 125.574 49.6437 125.574 49.6137C125.594 49.2936 125.604 48.9636 125.604 48.6335C125.604 48.4635 125.604 48.2834 125.604 48.1034C125.604 48.0434 125.604 47.9834 125.604 47.9234C125.604 47.8734 125.604 47.8134 125.604 47.7634C125.594 47.4733 125.574 47.1833 125.554 46.8932C125.534 46.6832 125.514 46.4731 125.494 46.2731C125.494 46.2331 125.494 46.1831 125.484 46.1431C125.484 46.1031 125.484 46.0731 125.474 46.0331C125.434 45.733 125.394 45.423 125.344 45.1129C125.304 44.8729 125.264 44.6328 125.214 44.3928C125.214 44.3428 125.194 44.2928 125.184 44.2528C125.184 44.2128 125.174 44.1827 125.164 44.1527C125.094 43.7927 125.014 43.4226 124.924 43.0526C124.884 42.8825 124.834 42.7125 124.784 42.5425C124.744 42.4024 124.714 42.2724 124.674 42.1324C124.634 42.0024 124.614 41.8824 124.574 41.7523C124.444 41.3123 124.294 40.8622 124.144 40.4021C124.124 40.3321 124.104 40.2721 124.084 40.2021C124.084 40.1821 124.084 40.1721 124.074 40.1621C123.924 39.732 123.734 39.2719 123.564 38.8318C123.454 38.5618 123.364 38.3018 123.254 38.0217C123.254 38.0217 123.254 38.0017 123.254 37.9917C122.973 37.3216 122.653 36.6315 122.323 35.9314C122.223 35.7213 122.113 35.5013 122.003 35.2912C121.843 34.9812 121.703 34.6711 121.533 34.3511C121.433 34.151 121.313 33.951 121.203 33.751C121.043 33.4509 120.873 33.1409 120.703 32.8408C120.433 32.3407 120.133 31.8407 119.833 31.3206C119.653 31.0105 119.473 30.7105 119.283 30.3904C118.943 29.8303 118.573 29.2502 118.203 28.6601C118.023 28.3801 117.863 28.11 117.673 27.83C117.102 26.9598 116.502 26.0697 115.862 25.1495C111.391 18.7284 106.181 16.038 100.79 16.4681L100.77 16.4181Z" fill="#C39820"/>
<path d="M64.5436 125.526C64.2136 124.966 63.8935 124.396 63.5834 123.806C63.3634 123.396 63.1534 122.976 62.9434 122.556C62.7934 122.256 62.6433 121.956 62.4933 121.656C62.2533 121.156 62.0332 120.656 61.8032 120.145C61.6832 119.865 61.5531 119.595 61.4331 119.315C61.3431 119.105 61.2631 118.885 61.1731 118.665C60.793 117.745 60.4329 116.795 60.0929 115.835C59.9828 115.525 59.8729 115.215 59.7629 114.895C59.4628 114.004 59.1727 113.104 58.8926 112.184C58.8326 111.994 58.7726 111.814 58.7226 111.624C58.4126 110.554 58.1225 109.474 57.8525 108.374C57.7725 108.063 57.7124 107.753 57.6424 107.443C57.4524 106.653 57.2824 105.853 57.1124 105.033C57.0324 104.643 56.9524 104.243 56.8824 103.843C56.7323 103.063 56.5923 102.282 56.4622 101.482C56.4022 101.092 56.3322 100.692 56.2722 100.302C56.1222 99.302 55.9822 98.2818 55.8522 97.2616C55.8322 97.0616 55.7921 96.8616 55.7721 96.6515C55.6221 95.3813 55.5021 94.1011 55.4021 92.8109C55.3721 92.4808 55.3521 92.1507 55.332 91.8107C55.252 90.6905 55.192 89.5703 55.142 88.4301C55.132 88.1001 55.112 87.77 55.102 87.44C55.052 85.9297 55.032 84.4095 55.032 82.8692C55.032 82.5891 55.032 82.2991 55.042 82.019C55.062 80.2087 55.112 78.3984 55.212 76.5681C55.232 76.158 55.2621 75.738 55.2921 75.3279C55.3421 74.5878 55.3821 73.8377 55.4421 73.0975C55.4821 72.6174 55.5321 72.1374 55.5721 71.6473C55.6322 70.9472 55.7021 70.247 55.7721 69.5569C55.8121 69.1869 55.8621 68.8068 55.9022 68.4367C56.0422 67.2265 56.2022 66.0063 56.3723 64.7961C56.4223 64.4661 56.4623 64.136 56.5123 63.806C56.7323 62.3557 56.9824 60.8955 57.2524 59.4552C57.3324 59.0052 57.4324 58.5451 57.5224 58.095C57.6624 57.3849 57.8025 56.6748 57.9525 55.9646C58.0625 55.4645 58.1725 54.9745 58.2826 54.4744C58.4426 53.7943 58.5927 53.1042 58.7627 52.424C58.8827 51.924 59.0127 51.4239 59.1427 50.9138C59.3127 50.2437 59.4928 49.5736 59.6728 48.9034C59.8128 48.4034 59.9528 47.9033 60.0929 47.4132C60.2829 46.7431 60.483 46.083 60.693 45.4229C60.843 44.9328 60.993 44.4427 61.153 43.9526C61.3631 43.2925 61.5931 42.6324 61.8132 41.9723C61.9732 41.5022 62.1332 41.0221 62.3033 40.552C62.5433 39.8719 62.8033 39.1918 63.0534 38.5217C63.2234 38.0816 63.3834 37.6415 63.5535 37.2115C63.8435 36.4713 64.1435 35.7412 64.4536 35.0111C64.6036 34.651 64.7436 34.291 64.9037 33.9309C65.3738 32.8507 65.8538 31.7806 66.3539 30.7204C66.864 29.6402 67.3941 28.6 67.9242 27.5698C68.0842 27.2598 68.2542 26.9597 68.4143 26.6497C68.8043 25.9196 69.1944 25.2094 69.5845 24.5093C69.7645 24.1993 69.9345 23.8792 70.1146 23.5792C70.5647 22.809 71.0247 22.0589 71.4848 21.3188C71.5948 21.1387 71.7049 20.9587 71.8149 20.7887C72.365 19.9285 72.9351 19.0884 73.5052 18.2783C73.6452 18.0882 73.7752 17.8882 73.9152 17.6982C74.4553 16.938 75.0054 16.1879 75.5655 15.4778C75.6055 15.4278 75.6455 15.3678 75.6955 15.3078C76.2556 14.5976 76.8157 13.9175 77.3858 13.2574C77.7159 12.8673 78.0559 12.4973 78.386 12.1272C78.7361 11.7372 79.0861 11.3571 79.4362 10.987C79.7762 10.637 80.1162 10.2969 80.4563 9.95685C80.8264 9.58679 81.1965 9.22674 81.5765 8.87668C81.8266 8.64664 82.0766 8.4266 82.3267 8.19656C82.7467 7.8265 83.1768 7.45643 83.5968 7.11638C83.8469 6.90634 84.1069 6.70631 84.357 6.50627C84.8671 6.10621 85.3871 5.71614 85.9072 5.35608C86.0372 5.26606 86.1673 5.16605 86.2873 5.07603C86.9474 4.62595 87.5975 4.20588 88.2577 3.81582C88.3977 3.7358 88.5377 3.65579 88.6777 3.57578C89.2178 3.26572 89.7579 2.97567 90.308 2.70563C90.458 2.62561 90.6181 2.5456 90.7681 2.47559C91.4082 2.17554 92.0483 1.89549 92.6884 1.64545C92.8184 1.59544 92.9384 1.55544 93.0685 1.50543C93.4985 1.3454 93.9286 1.21538 94.3587 1.07535C94.9088 0.905325 95.4589 0.755303 95.999 0.625281C96.289 0.555269 96.5791 0.475251 96.8791 0.425243C97.4492 0.315224 98.0293 0.235209 98.5994 0.165197C98.8894 0.135192 99.1795 0.0751885 99.4695 0.0551851L84.267 1.26539C84.167 1.26539 84.0669 1.28539 83.9769 1.29539C83.7869 1.3154 83.5868 1.3654 83.3968 1.3854C82.8267 1.45542 82.2466 1.53543 81.6765 1.64545C81.5765 1.66545 81.4765 1.66546 81.3765 1.69546C81.1865 1.73547 80.9964 1.80548 80.8064 1.85548C80.2563 1.98551 79.7062 2.13554 79.1561 2.30557C78.9961 2.35557 78.8361 2.38558 78.686 2.43558C78.416 2.5256 78.1459 2.63561 77.8659 2.73563C77.7359 2.78564 77.6158 2.82565 77.4858 2.87566C76.9357 3.0857 76.3856 3.31573 75.8455 3.56577C75.7555 3.60578 75.6555 3.65579 75.5655 3.7058C75.4055 3.77581 75.2554 3.85583 75.0954 3.93584C74.5553 4.20588 74.0152 4.49594 73.4751 4.80599C73.3351 4.886 73.1951 4.96601 73.0451 5.04603C72.9751 5.08603 72.8951 5.12604 72.8251 5.16604C72.235 5.5161 71.6549 5.89617 71.0748 6.29624C70.9447 6.38625 70.8147 6.48627 70.6947 6.57628C70.3246 6.83633 69.9446 7.09637 69.5745 7.38642C69.4345 7.49644 69.2944 7.61646 69.1444 7.72648C68.8943 7.92651 68.6343 8.13655 68.3843 8.33658C67.9542 8.68664 67.5341 9.0467 67.1141 9.41676C66.864 9.6368 66.614 9.86684 66.3639 10.0969C66.2239 10.2269 66.0939 10.3369 65.9538 10.4669C65.7138 10.687 65.4838 10.947 65.2438 11.1771C64.9037 11.5171 64.5636 11.8472 64.2236 12.2072C63.8735 12.5773 63.5235 12.9674 63.1734 13.3474C62.8333 13.7175 62.5033 14.0876 62.1732 14.4776C62.0632 14.6076 61.9532 14.7177 61.8432 14.8477C61.3831 15.3878 60.933 15.9579 60.4729 16.528C60.4329 16.578 60.3929 16.638 60.3429 16.698C59.7828 17.4181 59.2328 18.1582 58.6927 18.9184C58.5526 19.1084 58.4226 19.2984 58.2826 19.4985C57.7425 20.2686 57.2124 21.0587 56.6823 21.8689C56.6523 21.9089 56.6223 21.9589 56.6023 22.0089C56.4923 22.1789 56.3822 22.369 56.2722 22.539C55.8121 23.2791 55.3521 24.0292 54.902 24.7994C54.722 25.1094 54.542 25.4195 54.3719 25.7295C53.9719 26.4296 53.5817 27.1398 53.2017 27.8699C53.0417 28.1799 52.8716 28.48 52.7116 28.79C52.1815 29.8202 51.6514 30.8604 51.1413 31.9406C50.6413 33.0007 50.1612 34.0709 49.6911 35.1511C49.5411 35.5112 49.3911 35.8712 49.2411 36.2413C48.941 36.9714 48.6309 37.7015 48.3409 38.4317C48.1708 38.8717 48.0108 39.3118 47.8408 39.7519C47.5907 40.422 47.3307 41.1021 47.0907 41.7822C46.9206 42.2523 46.7606 42.7224 46.6006 43.2025C46.3706 43.8626 46.1505 44.5227 45.9405 45.1828C45.7804 45.6729 45.6304 46.163 45.4804 46.6531C45.2804 47.3132 45.0803 47.9733 44.8803 48.6434C44.7403 49.1435 44.5903 49.6436 44.4602 50.1437C44.2802 50.8138 44.1002 51.4739 43.9302 52.144C43.8001 52.6441 43.6701 53.1442 43.5501 53.6542C43.3801 54.3344 43.22 55.0245 43.07 55.7046C42.96 56.1947 42.84 56.6948 42.74 57.1848C42.5899 57.895 42.4399 58.6151 42.2999 59.3252C42.2299 59.6853 42.1498 60.0353 42.0798 60.3954C42.0598 60.4854 42.0498 60.5754 42.0298 60.6754C41.7598 62.1257 41.5097 63.5759 41.2897 65.0362C41.2397 65.3662 41.1997 65.6963 41.1497 66.0263C40.9697 67.2365 40.8196 68.4567 40.6796 69.6669C40.6496 69.887 40.6196 70.117 40.5896 70.3371C40.5696 70.4871 40.5596 70.6371 40.5496 70.7871C40.4696 71.4873 40.4095 72.1874 40.3495 72.8775C40.3095 73.3576 40.2595 73.8477 40.2195 74.3277C40.1595 75.0779 40.1095 75.818 40.0695 76.5681C40.0495 76.9382 40.0095 77.3082 39.9895 77.6683C39.9895 77.7083 39.9895 77.7583 39.9895 77.7983C39.8895 79.6286 39.8394 81.4389 39.8194 83.2492C39.8194 83.4193 39.8095 83.5893 39.7995 83.7493C39.7995 83.8694 39.7995 83.9794 39.7995 84.0994C39.7995 85.6297 39.8195 87.1499 39.8695 88.6602C39.8695 88.7702 39.8695 88.8902 39.8695 89.0002C39.8695 89.2203 39.8995 89.4403 39.9095 89.6603C39.9595 90.7905 40.0195 91.9107 40.0995 93.0309C40.1195 93.2509 40.1195 93.471 40.1395 93.691C40.1395 93.811 40.1595 93.9211 40.1695 94.0411C40.2695 95.3313 40.3995 96.6115 40.5396 97.8817C40.5396 97.9117 40.5396 97.9517 40.5496 97.9817C40.5696 98.1518 40.5996 98.3118 40.6196 98.4818C40.7396 99.502 40.8796 100.522 41.0397 101.522C41.0597 101.672 41.0797 101.832 41.0997 101.982C41.1397 102.222 41.1897 102.462 41.2297 102.703C41.3597 103.493 41.4997 104.283 41.6498 105.063C41.6898 105.293 41.7298 105.533 41.7798 105.763C41.8098 105.923 41.8498 106.083 41.8898 106.243C42.0598 107.053 42.2399 107.853 42.4199 108.654C42.4799 108.894 42.5199 109.144 42.5799 109.384C42.5999 109.454 42.6199 109.514 42.6299 109.584C42.9 110.684 43.19 111.774 43.5001 112.834C43.5101 112.874 43.5201 112.914 43.5301 112.944C43.5701 113.094 43.6301 113.244 43.6701 113.394C43.9401 114.314 44.2302 115.215 44.5402 116.105C44.5903 116.245 44.6303 116.405 44.6803 116.545C44.7403 116.715 44.8103 116.875 44.8703 117.045C45.2104 118.005 45.5704 118.955 45.9505 119.875C46.0105 120.025 46.0605 120.175 46.1205 120.326C46.1505 120.396 46.1805 120.456 46.2105 120.526C46.3306 120.806 46.4606 121.086 46.5806 121.356C46.8006 121.866 47.0306 122.376 47.2707 122.866C47.4107 123.166 47.5607 123.466 47.7108 123.766C47.8608 124.056 47.9908 124.356 48.1408 124.646C48.2108 124.776 48.2809 124.886 48.3509 125.016C48.6609 125.596 48.981 126.167 49.3111 126.727C49.4611 126.997 49.6111 127.267 49.7711 127.527C50.2612 128.337 50.7713 129.127 51.2914 129.877C57.5024 138.789 65.2638 142.709 73.3151 142.069L88.5177 140.859C80.4664 141.499 72.705 137.578 66.494 128.667C65.9639 127.907 65.4638 127.117 64.9737 126.317C64.8137 126.056 64.6637 125.786 64.5137 125.516L64.5436 125.526Z" fill="#F9DD8F"/>
<path d="M66.374 30.7504C51.1814 62.8958 51.2514 106.743 66.534 128.677C79.5562 147.36 99.4095 144.11 114.402 122.876L127.464 95.2513C136.556 65.5463 134.576 30.9604 121.563 12.2673C106.281 -9.66642 81.5766 -1.39502 66.384 30.7504H66.374ZM123.394 57.745C119.593 65.7763 111.652 73.2976 105.431 86.4698L105.241 86.8699C99.0195 100.032 96.2991 115.065 92.5084 123.096C88.6378 131.287 83.6469 132.198 72.6751 116.445C60.653 99.192 62.7734 67.6066 74.5154 42.7624L74.7054 42.3624C86.4474 17.5182 103.83 7.83654 115.852 25.0895C126.824 40.8321 127.264 49.5536 123.394 57.735V57.745Z" fill="#F4C12A"/>
<path d="M153.319 141.629C153.109 142.509 152.799 143.429 152.339 144.39C148.948 151.561 139.746 157.932 131.795 158.622C130.705 158.712 129.695 158.682 128.775 158.562C127.424 164.273 131.105 168.154 137.996 167.564C145.947 166.883 155.149 160.502 158.54 153.331C161.47 147.14 159.12 142.379 153.319 141.619V141.629Z" fill="#F4C12A"/>
<path d="M141.587 124.686C141.377 125.567 141.066 126.487 140.606 127.447C137.216 134.618 128.014 140.989 120.063 141.679C118.973 141.769 117.963 141.739 117.042 141.619C115.692 147.33 119.373 151.211 126.264 150.621C134.215 149.941 143.417 143.56 146.807 136.388C149.738 130.197 147.388 125.436 141.587 124.676V124.686Z" fill="#F4C12A"/>
</g>
<defs>
<clipPath id="clip0_11493_12460">
<rect width="365.763" height="386.934" fill="white"/>
</clipPath>
</defs>
</svg>
