<svg width="1080" height="1920" viewBox="0 0 1080 1920" fill="none" xmlns="http://www.w3.org/2000/svg">
<g clip-path="url(#clip0_11501_16828)">
<rect width="1080" height="1920" fill="#CE92D6"/>
<g clip-path="url(#clip1_11501_16828)">
<path d="M586.128 839.907L1501 509.885V0H1481.53L570.752 813.027L628.109 795.271L586.128 839.907Z" fill="#E3B2EB"/>
<path d="M540 0L540 780.387L1339.3 0H902.279L580.024 673.511L740.564 234.987L699.899 256.551L706.431 200.373L645.158 265.582L702.907 0H540Z" fill="#E3B2EB"/>
<path d="M496.488 817.778L447.156 727.502L479.492 764.765L237.89 0H-204.544L496.488 817.778Z" fill="#E3B2EB"/>
<path d="M-421 267.146L430.286 791.893L-295.02 498.098L-32.3111 657.013L-421 585.92V267.146Z" fill="#E3B2EB"/>
<path d="M-421 1425.67L511.544 1101.08L446.445 1138.24L507.201 1122.76L-385.461 1920H-421V1425.67Z" fill="#E3B2EB"/>
<path d="M552.831 1162.03L482.34 1673.8L438.561 1565.6L365.098 1920H-163.452L552.831 1162.03Z" fill="#E3B2EB"/>
<path d="M584.633 1115.66L1269.7 1920H835.614L596.664 1170.61L633.626 1218.7L584.633 1115.66Z" fill="#E3B2EB"/>
<path d="M657.972 1146.99L1501 1670.24V1351.34L1118.82 1281.72L1362.74 1428.82L657.972 1146.99Z" fill="#E3B2EB"/>
</g>
</g>
<defs>
<clipPath id="clip0_11501_16828">
<rect width="1080" height="1920" fill="white"/>
</clipPath>
<clipPath id="clip1_11501_16828">
<rect width="1922" height="1920" fill="white" transform="translate(-421)"/>
</clipPath>
</defs>
</svg>
