<svg width="99" height="99" viewBox="0 0 99 99" fill="none" xmlns="http://www.w3.org/2000/svg">
<g clip-path="url(#clip0_11113_10872)">
<path fill-rule="evenodd" clip-rule="evenodd" d="M63.5554 24.8507C65.5875 29.6187 69.3904 33.4143 74.1514 35.4463C80.2258 38.0371 88.9058 41.7456 95.8294 44.6993C100.061 46.5064 100.053 52.4936 95.8294 54.3007L74.1514 63.5537C69.3832 65.5857 65.5875 69.3813 63.5554 74.1493C60.9645 80.2236 57.256 88.9033 54.3022 95.8268C52.4951 100.058 46.5077 100.058 44.7006 95.8268C41.7468 88.9033 38.0382 80.2236 35.4473 74.1493C33.4152 69.3813 29.6123 65.5857 24.8514 63.5537C18.7769 60.9629 10.0969 57.2544 3.17333 54.3007C-1.05778 52.4936 -1.05778 46.5064 3.17333 44.6993C10.0969 41.7456 18.7769 38.0371 24.8514 35.4463C29.6195 33.4143 33.4152 29.6115 35.4473 24.8507C38.0382 18.7764 41.7468 10.0967 44.7006 3.17324C46.5077 -1.05775 52.4951 -1.05775 54.3022 3.17324C57.256 10.0967 60.9645 18.7764 63.5554 24.8507Z" fill="#12DEC4"/>
</g>
<defs>
<clipPath id="clip0_11113_10872">
<rect width="99" height="99" fill="white"/>
</clipPath>
</defs>
</svg>
