<svg width="292" height="317" viewBox="0 0 292 317" fill="none" xmlns="http://www.w3.org/2000/svg">
<g clip-path="url(#clip0_11113_10873)">
<path fill-rule="evenodd" clip-rule="evenodd" d="M77.6789 226.373C80.1626 232.201 84.8106 236.84 90.6294 239.323C98.0538 242.49 108.663 247.022 117.125 250.632C122.296 252.841 122.287 260.159 117.125 262.368L90.6294 273.677C84.8017 276.16 80.1626 280.799 77.6789 286.627C74.5122 294.051 69.9795 304.66 66.3693 313.122C64.1606 318.293 56.8427 318.293 54.634 313.122C51.0238 304.66 46.4911 294.051 43.3245 286.627C40.8408 280.799 36.1928 276.16 30.3739 273.677C22.9495 270.51 12.3407 265.978 3.87851 262.368C-1.29284 260.159 -1.29284 252.841 3.87851 250.632C12.3407 247.022 22.9495 242.49 30.3739 239.323C36.2017 236.84 40.8408 232.192 43.3245 226.373C46.4911 218.949 51.0238 208.34 54.634 199.878C56.8427 194.707 64.1606 194.707 66.3693 199.878C69.9795 208.34 74.5122 218.949 77.6789 226.373Z" fill="#12DEC4"/>
<path fill-rule="evenodd" clip-rule="evenodd" d="M144.864 18.3243C146.363 21.8401 149.167 24.6388 152.677 26.1372C157.156 28.0476 163.557 30.7821 168.662 32.9601C171.782 34.2926 171.777 38.7074 168.662 40.0399L152.677 46.8628C149.161 48.3612 146.363 51.1599 144.864 54.6758C142.954 59.1548 140.219 65.555 138.041 70.6601C136.708 73.78 132.294 73.78 130.961 70.6601C128.783 65.555 126.048 59.1548 124.138 54.6758C122.639 51.1599 119.835 48.3612 116.325 46.8628C111.846 44.9524 105.445 42.2179 100.34 40.0399C97.22 38.7074 97.22 34.2926 100.34 32.9601C105.445 30.7821 111.846 28.0476 116.325 26.1372C119.841 24.6388 122.639 21.8347 124.138 18.3243C126.048 13.8452 128.783 7.44502 130.961 2.33986C132.294 -0.779955 136.708 -0.779955 138.041 2.33986C140.219 7.44502 142.954 13.8452 144.864 18.3243Z" fill="#12DEC4"/>
<path fill-rule="evenodd" clip-rule="evenodd" d="M276.963 157.543C277.825 159.566 279.438 161.176 281.458 162.038C284.035 163.137 287.718 164.71 290.655 165.963C292.45 166.73 292.447 169.27 290.655 170.037L281.458 173.962C279.435 174.824 277.825 176.434 276.963 178.457C275.864 181.034 274.29 184.717 273.037 187.654C272.271 189.449 269.731 189.449 268.964 187.654C267.711 184.717 266.137 181.034 265.038 178.457C264.176 176.434 262.563 174.824 260.543 173.962C257.966 172.863 254.284 171.29 251.346 170.037C249.551 169.27 249.551 166.73 251.346 165.963C254.284 164.71 257.966 163.137 260.543 162.038C262.566 161.176 264.176 159.562 265.038 157.543C266.137 154.966 267.711 151.283 268.964 148.346C269.731 146.551 272.271 146.551 273.037 148.346C274.29 151.283 275.864 154.966 276.963 157.543Z" fill="#12DEC4"/>
</g>
<defs>
<clipPath id="clip0_11113_10873">
<rect width="292" height="317" fill="white"/>
</clipPath>
</defs>
</svg>
