<svg width="174" height="149" viewBox="0 0 174 149" fill="none" xmlns="http://www.w3.org/2000/svg">
<g clip-path="url(#clip0_11113_10871)">
<path fill-rule="evenodd" clip-rule="evenodd" d="M138.555 24.8507C140.588 29.6187 144.39 33.4143 149.151 35.4463C155.226 38.0371 163.906 41.7456 170.829 44.6993C175.061 46.5064 175.053 52.4936 170.829 54.3007L149.151 63.5537C144.383 65.5857 140.588 69.3813 138.555 74.1493C135.965 80.2236 132.256 88.9033 129.302 95.8268C127.495 100.058 121.508 100.058 119.701 95.8268C116.747 88.9033 113.038 80.2236 110.447 74.1493C108.415 69.3813 104.612 65.5857 99.8514 63.5537C93.7769 60.9629 85.0969 57.2544 78.1733 54.3007C73.9422 52.4936 73.9422 46.5064 78.1733 44.6993C85.0969 41.7456 93.7769 38.0371 99.8514 35.4463C104.62 33.4143 108.415 29.6115 110.447 24.8507C113.038 18.7764 116.747 10.0967 119.701 3.17324C121.508 -1.05775 127.495 -1.05775 129.302 3.17324C132.256 10.0967 135.965 18.7764 138.555 24.8507Z" fill="#12DEC4"/>
<path fill-rule="evenodd" clip-rule="evenodd" d="M23.753 121.288C24.5125 123.07 25.9338 124.488 27.7131 125.248C29.9834 126.216 33.2274 127.602 35.815 128.706C37.3964 129.381 37.3936 131.619 35.815 132.294L27.7131 135.752C25.9311 136.512 24.5125 137.93 23.753 139.712C22.7847 141.983 21.3987 145.226 20.2948 147.814C19.6194 149.395 17.3817 149.395 16.7063 147.814C15.6023 145.226 14.2163 141.983 13.248 139.712C12.4885 137.93 11.0672 136.512 9.28789 135.752C7.01762 134.784 3.77361 133.398 1.18599 132.294C-0.39533 131.619 -0.39533 129.381 1.18599 128.706C3.77361 127.602 7.01762 126.216 9.28789 125.248C11.0699 124.488 12.4885 123.067 13.248 121.288C14.2163 119.017 15.6023 115.774 16.7063 113.186C17.3817 111.605 19.6194 111.605 20.2948 113.186C21.3987 115.774 22.7847 119.017 23.753 121.288Z" fill="#12DEC4"/>
</g>
<defs>
<clipPath id="clip0_11113_10871">
<rect width="174" height="149" fill="white"/>
</clipPath>
</defs>
</svg>
