<svg width="1300" height="1300" viewBox="0 0 1300 1300" fill="none" xmlns="http://www.w3.org/2000/svg">
<path fill-rule="evenodd" clip-rule="evenodd" d="M853.34 82.2289C851.002 88.8548 850.988 95.634 853.678 101.133C857.086 108.109 860.999 112.46 864.149 112.777C867.469 113.147 872.713 109.436 877.445 103.42C877.94 101.853 875.466 94.4902 867.769 88.4212C864.661 85.977 859.678 82.9592 853.34 82.2289ZM810.629 130.394C807.137 130.394 803.817 128.43 802.364 125.162C797.374 113.921 796.263 88.1178 827.793 70.8979C832.538 68.3035 837.211 66.6329 841.744 65.7192C843.904 62.3779 846.483 59.19 849.459 56.2322C866.65 39.129 891.355 34.744 915.543 44.5077C920.108 46.3518 922.247 51.3904 920.324 55.762C918.393 60.137 913.132 62.1812 908.56 60.3405C885.623 51.0802 870.257 60.9674 863.685 66.9263C872.41 69.6841 879.797 74.876 885.048 80.5849C895.637 92.096 898.348 105.431 891.787 113.764C882.825 125.152 872.41 130.861 862.281 129.871C852.25 128.867 843.88 121.647 837.413 108.416C834.256 101.963 833.131 94.7537 833.873 87.4609C811.594 101.24 818.81 118.263 818.887 118.436C820.831 122.804 818.702 127.85 814.137 129.707C812.991 130.174 811.803 130.394 810.629 130.394Z" fill="#F4C12A"/>
<path fill-rule="evenodd" clip-rule="evenodd" d="M1103.23 508.575L1099.18 464.256L1019.52 489.564L1103.23 508.575Z" fill="#F4C12A"/>
<path fill-rule="evenodd" clip-rule="evenodd" d="M239.939 660.175C240.07 665.127 242.016 669.2 243.675 671.79C247.878 678.365 253.561 680.945 255.037 680.593C259.77 677.547 262.973 673.746 262.97 671.011C262.97 668.435 259.999 665.073 254.821 661.789C250.818 659.249 245.412 658.783 239.939 660.175ZM212.373 710.863C209.459 710.863 206.758 708.934 205.806 705.891C199.661 686.229 204.851 667.163 219.695 654.895C222.197 652.825 224.84 651.07 227.558 649.635C228.568 646.27 230.127 642.855 232.362 639.453C240.765 622.467 260.34 615.228 277.148 622.947C280.638 624.551 282.223 628.801 280.686 632.445C279.145 636.088 275.065 637.732 271.585 636.132C261.844 631.653 250.573 635.531 245.232 644.935C251.203 644.861 257.027 646.333 261.992 649.477C271.801 655.697 276.779 662.94 276.782 671.005C276.788 679.127 271.537 686.94 262.002 693.002C254.892 697.521 244.515 694.304 236.163 685.011C232.086 680.472 228.555 674.326 226.979 667.321C221.782 672.132 213.267 683.293 218.936 701.426C220.12 705.207 218.142 709.273 214.515 710.508C213.801 710.749 213.08 710.863 212.373 710.863Z" fill="#F4C12A"/>
<path fill-rule="evenodd" clip-rule="evenodd" d="M225.831 1006.13C219.84 1007.16 214.684 1009.83 211.766 1013.78C207.965 1018.92 206.404 1023.23 207.489 1025.58C208.64 1028.09 213.397 1030.22 219.612 1030.99C220.977 1030.67 225.555 1025.94 226.965 1018.13C227.515 1015.11 227.735 1010.65 225.831 1006.13ZM171.431 990.556C171.735 989.484 172.309 988.463 173.156 987.586C186.676 973.607 209.179 972.075 224.634 983.995C228.32 986.181 231.329 988.664 233.758 991.333C237.097 991.497 240.492 991.991 243.887 992.832C263.884 997.784 277.18 1012.99 279.458 1033.51C279.892 1037.45 276.903 1040.97 272.777 1041.39C268.647 1041.8 264.952 1038.95 264.514 1035.02C262.386 1015.88 248.912 1009.3 241.71 1007.14C243.082 1014.18 242.151 1021.24 240.005 1027.08C235.592 1039.04 226.612 1046.32 217.649 1045.2C210.695 1044.33 198.334 1041.37 193.721 1031.34C190.33 1023.96 192.265 1015.28 199.482 1005.52C203.104 1000.62 208.234 996.869 214.24 994.45C204.99 988.036 192.072 989.167 184.205 997.3C181.395 1000.21 176.639 1000.39 173.587 997.71C171.455 995.835 170.717 993.055 171.431 990.556Z" fill="#10CBB4"/>
<path fill-rule="evenodd" clip-rule="evenodd" d="M1198.99 717.685C1196.47 712.368 1192.57 708.271 1187.98 706.597C1182 704.419 1177.4 704.108 1175.37 705.745C1173.22 707.483 1172.35 712.486 1173.17 718.487C1173.83 719.674 1179.6 722.688 1187.57 721.93C1190.65 721.639 1195.07 720.658 1198.99 717.685ZM1200.44 662.804C1201.57 662.804 1202.71 663.071 1203.78 663.629C1220.82 672.522 1228.01 693.104 1220.28 710.687C1219.08 714.705 1217.42 718.172 1215.42 721.145C1216.11 724.304 1216.49 727.602 1216.52 730.992C1216.75 750.955 1205.27 767.401 1185.83 774.974C1182.09 776.429 1177.9 774.575 1176.45 770.838C1175.01 767.097 1176.86 762.889 1180.58 761.438C1198.71 754.372 1201.73 740.053 1202.01 732.761C1195.5 735.91 1188.37 736.921 1182.13 736.468C1169.35 735.531 1159.98 729.091 1158.8 720.431C1157.9 713.714 1157.66 701.398 1166.29 694.43C1172.63 689.309 1181.59 688.805 1192.93 692.945C1198.63 695.022 1203.58 698.807 1207.46 703.769C1211.38 693.439 1207.01 681.688 1197.09 676.513C1193.54 674.663 1192.16 670.276 1194 666.717C1195.29 664.231 1197.82 662.804 1200.44 662.804Z" fill="#F4C12A"/>
<path fill-rule="evenodd" clip-rule="evenodd" d="M1184.52 340.847C1184.75 335.15 1183.19 329.91 1179.91 326.35C1175.6 321.684 1171.68 319.305 1169.19 319.835C1166.6 320.385 1163.72 324.285 1161.86 329.78C1161.73 331.092 1164.79 335.928 1171.41 338.995C1173.95 340.166 1178.89 341.878 1184.52 340.847ZM1207.02 293.485C1209.23 293.485 1211.41 294.526 1212.79 296.473C1223.56 311.755 1220.55 332.656 1205.97 344.299C1203.13 347.208 1200.15 349.453 1197.11 351.125C1196.29 354.13 1195.15 357.117 1193.68 360.03C1184.95 377.292 1167.69 386.33 1147.54 384.17C1143.68 383.761 1140.87 380.299 1141.28 376.441C1141.69 372.583 1145.2 369.795 1149.04 370.197C1167.73 372.18 1176.72 361.378 1180.28 355.209C1173.35 355.046 1166.85 352.834 1161.76 349.774C1151.05 343.334 1145.72 333.49 1148.5 325.28C1152.14 314.556 1158.44 307.74 1166.27 306.087C1174.07 304.428 1182.17 308.048 1190.28 316.837C1194.28 321.167 1196.86 326.635 1197.99 332.63C1206.03 325.512 1207.53 313.45 1201.26 304.556C1199.02 301.378 1199.78 297 1202.97 294.765C1204.2 293.901 1205.61 293.485 1207.02 293.485Z" fill="#DE4A65"/>
<path fill-rule="evenodd" clip-rule="evenodd" d="M234.828 146.679C240.125 144.569 244.28 141.02 246.196 136.57C248.706 130.736 249.287 126.191 247.787 124.125C246.231 121.983 241.497 120.94 235.722 121.478C234.469 121.888 231.294 126.65 231.188 133.951C231.15 136.745 231.597 141.957 234.828 146.679ZM287.245 147.966C288.146 149.99 288.081 152.404 286.862 154.453C277.285 170.515 256.964 176.261 240.399 167.681C236.587 166.27 233.324 164.461 230.558 162.359C227.481 162.834 224.287 163.006 221.028 162.847C201.71 161.899 186.432 149.804 180.209 130.519C179.011 126.82 181.032 122.848 184.725 121.657C188.416 120.462 192.389 122.531 193.582 126.199C199.373 144.081 212.897 147.9 219.981 148.644C217.314 142.251 216.692 135.415 217.415 129.517C218.942 117.114 225.768 108.244 234.399 107.444C245.675 106.405 254.467 109.392 259.157 115.865C263.849 122.323 263.836 131.192 259.105 142.176C256.776 147.589 252.831 152.173 247.813 155.642C257.587 160.096 269.215 156.558 274.788 147.207C276.781 143.87 281.09 142.785 284.428 144.787C285.72 145.563 286.675 146.686 287.245 147.966Z" fill="#DE4A65"/>
<path fill-rule="evenodd" clip-rule="evenodd" d="M138.864 569.29L99.5024 589.924L73.8635 511.924L138.864 569.29Z" fill="#3F0D4A"/>
<path fill-rule="evenodd" clip-rule="evenodd" d="M288.988 886.56L270.833 843.52L348.833 821.56L288.988 886.56Z" fill="#BD77C7"/>
<path fill-rule="evenodd" clip-rule="evenodd" d="M1033.11 1084.94L1003.15 1054.77L959.44 1124.11L1033.11 1084.94Z" fill="#BD77C7"/>
<path fill-rule="evenodd" clip-rule="evenodd" d="M420.137 167.764L458.034 181.015L467.803 103.015L420.137 167.764Z" fill="#BD77C7"/>
<path fill-rule="evenodd" clip-rule="evenodd" d="M939.834 830.947C935.891 833.777 933.65 837.642 932.445 840.485C929.392 847.69 930.456 853.97 931.578 855.063C936.985 857.695 942.057 858.519 944.314 857.058C946.343 855.74 947.444 851.497 947.32 845.423C947.219 840.396 944.381 835.176 939.834 830.947ZM941.254 872.378C936.368 872.378 930.886 870.948 925.099 868.101C917.223 864.223 914.039 853.21 917.189 840.686C918.671 834.784 921.734 828.519 926.52 823.404C919.376 821.303 905.397 819.781 893.296 833.834C890.676 836.872 886.115 837.189 883.116 834.533C880.12 831.873 879.811 827.256 882.431 824.211C895.822 808.673 914.926 803.487 933.546 810.352C936.347 811.387 939.004 812.647 941.476 814.094C945.312 812.947 949.594 812.385 954.393 812.623C983.708 814.023 992.665 833.974 993.304 844.333C993.549 848.361 990.533 851.831 986.553 852.083C982.697 852.345 979.204 849.311 978.912 845.32C978.757 843.577 976.836 829.288 955.858 827.378C959.509 832.803 961.615 838.901 961.739 845.126C961.977 856.905 958.73 865.064 952.089 869.375C949.003 871.381 945.335 872.378 941.254 872.378Z" fill="#10CBB4"/>
<path fill-rule="evenodd" clip-rule="evenodd" d="M603.909 121.079L641.465 81.9409L703.353 167.307L603.909 121.079Z" fill="#742384"/>
<path fill-rule="evenodd" clip-rule="evenodd" d="M1063.83 911.377L1073.86 954.71L1150.5 918.573L1063.83 911.377Z" fill="#742384"/>
<path fill-rule="evenodd" clip-rule="evenodd" d="M135.371 291.711L108.925 327.059L182.591 365.378L135.371 291.711Z" fill="#742384"/>
<path fill-rule="evenodd" clip-rule="evenodd" d="M581.277 1043.79C563.678 1043.79 548.802 1036.82 538.108 1023.54C500.45 976.758 528.827 860.113 534.898 837.204C537.775 826.342 548.903 819.873 559.767 822.755C570.624 825.63 577.094 836.767 574.217 847.63C561.333 896.373 551.449 975.256 569.793 998.032C572.057 1000.84 575.189 1003.41 582.494 1003.08C634.92 1000.77 743.081 934.663 780.332 909.388C789.63 903.079 802.273 905.506 808.581 914.803C814.885 924.095 812.465 936.745 803.171 943.054C788.494 953.018 657.664 1040.49 584.284 1043.72C583.273 1043.76 582.27 1043.79 581.277 1043.79Z" fill="#DE4A65"/>
<path fill-rule="evenodd" clip-rule="evenodd" d="M695.035 1006.67C706.902 1000.72 718.487 994.522 729.426 988.396L712.186 951.228C702.78 956.52 693.032 961.805 683.178 966.881C685.375 976.926 689.547 993.939 695.035 1006.67Z" fill="#973043"/>
<path fill-rule="evenodd" clip-rule="evenodd" d="M776.56 1072.67C764.476 1072.67 752.863 1068.72 742.43 1060.99C687.164 1020 675.548 871.518 674.405 854.722C673.646 843.514 682.11 833.814 693.312 833.048C704.511 832.244 714.219 840.75 714.985 851.952C715.012 852.332 717.67 890.168 726.14 931.646C736.326 981.538 751.097 1016.77 766.662 1028.31C771.275 1031.73 775.434 1032.68 780.559 1031.49C850.706 1015.3 912.535 966.359 913.152 965.864C921.921 958.86 934.72 960.277 941.73 969.044C948.746 977.808 947.339 990.597 938.581 997.618C935.781 999.863 869.105 1052.81 789.708 1071.14C785.288 1072.16 780.892 1072.67 776.56 1072.67Z" fill="#DE4A65"/>
<path fill-rule="evenodd" clip-rule="evenodd" d="M769.246 921.914C769.246 921.914 782.462 886.784 809.934 904.549C820.452 911.353 863.564 961.456 869.411 972.59C877.034 987.111 839.532 992.535 811.544 975.224C783.56 957.896 776.55 946.901 769.246 921.914Z" fill="#DE4A65"/>
<path fill-rule="evenodd" clip-rule="evenodd" d="M527.17 871.308L566.438 883.083C568.652 870.742 571.252 858.927 573.994 848.451L531.407 851.305C530.099 856.967 528.631 863.731 527.17 871.308Z" fill="#973043"/>
<path fill-rule="evenodd" clip-rule="evenodd" d="M674.643 857.996C675.111 864.089 676.124 875.582 677.985 890.181L720.049 896.534C717.568 879.528 716.155 865.533 715.48 857.996H674.643Z" fill="#973043"/>
<path fill-rule="evenodd" clip-rule="evenodd" d="M377.563 242.151C379.336 238.588 382.976 234.496 390.06 231.757C392.589 230.777 395.324 231.051 397.999 231.994C396.778 212.825 398.117 193.853 405.869 191.951C414.713 189.781 416.723 218.928 419.685 246.501C420.553 254.567 424.695 271.234 419.811 275.638C415.469 279.557 397.033 287.677 391.538 289.501C382.085 292.644 378.726 277.116 378.726 277.116C378.726 277.116 361.28 273.471 363.313 254.557C364.415 244.338 371.381 242.084 377.563 242.151Z" fill="#DE4A65"/>
<mask id="mask0_11107_16677" style="mask-type:alpha" maskUnits="userSpaceOnUse" x="381" y="247" width="144" height="344">
<path d="M501.915 590.518C506.162 591.085 510.626 590.315 514.64 588.03C524.402 582.473 527.811 570.054 522.259 560.29C521.415 558.805 432.5 370.78 422.247 265.839C421.152 254.658 411.197 246.484 400.025 247.572C388.85 248.664 380.671 258.614 381.766 269.796C392.866 383.413 483.286 574.052 486.91 580.415C490.181 586.162 495.831 589.708 501.915 590.518Z" fill="white"/>
</mask>
<g mask="url(#mask0_11107_16677)">
<path d="M501.915 590.518C506.162 591.085 510.626 590.315 514.64 588.03C524.402 582.473 527.811 570.054 522.259 560.29C521.415 558.805 432.5 370.78 422.247 265.839C421.152 254.658 411.197 246.484 400.025 247.572C388.85 248.664 380.671 258.614 381.766 269.796C392.866 383.413 483.286 574.052 486.91 580.415C490.181 586.162 495.831 589.708 501.915 590.518Z" fill="#DE4A65"/>
<path fill-rule="evenodd" clip-rule="evenodd" d="M478.196 456.495L470.539 546.426L480.11 567.473L487.766 477.543L478.196 456.495Z" fill="#973043"/>
</g>
<path fill-rule="evenodd" clip-rule="evenodd" d="M363.49 258.222C363.633 259.429 363.85 260.622 364.043 261.802C364.69 264.091 365.405 266.383 366.832 268.135C368.192 269.912 369.985 271.193 371.991 271.858C373.001 272.217 374.13 272.411 375.239 272.468C374.276 270.02 374.232 267.41 374.605 265.108C375.215 261.694 376.696 258.659 378.462 255.913C380.292 253.259 382.563 250.831 385.265 248.905C387.451 247.376 389.99 246.315 392.617 245.803C392.637 245.776 392.661 245.749 392.681 245.725C392.946 245.4 393.207 245.057 393.454 244.701C393.952 243.993 394.42 243.24 394.847 242.447C395.227 243.264 395.566 244.122 395.861 245.013C395.911 245.169 395.952 245.339 396 245.498C402.114 245.535 407.7 248.587 411.327 252.842C406.338 249.434 400.359 247.627 394.969 248.763C389.546 249.787 385.309 253.757 382.35 258.473C380.913 260.816 379.777 263.331 379.377 265.884C378.92 268.396 379.32 271 380.56 272.428C381.743 273.716 383.845 273.95 386.19 272.763C388.461 271.58 390.573 269.631 392.515 267.539L395.356 269.454C394.61 270.658 393.966 271.912 393.868 273.197C393.715 274.475 394.105 275.76 394.922 276.94C396.603 279.313 399.531 280.978 402.402 282.422C399.247 281.761 395.945 280.822 393.339 278.273C392.271 277.249 391.475 275.787 391.193 274.204C390.292 275.042 389.332 275.831 388.197 276.493C387.38 276.866 386.583 277.279 385.716 277.588C384.76 277.75 383.882 278.137 382.828 278.028C381.404 278.147 379.943 277.635 378.689 276.838L378.726 277.116C375.642 277.154 373.042 276.506 370.517 275.184C368.039 273.879 366.016 271.79 364.778 269.427C363.46 267.061 363.117 264.45 362.843 261.968C362.843 260.711 362.826 259.463 362.884 258.229L363.314 254.557L363.49 258.222Z" fill="#973043"/>
<path fill-rule="evenodd" clip-rule="evenodd" d="M994.298 252.622C993.009 248.858 989.939 244.319 983.281 240.667C980.902 239.365 978.156 239.274 975.377 239.857C979.112 221.017 980.285 202.034 972.855 199.125C964.371 195.806 958.541 224.438 951.969 251.377C950.047 259.26 943.746 275.235 948.006 280.246C951.792 284.701 969.001 295.18 974.204 297.716C983.159 302.076 988.539 287.125 988.539 287.125C988.539 287.125 1006.31 285.816 1006.79 266.797C1007.04 256.52 1000.44 253.367 994.298 252.622Z" fill="#DE4A65"/>
<path fill-rule="evenodd" clip-rule="evenodd" d="M899.724 978.752C899.724 978.752 919.386 946.778 942.974 969.452C952.004 978.135 984.788 1035.53 988.408 1047.58C993.13 1063.28 955.282 1061.47 931.104 1039.14C906.926 1016.8 902.14 1004.67 899.724 978.752Z" fill="#DE4A65"/>
<path fill-rule="evenodd" clip-rule="evenodd" d="M775.092 821.125C782.909 761.973 796.945 557.109 810.29 444.814C823.634 332.526 855.096 248.025 802.839 249.561L802.826 249.557C737.478 251.622 587.958 255.016 547.907 260.556C547.907 260.556 519.398 264.329 515.273 296.981C513.063 314.499 492.962 424.957 483.038 534.2C474.472 628.526 475.828 722.449 474.883 749.09C472.825 806.58 473.628 849.865 531.746 853.845C575.485 856.845 666.467 871.241 726.008 873.207C723.364 873.126 720.673 873.017 717.924 872.885C732.98 872.807 768.93 867.667 775.092 821.125Z" fill="#DE4A65"/>
<path fill-rule="evenodd" clip-rule="evenodd" d="M760.047 758.962C766.687 708.914 775.927 567.103 783.71 471.746C791.797 372.707 820.242 309.481 777.208 306.531C721.454 302.71 594.521 307.403 560.283 312.075C560.283 312.075 535.913 315.248 532.408 342.869C530.401 358.715 514.572 445.457 505.729 543.489C500.485 601.647 497.105 661.744 494.072 719.994C492.357 752.876 490.821 784.42 533.414 787.339C570.811 789.902 667.214 801.294 718.115 802.996C715.861 802.918 713.556 802.826 711.204 802.718C724.081 802.664 754.807 798.334 760.047 758.962Z" fill="#742384"/>
<path fill-rule="evenodd" clip-rule="evenodd" d="M868.416 341.085C871.107 320.77 877.354 299.421 869.544 279.553C860.013 255.255 824.355 248.877 802.838 249.559C855.095 248.023 823.636 332.524 810.292 444.812C796.947 557.107 782.907 761.972 775.091 821.13C770.708 854.274 747.727 871.469 718.658 872.907C746.198 871.541 778.386 877.447 800.916 854.884C819.789 835.986 823.114 807.456 824.904 781.317C828.273 732.154 842.611 535.456 868.416 341.085Z" fill="#973043"/>
<path fill-rule="evenodd" clip-rule="evenodd" d="M619.741 823.004C619.226 830.528 612.707 836.203 605.189 835.684C597.678 835.172 592.001 828.659 592.519 821.136C593.034 813.623 599.542 807.944 607.054 808.456C614.575 808.972 620.256 815.491 619.741 823.004Z" fill="#973043"/>
<path fill-rule="evenodd" clip-rule="evenodd" d="M633.845 292.75C630.675 292.533 628.099 289.97 627.943 286.722C627.774 283.216 630.479 280.246 633.98 280.073L705.076 276.635C708.595 276.439 711.554 279.171 711.726 282.67C711.896 286.172 709.191 289.149 705.693 289.319L634.594 292.757C634.339 292.77 634.092 292.767 633.845 292.75Z" fill="#973043"/>
<path fill-rule="evenodd" clip-rule="evenodd" d="M807.412 561.734C811.24 616.585 820.173 645.924 834.209 649.751C834.209 649.751 836.761 623.601 841.865 571.301L807.412 561.734Z" fill="#6B222F"/>
<mask id="mask1_11107_16677" style="mask-type:alpha" maskUnits="userSpaceOnUse" x="608" y="517" width="71" height="74">
<path d="M636.224 518.344C617.382 522.49 605.456 540.643 609.585 558.888C610.944 564.913 613.887 570.199 617.906 574.427C619.967 576.605 615.373 588.607 617.928 590.176C619 590.837 621.93 588.795 624.852 586.75C627.638 584.801 630.419 582.848 631.568 583.251C637.624 585.388 644.379 585.915 651.16 584.425C669.999 580.281 681.93 562.129 677.802 543.879C674.249 528.16 659.933 517.493 643.991 517.493C641.43 517.493 638.831 517.77 636.224 518.344ZM649.054 567.537C648.023 566.991 647.643 565.715 648.208 564.693L661.964 539.803C662.532 538.788 663.825 538.413 664.853 538.968C665.881 539.52 666.258 540.798 665.699 541.815L651.94 566.702C651.554 567.401 650.824 567.798 650.071 567.798C649.727 567.798 649.376 567.714 649.054 567.537ZM641.634 560.946C641.463 558.809 641.331 557.275 636.138 555.176C630.055 552.729 626.177 551.25 626.177 546.122C626.177 541.002 631.001 538.884 635.419 538.884C636.532 538.884 637.497 539.014 638.357 539.218C640.082 539.558 641.99 540.251 643.42 541.638V541.627C643.781 541.943 644.167 542.41 644.506 542.973C644.542 543.03 644.575 543.085 644.608 543.142C644.696 543.297 644.779 543.46 644.865 543.628C644.889 543.685 644.917 543.737 644.942 543.794C645.377 544.746 645.689 545.872 645.689 547.024C645.689 547.228 645.713 547.574 645.642 547.957C645.639 547.992 645.628 548.025 645.62 548.058C645.6 548.147 645.567 548.232 645.534 548.324C645.518 548.368 645.507 548.4 645.487 548.441C645.476 548.468 645.46 548.498 645.441 548.536C645.069 549.251 644.327 549.749 643.456 549.749C642.687 549.749 642.023 549.366 641.623 548.786C641.593 548.735 641.563 548.686 641.535 548.634C641.472 548.531 641.419 548.419 641.378 548.305C641.372 548.289 641.364 548.273 641.364 548.259C641.345 548.202 641.323 548.142 641.312 548.085C641.207 547.737 641.16 547.364 641.16 547.049C641.16 546.984 641.155 546.924 641.149 546.853C641.149 546.753 641.146 546.66 641.135 546.562C641.069 546.021 640.907 545.589 640.708 545.241C640.689 545.205 640.667 545.17 640.648 545.135C640.603 545.072 640.57 545.018 640.529 544.955C639.415 543.378 637.045 542.579 635.309 542.579C632.974 542.579 630.466 543.843 630.466 546.168C630.466 548.49 632.712 549.882 636.524 551.122C643.972 553.811 645.507 555.987 646.177 558.64C646.915 561.544 645.639 568.184 636.287 568.184C628.344 568.184 626.158 563.034 625.596 560.465C625.356 559.451 625.35 558.741 625.35 558.396C625.35 557.18 626.348 556.199 627.575 556.199C628.721 556.199 629.656 557.055 629.782 558.143C629.782 558.156 629.791 558.159 629.791 558.17C629.802 558.235 629.813 558.355 629.824 558.513C629.838 558.635 629.86 558.76 629.86 558.893C629.86 558.98 629.862 559.067 629.868 559.16C629.89 559.336 629.912 559.53 629.945 559.731C630.03 560.158 630.177 560.633 630.419 561.117C630.452 561.161 630.471 561.207 630.496 561.253C631.252 562.635 632.798 563.994 635.788 564.146C635.97 564.152 636.149 564.152 636.323 564.152C640.397 564.152 641.618 562.714 641.634 560.946Z" fill="white"/>
</mask>
<g mask="url(#mask1_11107_16677)">
<path fill-rule="evenodd" clip-rule="evenodd" d="M601.131 597.837H686.252V509.964H601.131V597.837Z" fill="#10CBB4"/>
</g>
<mask id="mask2_11107_16677" style="mask-type:alpha" maskUnits="userSpaceOnUse" x="554" y="607" width="143" height="110">
<path d="M607.21 608.712C604.976 610.055 603.47 611.999 602.827 614.023C602.177 616.035 600.164 622.488 599.257 625.104C598.353 627.731 595.311 636.461 593.112 639.858C590.702 643.578 587.633 646.259 585.345 644.612C583.553 643.326 584.438 639.247 584.978 636.871C585.52 634.495 587.093 629.618 587.809 627.24C588.535 624.864 589.619 621.751 589.803 619.312C589.978 616.879 588.054 614.684 586.278 614.329C584.511 613.971 582.632 613.646 581.906 615.05C581.18 616.453 581.661 618.583 581.423 620.593C581.205 622.409 580.336 624.146 579.712 625.852C579.019 627.756 578.338 629.675 577.707 631.603C576.773 634.462 575.934 637.365 575.297 640.306C574.679 643.171 574.08 646.218 574.347 649.159C574.549 651.442 575.418 653.758 577.154 655.235C578.587 656.453 580.516 657.004 582.387 656.879C585.569 656.669 588.502 654.52 590.696 652.313C591.706 651.295 593.349 649.765 593.819 648.334C591.819 654.481 589.757 660.609 587.865 666.783C587.782 667.043 587.703 667.305 587.525 667.504C587.32 667.747 587.023 667.87 586.726 667.99C586.508 668.078 586.289 668.17 586.071 668.263C584.513 668.801 583.037 669.394 581.698 670.027C578.328 671.63 575.497 673.443 573.27 675.09C570.129 677.236 567.2 679.697 564.612 682.501C561.26 686.117 558.508 690.325 556.651 694.907C554.921 699.161 553.493 704.17 554.678 708.705C555.822 713.091 559.447 716.39 563.94 716.876C567.092 717.228 570.293 716.269 573.03 714.65C575.758 713.025 578.069 710.753 580.144 708.328C586.249 701.185 590.184 692.662 593.228 683.828C594.024 681.526 594.777 679.203 595.53 676.884C604.722 674.317 626.928 670.106 632.657 669.113C638.446 668.11 666.455 664.364 673.14 663.444C679.833 662.534 694.02 661.617 695.734 659.883C697.451 658.143 697.083 655.77 696.185 654.301C695.281 652.843 694.107 651.925 688.412 652.111C682.718 652.291 662.298 654.946 656.909 655.606C651.517 656.267 617.209 661.251 611.561 662.466C608.959 663.02 604.323 663.763 599.198 664.817C599.203 664.801 599.208 664.787 599.214 664.765C599.214 664.765 612.991 615.05 613.356 613.646C613.717 612.248 614.921 608.223 613.356 607.674C612.845 607.496 612.252 607.401 611.607 607.401C610.271 607.401 608.711 607.805 607.21 608.712ZM563.94 706.33C562.1 704.066 564.434 697.548 569.497 691.149C575.847 683.124 584.187 680.016 584.187 680.016C583.941 680.109 583.499 681.999 583.391 682.296C583.032 683.271 582.646 684.243 582.244 685.213C581.391 687.258 580.446 689.273 579.456 691.256C577.413 695.336 575.116 699.328 572.126 702.78C570.981 704.099 568.067 707.22 565.746 707.22C565.074 707.22 564.456 706.963 563.94 706.33Z" fill="white"/>
</mask>
<g mask="url(#mask2_11107_16677)">
<path fill-rule="evenodd" clip-rule="evenodd" d="M546.768 724.516H704.419V599.837H546.768V724.516Z" fill="white"/>
</g>
<mask id="mask3_11107_16677" style="mask-type:alpha" maskUnits="userSpaceOnUse" x="612" y="603" width="37" height="50">
<path d="M639.374 605.477L638.652 607.731C638.652 607.731 636.061 604.364 630.783 605.123C625.502 605.883 619.105 613.122 615.288 624.464C611.473 635.806 612.86 642.562 613.524 645.334C614.185 648.11 615.72 651.836 621.103 652.622C626.486 653.417 630.469 649.528 632.536 644.472C632.536 644.472 632.635 648.715 636.326 649.92C640.017 651.12 645.179 647.539 647.029 645.831C648.881 644.126 648.04 635.249 648.04 635.249C648.04 635.249 646.913 638.095 643.219 639.181C639.532 640.27 643.346 625.553 643.346 625.553C643.346 625.553 646.524 611.152 647.029 609.004C647.53 606.85 647.323 604.772 644.903 604.061C643.977 603.789 643.054 603.602 642.224 603.602C640.899 603.602 639.818 604.086 639.374 605.477ZM625.563 641.416C622.054 640.746 621.602 635.506 621.82 632.568C622.038 629.631 622.895 626.158 624.389 622.808C627.219 616.487 630.709 614.536 633.28 613.555C635.345 612.76 637.743 613.482 637.068 616.862C636.425 620.081 634.915 625.383 633.01 631.039C631.081 636.752 628.953 641.465 626.07 641.465C625.902 641.465 625.734 641.448 625.563 641.416Z" fill="white"/>
</mask>
<g mask="url(#mask3_11107_16677)">
<path fill-rule="evenodd" clip-rule="evenodd" d="M605.087 660.211H655.865V596.115H605.087V660.211Z" fill="white"/>
</g>
<mask id="mask4_11107_16677" style="mask-type:alpha" maskUnits="userSpaceOnUse" x="641" y="599" width="38" height="75">
<path d="M666.29 600.992C663.678 602.444 660.87 606.498 660.383 607.705L660.886 604.121C660.886 604.121 661.609 602.903 658.637 602.175C655.67 601.446 654.127 601.239 653.458 603.711C652.792 606.18 641.588 666.383 641.588 666.383C641.588 666.383 640.828 669.928 641.588 671.832C642.351 673.732 644.958 674.844 647.482 671.832C650.002 668.816 650.954 656.569 651.83 650.588C652.698 644.6 653.004 643.184 653.004 643.184C653.004 643.184 655.143 646.446 660.117 647.257C665.911 648.2 670.047 643.844 673.105 637.653C676.257 631.282 678.292 622.209 678.638 616.925C678.977 611.824 678.434 605.633 676.091 602.359C674.806 600.557 672.761 599.882 670.746 599.882C669.093 599.882 667.465 600.334 666.29 600.992ZM655.326 637.444C655.326 637.444 656.379 631.538 657.941 625.569C659.413 619.927 661.225 613.274 665.03 610.462C669.743 606.966 670.501 613.698 670.254 617.151C669.985 620.925 669.09 624.58 667.87 628.133C666.838 631.149 665.712 634.3 663.522 636.603C662.348 637.841 660.381 638.819 658.518 638.819C657.333 638.819 656.191 638.422 655.326 637.444Z" fill="white"/>
</mask>
<g mask="url(#mask4_11107_16677)">
<path fill-rule="evenodd" clip-rule="evenodd" d="M633.806 681.227H686.174V592.349H633.806V681.227Z" fill="white"/>
</g>
<mask id="mask5_11107_16677" style="mask-type:alpha" maskUnits="userSpaceOnUse" x="678" y="594" width="32" height="51">
<path d="M692.943 597.558C688.886 600.922 687.527 602.681 684.145 608.832C680.3 615.815 678.15 624.362 678.613 632.288C678.732 634.223 678.991 636.161 679.672 637.979C680.347 639.801 681.463 641.498 683.051 642.654C685.529 644.465 688.9 644.778 691.832 644.062C695.523 643.157 699.712 640.56 700.876 639.66C702.05 638.752 707.152 634.229 707.863 632.791C708.576 631.356 707.584 628.981 707.584 628.981C707.237 628.129 706.567 626.113 705.47 625.762C704.136 625.335 702.766 627.411 701.981 628.337C701.146 629.34 700.074 630.132 699.067 630.97C696.835 632.829 691.799 636.107 688.933 633.442C687.717 632.323 687.568 629.662 687.814 627.951C688.023 626.47 689.002 623.954 689.101 623.952C691.546 623.895 694.084 622.906 695.424 622.344C699.409 620.671 702.921 618.082 705.341 614.518C708.678 609.597 712.443 600.601 706.272 596.32C705.354 595.682 704.282 595.277 703.174 595.093C702.226 594.937 701.308 594.85 700.421 594.85C697.681 594.85 695.225 595.658 692.943 597.558ZM696.612 604.673C697.257 604.033 697.993 603.425 698.88 603.208C700.164 602.89 701.256 603.506 701.487 604.765C701.857 606.7 700.818 608.954 699.666 610.464C698.574 611.894 697.146 613.045 695.619 614.01C694.919 614.45 694.197 614.804 693.428 615.118C691.311 615.974 690.694 615.766 690.664 615.958C691.099 613.602 693.561 607.74 696.612 604.673Z" fill="white"/>
</mask>
<g mask="url(#mask5_11107_16677)">
<path fill-rule="evenodd" clip-rule="evenodd" d="M670.915 651.905H717.206V587.365H670.915V651.905Z" fill="white"/>
</g>
<path fill-rule="evenodd" clip-rule="evenodd" d="M687.634 400.922C690.915 401.022 692.26 402.926 692.508 406.495C690.098 421.168 674.691 432.256 656.301 431.852C637.91 431.449 623 419.696 621.229 404.932C620.965 401.74 622.477 399.189 626.341 399.577C626.341 399.577 647.162 405.272 657.29 405.462C667.418 405.653 687.634 400.922 687.634 400.922Z" fill="#3F0D4A"/>
<mask id="mask6_11107_16677" style="mask-type:alpha" maskUnits="userSpaceOnUse" x="621" y="399" width="72" height="33">
<path d="M692.508 406.497C690.098 421.17 674.693 432.259 656.3 431.856C637.91 431.452 623 419.698 621.23 404.935C620.967 401.744 622.478 399.193 626.342 399.581C626.342 399.581 647.162 405.274 657.29 405.466C667.417 405.657 687.634 400.924 687.634 400.924C687.791 400.929 687.943 400.938 688.09 400.951C691.041 401.209 692.272 403.099 692.508 406.497Z" fill="white"/>
</mask>
<g mask="url(#mask6_11107_16677)">
<path fill-rule="evenodd" clip-rule="evenodd" d="M685.857 429.115C685.857 429.115 675.81 413.513 657.298 413.164C638.785 412.813 629.345 429.04 629.345 429.04C629.345 429.04 635.178 439.44 658.89 437.198C682.601 434.958 685.857 429.115 685.857 429.115Z" fill="#DE4A65"/>
</g>
<path d="M726.002 368.221C714.79 367.397 705.03 375.817 704.205 387.029C704.13 388.046 704.164 388.935 704.285 390.321C704.426 391.933 705.846 393.126 707.458 392.986C709.07 392.845 710.263 391.425 710.123 389.813L710.074 389.207L710.028 388.243L710.049 387.459C710.637 379.475 717.587 373.478 725.572 374.065C733.558 374.654 739.555 381.603 738.968 389.583C738.939 389.961 738.886 390.335 738.793 390.807L738.549 391.91C738.177 393.485 739.151 395.064 740.725 395.436C742.3 395.809 743.879 394.835 744.252 393.26C744.573 391.904 744.735 391.036 744.812 390.018C745.636 378.806 737.216 369.048 726.002 368.221Z" fill="#DE4A65"/>
<path d="M598.482 366.471C587.269 365.645 577.509 374.067 576.684 385.279C576.61 386.294 576.643 387.181 576.764 388.57C576.904 390.182 578.325 391.376 579.937 391.236C581.549 391.095 582.742 389.675 582.602 388.063L582.522 386.939C582.498 386.461 582.501 386.084 582.529 385.709C583.116 377.724 590.067 371.726 598.051 372.315C606.037 372.902 612.034 379.851 611.445 387.84C611.418 388.213 611.366 388.581 611.274 389.051L611.029 390.158C610.656 391.733 611.63 393.312 613.205 393.685C614.779 394.057 616.358 393.083 616.731 391.509C617.056 390.134 617.216 389.278 617.289 388.267C618.116 377.054 609.695 367.296 598.482 366.471Z" fill="#DE4A65"/>
<path fill-rule="evenodd" clip-rule="evenodd" d="M826.76 581.709C822.484 581.709 818.173 580.368 814.505 577.591C805.586 570.839 803.845 558.157 810.62 549.266C811.648 547.915 924.279 374.336 948.212 272.301C950.761 261.428 961.682 254.683 972.582 257.216C983.492 259.757 990.267 270.633 987.718 281.502C961.807 391.974 847.343 567.928 842.925 573.723C838.935 578.956 832.883 581.709 826.76 581.709Z" fill="#DE4A65"/>
<path fill-rule="evenodd" clip-rule="evenodd" d="M989.72 286.995C1000.06 292.191 1007.19 278.141 1007.89 270.968C1008.58 263.798 1003.74 254.131 996.275 255.388" fill="#DE4A65"/>
<path fill-rule="evenodd" clip-rule="evenodd" d="M991.585 271.181C1000.4 266.06 998.012 242.024 977.047 242.185L991.585 271.181Z" fill="#DE4A65"/>
<path fill-rule="evenodd" clip-rule="evenodd" d="M1007.31 272.493C1007.01 273.665 1006.64 274.811 1006.29 275.946C1005.35 278.12 1004.34 280.283 1002.7 281.826C1001.12 283.396 999.182 284.424 997.11 284.814C996.065 285.037 994.922 285.074 993.82 284.99C995.095 282.705 995.477 280.138 995.413 277.823C995.26 274.38 994.195 271.196 992.809 268.258C991.349 265.404 989.422 262.715 987.004 260.465C985.043 258.669 982.67 257.291 980.141 256.445C980.124 256.415 980.107 256.384 980.087 256.357C979.867 256 979.658 255.63 979.458 255.249C979.059 254.487 978.697 253.682 978.376 252.843C977.893 253.601 977.446 254.4 977.037 255.239C976.966 255.39 976.906 255.549 976.835 255.7C970.789 254.936 964.863 257.21 960.718 260.926C966.1 258.221 972.247 257.223 977.43 259.053C982.656 260.771 986.321 265.235 988.627 270.269C989.743 272.769 990.534 275.394 990.595 277.961C990.716 280.495 989.979 283.008 988.566 284.252C987.224 285.367 985.118 285.323 982.951 283.844C980.861 282.385 979.032 280.185 977.382 277.87L974.326 279.383C974.907 280.667 975.377 281.988 975.303 283.265C975.286 284.545 974.732 285.761 973.771 286.816C971.797 288.932 968.683 290.188 965.654 291.236C968.859 290.997 972.247 290.505 975.161 288.335C976.351 287.466 977.331 286.128 977.818 284.609C978.596 285.549 979.445 286.459 980.476 287.254C981.24 287.729 981.97 288.241 982.788 288.659C983.711 288.945 984.529 289.44 985.584 289.474C986.977 289.774 988.488 289.461 989.834 288.844L989.763 289.11C992.802 289.552 995.463 289.255 998.134 288.285C1000.75 287.321 1003.03 285.532 1004.56 283.362C1006.18 281.206 1006.86 278.679 1007.46 276.273C1007.62 275.03 1007.8 273.804 1007.91 272.581L1007.96 268.908L1007.31 272.493Z" fill="#973043"/>
<path fill-rule="evenodd" clip-rule="evenodd" d="M523.401 1179.89C572.369 1203.86 649.86 1227.73 755.875 1251.51C755.875 1251.51 891.018 1282.74 927.528 1244.87C950.964 1220.56 575.157 1163.07 575.157 1163.07C575.157 1163.07 449.949 1143.94 523.401 1179.89Z" fill="#742384"/>
</svg>
