<svg width="877" height="1300" viewBox="0 0 877 1300" fill="none" xmlns="http://www.w3.org/2000/svg">
<g clip-path="url(#clip0_11527_21891)">
<path d="M706.984 1272.47C710.257 1244.91 575.558 1206.26 406.126 1186.14C236.694 1166.03 96.69 1172.06 93.4175 1199.62C90.145 1227.19 224.844 1265.84 394.276 1285.95C563.707 1306.07 703.712 1300.04 706.984 1272.47Z" fill="#742384"/>
<path d="M638.907 1239.1C631.074 1239.1 623.365 1235.55 618.323 1228.78C605.435 1211.5 594.948 1172.46 577.522 1104.96C568.912 1071.61 560.003 1037.13 550.616 1007.02C514.782 892.228 474.522 799.051 474.13 798.118C471.524 791.869 471.483 784.845 474.016 778.565C476.549 772.286 481.452 767.256 487.665 764.564C493.878 761.872 500.9 761.734 507.214 764.18C513.528 766.625 518.625 771.459 521.403 777.634C523.075 781.519 563.111 874.143 599.797 991.685C609.582 1023.02 618.659 1058.14 627.412 1092.09C637.844 1132.46 652.13 1187.78 659.64 1198.03C668.045 1209.45 665.67 1225.6 654.25 1234.02C649.813 1237.32 644.434 1239.1 638.907 1239.1Z" fill="#DE4A65"/>
<path d="M542.361 828.177C539.794 821.846 534.819 816.793 528.529 814.127C522.24 811.461 515.149 811.401 508.815 813.959C495.629 819.293 489.027 834.101 494.342 847.281C494.547 847.766 519.539 914.64 519.539 914.64L582.192 937.561C560.75 873.839 543.418 830.794 542.361 828.177Z" fill="#973043"/>
<path d="M581.445 1120.1C581.445 1120.1 591.137 1190.38 605.473 1249.1C616.465 1294.14 643.446 1301.5 684.371 1299.49C726.515 1297.44 725.228 1276.7 694.989 1233.22C680.411 1212.27 653.001 1192.26 634.444 1155.64C620.126 1127.31 590.167 1081.78 581.445 1120.1Z" fill="#DE4A65"/>
<path d="M221.392 1203.97C217.659 1203.97 213.969 1203.17 210.579 1201.6C207.188 1200.04 204.178 1197.76 201.757 1194.92C199.335 1192.08 197.56 1188.74 196.555 1185.15C195.55 1181.55 195.338 1177.78 195.934 1174.1C196.755 1169.04 216.17 1049.71 232.831 988.836C249.492 927.911 292.469 819.179 294.291 814.585C296.813 808.239 301.75 803.152 308.018 800.442C314.285 797.731 321.373 797.617 327.725 800.125C330.87 801.368 333.74 803.219 336.17 805.572C338.599 807.924 340.541 810.733 341.885 813.837C343.229 816.941 343.947 820.279 344 823.661C344.052 827.043 343.438 830.402 342.191 833.546C341.768 834.64 298.456 944.249 282.541 1002.44C266.601 1060.68 247.018 1181.15 246.813 1182.35C245.82 1188.38 242.72 1193.86 238.065 1197.82C233.41 1201.78 227.502 1203.96 221.392 1203.97Z" fill="#DE4A65"/>
<path d="M342.173 833.527C343.418 830.383 344.032 827.024 343.978 823.643C343.925 820.262 343.206 816.924 341.863 813.82C340.519 810.717 338.578 807.908 336.149 805.555C333.72 803.202 330.851 801.35 327.707 800.106C321.355 797.601 314.269 797.717 308.002 800.427C301.735 803.138 296.798 808.222 294.273 814.566C293.751 815.884 289.847 825.775 284.158 840.627L316.566 900.887C330.107 864.083 341.95 834.099 342.18 833.527H342.173Z" fill="#973043"/>
<path d="M213.678 50.8188C210.657 50.1749 207.544 50.0801 204.489 50.539C161.37 56.9921 -5.34035 123.922 0.366682 241.843C5.16606 340.982 170.944 369.2 189.855 372.116C196.608 373.149 203.495 371.459 209.003 367.416C214.51 363.373 218.186 357.309 219.223 350.556C219.738 347.212 219.588 343.8 218.782 340.514C217.976 337.228 216.529 334.134 214.526 331.408C212.522 328.683 210 326.379 207.104 324.629C204.208 322.88 200.996 321.719 197.651 321.213C150.975 314.051 54.0178 284.496 51.8419 239.368C48.3045 166.414 170.869 107.678 212.136 101.486C218.111 100.6 223.585 97.6422 227.6 93.1291C231.615 88.6159 233.916 82.8349 234.099 76.7971C234.283 70.7594 232.338 64.8492 228.605 60.1003C224.872 55.3513 219.588 52.066 213.678 50.8188Z" fill="#BE3C54"/>
<path d="M260.429 35.6193C260.429 35.6193 247.896 8.58862 217.844 23.3722C186.791 38.6282 183.85 66.1003 187.182 86.5847C190.639 107.884 260.429 35.6193 260.429 35.6193Z" fill="#BE3C54"/>
<path d="M605.791 776.23C610.889 695.498 610.889 417.159 618.529 264.058C626.17 110.969 660.909 -6.22425 590.336 0.695064H590.317C502.082 9.54158 300.036 27.9993 246.354 39.2082C246.354 39.2082 208.12 46.9543 205.571 91.4916C204.197 115.395 187.257 266.638 183.943 415.282C181.102 543.64 191.646 670.519 192.833 706.651C195.382 784.591 200.48 843.048 279.489 843.048C338.959 843.048 463.42 854.089 544.182 851.223C540.589 851.354 536.946 851.447 533.21 851.54C553.588 850.017 601.756 839.734 605.791 776.224V776.23Z" fill="#DE4A65"/>
<path d="M579.661 693.546C584.013 625.26 583.36 432.626 585.051 302.943C586.823 168.256 619.436 80.1143 560.93 80.1143C485.122 80.1143 313.78 98.2176 267.882 107.717C267.882 107.717 235.194 114.257 233.018 151.937C231.774 173.553 218.402 292.325 215.517 425.725C213.808 504.853 214.815 586.449 216.114 665.502C216.842 710.126 217.693 752.935 275.603 752.935C326.444 752.935 457.973 759.4 527.011 756.988C523.946 757.081 520.825 757.175 517.642 757.249C535.03 755.981 576.223 747.284 579.661 693.546Z" fill="#742384"/>
<path d="M687.573 118.384C689.339 90.6695 695.81 61.2142 683.389 35.0788C668.233 3.1057 619.381 -2.22211 590.336 0.693572C660.909 -6.22574 626.17 110.967 618.529 264.056C610.883 417.158 610.883 695.503 605.785 776.241C602.925 821.462 573.432 846.857 534.217 851.483C571.35 847.075 615.458 852.079 643.856 819.491C667.636 792.187 669.501 753.307 669.501 717.784C669.501 650.966 670.67 383.63 687.573 118.384Z" fill="#973043"/>
<path d="M674.032 423.997C675.133 386.97 676.469 348.121 678.104 308.178L639.206 327.68C639.206 327.68 647.518 418.073 674.032 423.997ZM395.712 793.158C395.711 795.589 395.231 797.996 394.299 800.242C393.368 802.487 392.003 804.527 390.282 806.245C388.562 807.963 386.519 809.324 384.272 810.252C382.025 811.18 379.617 811.656 377.186 811.653C374.717 811.717 372.26 811.286 369.96 810.385C367.66 809.484 365.564 808.132 363.795 806.409C362.026 804.685 360.62 802.624 359.66 800.349C358.7 798.073 358.205 795.628 358.205 793.158C358.205 790.688 358.7 788.243 359.66 785.967C360.62 783.691 362.026 781.631 363.795 779.907C365.564 778.183 367.66 776.831 369.96 775.93C372.26 775.03 374.717 774.599 377.186 774.663C379.617 774.66 382.025 775.135 384.272 776.063C386.519 776.991 388.562 778.353 390.282 780.071C392.003 781.788 393.368 783.828 394.299 786.074C395.231 788.319 395.711 790.727 395.712 793.158Z" fill="#6B222F"/>
<path d="M254.255 1138.54C254.255 1138.54 248.324 1192.06 242.225 1199.06C230.637 1212.37 119.953 1232.76 102.254 1232.11C79.1771 1231.25 98.8346 1181.64 139.617 1159.58C180.393 1137.52 218.589 1129.96 254.255 1138.54Z" fill="#DE4A65"/>
<path d="M365.647 74.7597C363.414 74.8188 361.246 74.0067 359.601 72.4954C357.957 70.9841 356.965 68.8922 356.836 66.6624C356.706 64.4326 357.45 62.2401 358.909 60.5489C360.368 58.8577 362.427 57.8005 364.652 57.6013L460.553 46.3613C461.677 46.2244 462.817 46.3114 463.907 46.6172C464.997 46.9231 466.016 47.4418 466.905 48.1434C467.794 48.845 468.535 49.7157 469.086 50.7051C469.637 51.6946 469.986 52.7833 470.114 53.9085C470.674 58.627 467.285 62.9042 462.561 63.4575L366.666 74.7099C366.312 74.741 365.982 74.7597 365.641 74.7597H365.647Z" fill="#6B222F"/>
<path d="M454.817 414.267C449.309 389.543 424.417 374.063 399.232 379.677C374.054 385.291 358.114 409.86 363.622 434.584C365.379 442.466 369.22 449.731 374.744 455.622C377.492 458.556 371.356 474.819 374.782 476.958C377.585 478.705 389.876 466.457 392.997 467.57C401.4 470.573 410.484 471.123 419.188 469.156C444.385 463.56 460.344 438.967 454.811 414.261L454.817 414.267ZM399.326 447.167C388.707 447.167 385.785 440.191 385.046 436.722C384.825 435.802 384.712 434.859 384.71 433.912C384.665 433.128 384.934 432.359 385.457 431.773C385.98 431.187 386.714 430.833 387.498 430.789C388.282 430.744 389.052 431.013 389.638 431.536C390.223 432.059 390.578 432.793 390.622 433.577C390.622 433.595 390.641 433.595 390.641 433.614C390.659 433.707 390.659 433.875 390.678 434.08C390.697 434.248 390.734 434.416 390.734 434.603C390.743 434.983 390.784 435.361 390.858 435.734C390.976 436.312 391.182 436.959 391.499 437.611C391.536 437.686 391.573 437.736 391.611 437.798C392.611 439.675 394.675 441.497 398.673 441.715C404.703 441.889 406.469 439.881 406.487 437.388C406.264 434.491 406.077 432.408 399.139 429.579C391.014 426.272 385.823 424.264 385.823 417.314C385.823 410.363 392.276 407.497 398.169 407.497C399.661 407.497 400.942 407.665 402.098 407.945C404.398 408.411 406.947 409.356 408.862 411.215V411.196C409.347 411.631 409.851 412.253 410.317 413.018C410.354 413.092 410.41 413.167 410.441 413.242C410.604 413.533 410.753 413.832 410.889 414.137C411.486 415.436 411.896 416.959 411.896 418.52C411.896 418.799 411.933 419.266 411.84 419.788C411.821 419.844 411.821 419.881 411.803 419.912L411.691 420.285C411.675 420.336 411.657 420.386 411.635 420.434L411.56 420.565C411.314 421.06 410.934 421.477 410.464 421.769C409.994 422.061 409.453 422.217 408.9 422.219C408.419 422.219 407.945 422.1 407.521 421.874C407.097 421.647 406.736 421.319 406.469 420.919C406.431 420.845 406.375 420.795 406.338 420.714C406.262 420.569 406.194 420.419 406.133 420.267L406.114 420.211C406.096 420.136 406.052 420.061 406.04 419.974C405.916 419.518 405.853 419.048 405.853 418.576C405.853 418.482 405.853 418.389 405.835 418.314C405.814 417.549 405.603 416.801 405.219 416.139C405.2 416.089 405.163 416.052 405.145 415.996C405.089 415.902 405.033 415.828 404.995 415.747C403.51 413.615 400.345 412.539 398.026 412.539C394.899 412.539 391.536 414.249 391.536 417.388C391.536 420.528 394.545 422.424 399.643 424.102C409.59 427.739 411.654 430.68 412.549 434.285C413.531 438.19 411.821 447.167 399.326 447.167ZM438.634 411.457L420.245 445.152C419.865 445.775 419.261 446.227 418.557 446.416C417.853 446.605 417.104 446.516 416.463 446.168C415.823 445.82 415.341 445.239 415.117 444.546C414.893 443.852 414.944 443.099 415.259 442.442L433.655 408.747C434.041 408.138 434.644 407.699 435.341 407.518C436.039 407.337 436.779 407.428 437.413 407.773C438.046 408.117 438.524 408.69 438.751 409.374C438.978 410.058 438.936 410.803 438.634 411.457Z" fill="#10CBB4"/>
<path d="M483.451 561.121C482.226 559.15 480.61 557.926 472.851 558.168C465.08 558.411 437.204 561.998 429.843 562.893C422.476 563.782 375.651 570.509 367.936 572.144C364.38 572.908 358.058 573.89 351.07 575.32C351.07 575.302 351.089 575.289 351.089 575.252C351.089 575.252 369.888 508.204 370.392 506.308C370.889 504.411 372.53 498.984 370.392 498.263C368.253 497.536 365.052 497.853 361.999 499.656C358.953 501.458 356.908 504.094 356.012 506.811C355.123 509.528 352.369 518.225 351.145 521.756C349.914 525.287 345.748 537.068 342.752 541.644C339.463 546.661 335.279 550.267 332.14 548.053C329.703 546.325 330.909 540.823 331.636 537.609C332.364 534.395 334.521 527.83 335.503 524.616C336.492 521.421 337.977 517.218 338.22 513.929C338.462 510.634 335.839 507.688 333.421 507.203C331.002 506.718 328.435 506.289 327.452 508.166C326.464 510.062 327.117 512.928 326.8 515.639C326.501 518.095 325.314 520.42 324.456 522.726C323.511 525.287 322.578 527.867 321.721 530.472C320.44 534.339 319.308 538.243 318.432 542.222C317.58 546.083 316.759 550.192 317.126 554.158C317.412 557.236 318.6 560.363 320.962 562.352C322.914 563.987 325.556 564.727 328.105 564.559C332.457 564.286 336.454 561.388 339.445 558.404C340.825 557.037 343.075 554.973 343.703 553.058C340.993 561.345 338.164 569.595 335.578 577.925C335.492 578.283 335.333 578.62 335.112 578.914C334.801 579.209 334.426 579.43 334.017 579.56C333.719 579.672 333.421 579.803 333.122 579.933C331.091 580.619 329.099 581.414 327.154 582.314C322.56 584.465 318.699 586.921 315.647 589.134C311.351 592.031 307.366 595.345 303.816 599.131C299.205 603.998 295.524 609.668 292.955 615.86C290.593 621.604 288.641 628.356 290.263 634.467C291.006 637.369 292.613 639.977 294.871 641.945C297.129 643.914 299.932 645.15 302.908 645.489C307.198 645.956 311.568 644.675 315.311 642.481C319.041 640.286 322.187 637.221 325.015 633.945C333.346 624.321 338.723 612.833 342.87 600.915C343.946 597.813 344.984 594.692 346.01 591.552C358.568 588.096 388.874 582.426 396.701 581.065C404.603 579.709 442.836 574.655 451.969 573.43C461.101 572.199 480.461 570.956 482.804 568.612C485.167 566.312 484.682 563.092 483.451 561.121ZM329.479 598.876C328.982 600.194 328.453 601.512 327.919 602.811C326.744 605.584 325.463 608.282 324.108 610.974C321.31 616.476 318.171 621.866 314.099 626.516C312.091 628.816 306.067 635.12 302.927 631.29C300.415 628.244 303.611 619.447 310.512 610.825C319.178 600.007 330.573 595.805 330.573 595.805C330.225 595.917 329.628 598.466 329.479 598.876Z" fill="white"/>
<path d="M414.631 536.327C414.631 536.327 413.121 540.213 408.178 541.674C403.248 543.166 408.346 523.111 408.346 523.111C408.346 523.111 412.605 503.503 413.27 500.562C413.941 497.628 413.661 494.805 410.429 493.836C407.196 492.872 404.013 492.685 403.043 495.769L402.08 498.834C402.08 498.834 398.617 494.246 391.554 495.29C384.505 496.329 375.95 506.176 370.834 521.643C365.736 537.086 367.582 546.305 368.471 550.079C369.348 553.853 371.412 558.926 378.605 560.026C385.804 561.101 391.125 555.805 393.898 548.929C393.898 548.929 394.023 554.711 398.971 556.346C403.901 557.981 410.802 553.094 413.27 550.769C415.744 548.425 414.631 536.327 414.631 536.327ZM399.96 511.274C399.102 515.657 397.075 522.887 394.526 530.583C391.815 538.814 388.782 545.528 384.579 544.726C379.892 543.819 379.276 536.682 379.575 532.666C379.978 528.075 381.142 523.583 383.019 519.374C386.792 510.77 391.461 508.109 394.899 506.773C397.653 505.697 400.867 506.679 399.96 511.274Z" fill="white"/>
<path d="M453.38 491.976C450.185 487.537 443.508 488.146 439.939 490.136C436.365 492.125 432.517 497.59 431.851 499.225L432.535 494.376C432.535 494.376 433.524 492.722 429.452 491.733C425.38 490.751 423.26 490.471 422.346 493.816C421.432 497.161 406.076 578.688 406.076 578.688C406.076 578.688 405.032 583.481 406.076 586.067C407.115 588.647 410.689 590.152 414.146 586.067C417.602 581.977 418.908 565.396 420.114 557.29C421.308 549.189 421.712 547.256 421.712 547.256C421.712 547.256 424.652 551.676 431.472 552.776C439.417 554.057 445.087 548.145 449.29 539.765C453.604 531.142 456.395 518.833 456.874 511.677C457.347 504.801 456.601 496.421 453.38 491.976ZM445.385 512.013C445.012 517.123 443.788 522.071 442.115 526.883C440.698 530.974 439.156 535.245 436.147 538.372C433.524 541.107 427.96 542.923 424.913 539.503C424.913 539.503 426.362 531.509 428.501 523.427C430.527 515.786 433.002 506.772 438.23 502.961C444.677 498.224 445.721 507.331 445.385 512.013ZM493.845 524.875C492.061 524.297 490.221 527.126 489.183 528.388C488.064 529.743 486.634 530.825 485.272 531.975C482.301 534.505 475.568 538.963 471.72 535.338C470.103 533.815 469.898 530.191 470.228 527.847C470.508 525.826 471.813 522.401 471.962 522.401C475.232 522.326 478.614 520.971 480.405 520.213C485.739 517.925 490.426 514.412 493.659 509.538C498.123 502.83 503.164 490.577 494.902 484.746C493.664 483.887 492.249 483.316 490.762 483.073C485.571 482.178 481.126 483.018 477.091 486.437C471.683 491.031 469.861 493.424 465.341 501.811C460.206 511.323 457.322 522.961 457.956 533.765C458.105 536.401 458.459 539.037 459.373 541.511C460.281 543.986 461.767 546.305 463.887 547.89C467.2 550.358 471.701 550.787 475.624 549.799C480.554 548.574 486.149 545.043 487.709 543.799C489.27 542.568 496.102 536.401 497.047 534.449C497.992 532.497 496.674 529.264 496.674 529.264C496.208 528.108 495.3 525.36 493.845 524.875ZM482.002 496.141C482.854 495.271 483.843 494.45 485.03 494.152C486.746 493.723 488.213 494.562 488.53 496.266C489.015 498.908 487.616 501.979 486.093 504.037C484.645 505.989 482.724 507.555 480.684 508.873C479.756 509.459 478.779 509.962 477.763 510.378C474.934 511.546 474.12 511.273 474.064 511.528C474.635 508.295 477.93 500.325 482.002 496.141Z" fill="white"/>
<path fill-rule="evenodd" clip-rule="evenodd" d="M815.871 91.0303L822.361 95.5685L812.532 95.009L815.871 91.0303Z" fill="#918AA0"/>
<path fill-rule="evenodd" clip-rule="evenodd" d="M321.019 479.27C315.049 482.845 307.906 483.908 301.154 482.228C294.402 480.548 288.59 476.261 284.992 470.306C283.207 467.364 282.02 464.099 281.499 460.698C280.977 457.296 281.133 453.826 281.956 450.484C282.779 447.143 284.253 443.997 286.295 441.227C288.336 438.457 290.904 436.117 293.851 434.341C299.82 430.762 306.964 429.696 313.719 431.375C320.473 433.054 326.286 437.342 329.884 443.3C331.67 446.242 332.858 449.508 333.379 452.91C333.9 456.312 333.744 459.784 332.92 463.126C332.097 466.468 330.621 469.614 328.579 472.384C326.537 475.155 323.967 477.495 321.019 479.27ZM859.208 125.21L813.813 184.6L785.65 173.882L774.616 153.397L815.87 91.0304C765.869 77.4964 727.99 110.371 712.329 127.436L691.59 111.795L668.383 144.532L676.8 151.986C676.8 151.986 656.72 189.884 647.681 200.801C638.648 211.711 588.994 240.029 561.876 256.335L284.389 423.244L284.451 423.344C275.911 429.182 269.932 438.07 267.744 448.181C265.556 458.292 267.326 468.857 272.689 477.704C284.302 496.913 309.275 503.118 328.473 491.579L637.927 284.373C665.523 267.781 690.881 255.409 738.813 257.1C786.745 258.785 806.645 263.242 837.039 244.971C867.42 226.694 874.905 170.55 859.214 125.21" fill="#918AA0"/>
<path fill-rule="evenodd" clip-rule="evenodd" d="M822.36 95.5727L780.273 159.214L799.75 195.396L708.68 142.41C708.68 142.41 754.634 77.2455 822.36 95.5727Z" fill="#B9B4C4"/>
<path fill-rule="evenodd" clip-rule="evenodd" d="M293.558 476.372C291.768 473.442 290.575 470.188 290.049 466.795C289.522 463.403 289.672 459.94 290.49 456.605C291.307 453.271 292.777 450.132 294.813 447.368C296.849 444.604 299.412 442.27 302.355 440.501C314.726 433.072 330.846 437.1 338.362 449.491C340.153 452.421 341.345 455.676 341.872 459.069C342.399 462.462 342.249 465.925 341.431 469.26C340.614 472.595 339.144 475.735 337.108 478.499C335.071 481.264 332.508 483.598 329.566 485.368C317.194 492.791 301.068 488.762 293.558 476.372ZM866.642 132.906L821.384 192.09L769.61 172.351L699.174 119.26L674.91 149.094L684.894 158.084C684.894 158.084 664.465 197.125 655.451 208.005C646.436 218.884 596.889 247.052 569.821 263.291L292.893 429.41L292.955 429.51C284.43 435.329 278.465 444.2 276.294 454.291C274.122 464.382 275.909 474.922 281.286 483.733C292.911 502.918 317.872 509.147 337.026 497.658L645.833 291.385C673.374 274.867 698.689 262.57 746.577 264.323C794.465 266.076 814.346 270.558 844.678 252.368C875.004 234.171 882.389 178.164 866.648 132.906H866.642Z" fill="#B9B4C4"/>
<path fill-rule="evenodd" clip-rule="evenodd" d="M845.761 251.741C876.534 233.525 884.908 173.887 868.514 127.889L822.833 187.533L769.909 167.117L696.955 116.04L673.567 149.437L817.673 263.577C828.316 261.855 833.022 259.182 844.548 252.362L845.761 251.741Z" fill="#CECAD6"/>
<path fill-rule="evenodd" clip-rule="evenodd" d="M718.185 226.396C717.481 227.273 716.458 227.837 715.339 227.963C714.221 228.088 713.099 227.767 712.217 227.067L687.281 207.466C686.393 206.774 685.815 205.759 685.676 204.642C685.536 203.525 685.845 202.399 686.535 201.51L705.907 176.941C706.612 176.062 707.637 175.499 708.757 175.374C709.876 175.25 711 175.574 711.881 176.276L736.811 195.871C737.7 196.561 738.279 197.577 738.42 198.693C738.561 199.81 738.252 200.937 737.563 201.827L718.185 226.396Z" fill="#918AA0"/>
<path fill-rule="evenodd" clip-rule="evenodd" d="M699.497 207.931C698.304 209.386 695.73 209.33 693.747 207.813C691.757 206.29 691.117 203.884 692.298 202.429L704.433 187.602C705.621 186.147 708.195 186.203 710.178 187.726C712.167 189.243 712.814 191.649 711.626 193.104L699.497 207.931ZM708.095 213.955C706.914 215.41 704.334 215.354 702.345 213.831C700.355 212.32 699.715 209.908 700.896 208.453L713.031 193.626C714.225 192.171 716.792 192.227 718.782 193.75C720.771 195.267 721.412 197.667 720.23 199.128L708.095 213.955ZM716.693 219.973C715.512 221.428 712.932 221.378 710.949 219.855C708.959 218.338 708.313 215.926 709.5 214.471L721.629 199.65C722.817 198.189 725.39 198.251 727.38 199.768C729.369 201.285 730.016 203.697 728.828 205.152L716.699 219.973H716.693ZM364.778 445.295L345.438 414.074L580.669 274.047L594.489 296.346L364.778 445.295Z" fill="#CECAD6"/>
<path fill-rule="evenodd" clip-rule="evenodd" d="M860.997 122.629L868.507 127.889L860.003 139.073L855.906 129.487L860.997 122.629ZM305.432 410.53C305.432 410.53 298.618 424.051 298.376 443.442C298.376 443.442 303.828 439.264 305.525 438.99L314.962 404.798L305.432 410.53ZM296.449 480.139L292.346 495.725C292.346 495.725 296.293 498.672 302.23 501.239L302.815 484.093L296.449 480.139Z" fill="#918AA0"/>
<path d="M751.052 551.435C753.079 551.435 755.093 551.373 757.082 551.267C783.466 549.744 805.704 538.237 821.401 517.976C835.439 499.854 840.363 478.35 835.644 455.821C819.282 377.7 685.483 302.812 670.289 294.538C664.443 291.35 657.569 290.615 651.181 292.495C644.792 294.375 639.412 298.716 636.224 304.562C633.037 310.409 632.302 317.283 634.182 323.671C636.062 330.06 640.402 335.439 646.249 338.627C695.822 365.689 777.735 424.221 786.5 466.134C788.222 474.39 786.793 480.688 781.701 487.271C774.875 496.062 766.153 500.488 754.216 501.172C752.983 501.247 751.747 501.285 750.511 501.284C680.355 501.284 557.697 391.899 515.628 348.966C510.967 344.21 504.609 341.498 497.95 341.425C491.292 341.351 484.876 343.923 480.111 348.574C475.355 353.227 472.641 359.579 472.568 366.233C472.494 372.886 475.067 379.297 479.719 384.054C496.753 401.436 646.597 551.41 751.052 551.435Z" fill="#DE4A65"/>
<path fill-rule="evenodd" clip-rule="evenodd" d="M455.76 364.246C449.798 345.614 442.724 314.474 465.278 289.209C487.845 263.938 516.679 308.363 524.574 324.433C532.47 340.498 551.431 380.111 551.99 388.715C552.606 398.084 519.93 418.413 513.8 414.328C513.8 414.328 464.364 391.158 455.76 364.246Z" fill="#DE4A65"/>
<path d="M642.526 336.674C643.309 337.271 645.839 338.925 649.892 341.306C731.525 389.424 770.635 440.967 779.967 487.774C781.397 485.132 784.057 483.459 788.21 473.233C800.426 443.125 737.22 387.64 692.067 356.251C646.896 324.856 689.798 305.024 689.798 305.024C685.26 302.233 673.473 295.413 672.764 294.984C667.31 291.227 660.618 289.713 654.078 290.759C647.537 291.804 641.65 295.328 637.639 300.598C635.588 303.287 634.087 306.353 633.223 309.622C632.358 312.891 632.147 316.299 632.601 319.649C633.055 323 634.165 326.229 635.868 329.15C637.571 332.071 639.833 334.628 642.526 336.674Z" fill="#BE3C54"/>
<mask id="mask0_11527_21891" style="mask-type:alpha" maskUnits="userSpaceOnUse" x="371" y="227" width="71" height="49">
<path d="M406.368 275.581C425.729 275.581 441.425 264.751 441.425 251.391C441.425 238.032 425.729 227.202 406.368 227.202C387.007 227.202 371.312 238.032 371.312 251.391C371.312 264.751 387.007 275.581 406.368 275.581Z" fill="white"/>
</mask>
<g mask="url(#mask0_11527_21891)">
<path d="M406.368 275.581C425.729 275.581 441.425 264.751 441.425 251.391C441.425 238.032 425.729 227.202 406.368 227.202C387.007 227.202 371.312 238.032 371.312 251.391C371.312 264.751 387.007 275.581 406.368 275.581Z" fill="#3F0D4A"/>
<path d="M406.368 291.701C420.932 291.701 432.74 282.076 432.74 270.203C432.74 258.33 420.932 248.706 406.368 248.706C391.803 248.706 379.996 258.33 379.996 270.203C379.996 282.076 391.803 291.701 406.368 291.701Z" fill="#DE4A65"/>
</g>
<path d="M492.609 182.975C492.745 192.203 487.501 199.809 480.787 199.983C474.073 200.157 468.461 192.707 468.307 183.356C468.153 174.006 473.55 166.377 480.252 166.331C486.984 166.28 492.472 173.748 492.609 182.975Z" fill="#DE4A65"/>
<path d="M349.34 192.033C349.536 201.879 344.308 210.015 337.598 210.22C330.883 210.394 325.235 202.479 325.052 192.506C324.868 182.533 330.219 174.378 336.952 174.327C343.684 174.276 349.21 182.208 349.375 192.059L349.34 192.033Z" fill="#DE4A65"/>
</g>
<defs>
<clipPath id="clip0_11527_21891">
<rect width="876.839" height="1300" fill="white"/>
</clipPath>
</defs>
</svg>
