<svg width="887" height="1300" viewBox="0 0 887 1300" fill="none" xmlns="http://www.w3.org/2000/svg">
<g clip-path="url(#clip0_11126_13897)">
<path d="M706.783 1234.12C698.289 1234.12 689.92 1230.29 684.446 1222.92C670.478 1204.17 659.089 1161.83 640.213 1088.53C630.901 1052.35 621.211 1014.91 611.018 982.253C572.133 857.67 528.466 756.557 528.026 755.55C521.923 741.393 528.404 724.971 542.561 718.805C556.655 712.638 573.14 719.182 579.306 733.339C581.131 737.555 624.546 838.039 664.375 965.642C675.008 999.682 684.824 1037.75 694.325 1074.62C705.651 1118.41 721.129 1178.44 729.309 1189.58C738.432 1201.97 735.852 1219.53 723.457 1228.65C718.423 1232.36 712.572 1234.19 706.783 1234.19V1234.12Z" fill="#DE4A65"/>
<path d="M602.086 788.205C596.297 773.859 579.938 767.001 565.718 772.79C551.435 778.578 544.262 794.623 550.051 808.969C550.239 809.472 577.358 882.083 577.358 882.083L645.312 906.936C622.032 837.786 603.281 791.099 602.086 788.268V788.205Z" fill="#973043"/>
<path d="M644.495 1105.01C644.495 1105.01 655.002 1181.27 670.544 1245.01C682.499 1293.9 711.757 1301.82 756.115 1299.68C801.796 1297.48 800.412 1274.96 767.63 1227.77C751.837 1205.05 722.076 1183.34 701.941 1143.58C686.4 1112.81 653.87 1063.42 644.432 1105.01H644.495Z" fill="#DE4A65"/>
<path d="M199.896 1234.12C208.39 1234.12 216.759 1230.29 222.233 1222.92C236.201 1204.17 247.59 1161.83 266.466 1088.53C275.778 1052.35 285.468 1014.91 295.661 982.253C334.546 857.67 378.213 756.557 378.653 755.55C384.757 741.393 378.276 724.971 364.119 718.805C350.024 712.638 333.539 719.182 327.373 733.339C325.548 737.555 282.133 838.039 242.305 965.642C231.671 999.682 221.855 1037.75 212.354 1074.62C201.029 1118.41 185.55 1178.44 177.371 1189.58C168.247 1201.97 170.827 1219.53 183.222 1228.65C188.256 1232.36 194.107 1234.19 199.896 1234.19V1234.12Z" fill="#DE4A65"/>
<path d="M304.598 788.205C310.387 773.859 326.746 767.001 340.966 772.79C355.249 778.578 362.422 794.623 356.634 808.969C356.445 809.472 329.326 882.083 329.326 882.083L261.372 906.936C284.653 837.786 303.403 791.099 304.598 788.268V788.205Z" fill="#973043"/>
<path d="M262.253 1105.01C262.253 1105.01 251.745 1181.27 236.204 1245.01C224.249 1293.9 194.991 1301.82 150.632 1299.68C104.951 1297.48 106.336 1274.96 139.117 1227.77C154.91 1205.05 184.672 1183.34 204.806 1143.58C220.348 1112.81 252.877 1063.42 262.316 1105.01H262.253Z" fill="#DE4A65"/>
<path d="M822.686 403.256L824.51 404.578L823.441 405.27C823.189 404.578 823 403.886 822.686 403.256Z" fill="#742384"/>
<path d="M635.812 852.321H253.004C222.928 852.321 197.131 827.719 195.683 797.643L171.774 54.6779C170.326 24.6019 196.69 0 230.29 0H658.149C691.748 0 718.112 24.6019 716.665 54.6779L693.007 797.643C691.56 827.719 665.825 852.321 635.749 852.321H635.812Z" fill="#DE4A65"/>
<path d="M595.981 826.336H292.83C262.628 826.336 236.893 801.734 235.698 771.658L220.157 140.88C218.961 110.804 245.073 86.2021 278.169 86.2021H610.264C643.36 86.2021 669.535 110.804 668.339 140.88L652.987 771.658C651.791 801.734 626.12 826.336 595.855 826.336H595.981Z" fill="#742384"/>
<path d="M502.045 52.0353H381.489C375.701 52.0353 370.982 47.7567 370.919 42.5973C370.856 37.3749 375.512 33.1592 381.3 33.1592H502.297C508.085 33.1592 512.741 37.4378 512.678 42.5973C512.678 47.8197 507.834 52.0353 502.108 52.0353H502.045Z" fill="#973043"/>
<path d="M380.104 206.315C379.286 206.315 378.405 206 377.713 205.371C359.906 189.2 331.466 189.2 314.289 205.371C312.842 206.692 310.639 206.629 309.318 205.182C307.997 203.735 308.06 201.533 309.507 200.211C329.327 181.65 362.045 181.587 382.495 200.211C383.942 201.533 384.068 203.735 382.746 205.182C382.054 205.937 381.11 206.315 380.104 206.315Z" fill="#DE4A65"/>
<path d="M508.46 206.316C507.516 206.316 506.573 205.938 505.818 205.183C504.496 203.736 504.622 201.534 506.069 200.213C526.518 181.651 559.237 181.651 579.057 200.213C580.504 201.534 580.567 203.799 579.246 205.183C577.924 206.631 575.659 206.693 574.275 205.372C557.098 189.264 528.595 189.264 510.851 205.372C510.159 206.001 509.341 206.316 508.46 206.316Z" fill="#DE4A65"/>
<path fill-rule="evenodd" clip-rule="evenodd" d="M426.73 262.817C423.018 260.614 410.056 256.147 413.454 273.261C416.914 290.376 435.035 296.416 450.766 296.982C466.496 297.486 485.309 277.729 485.057 268.165C484.868 258.601 474.55 259.482 467.88 262.439C461.651 265.208 432.644 266.34 426.667 262.88L426.73 262.817Z" fill="#3F0D4A"/>
<path fill-rule="evenodd" clip-rule="evenodd" d="M426.729 262.815C425.786 262.249 424.275 261.557 422.514 261.116C422.828 263.507 424.212 267.534 430.001 269.359C438.558 272.065 455.106 271.624 463.286 269.359C469.452 267.597 471.906 264.262 472.284 260.865C470.711 261.242 469.264 261.746 467.879 262.312C461.65 265.08 432.644 266.213 426.666 262.752L426.729 262.815Z" fill="white"/>
<path fill-rule="evenodd" clip-rule="evenodd" d="M426.729 262.817C425.786 262.251 424.275 261.559 422.514 261.118C422.828 263.384 424.087 267.033 428.932 268.984C428.114 268.103 426.604 266.341 426.352 265.397C426.037 264.076 427.233 263.95 428.68 264.453C430.064 264.957 440.068 266.467 448.752 266.026C457.497 265.586 463.601 264.516 465.048 264.139C466.432 263.761 469.641 263.069 467.061 267.851C470.459 266.026 471.906 263.447 472.221 260.93C470.648 261.307 469.201 261.811 467.816 262.377C461.587 265.145 432.581 266.278 426.604 262.817H426.729Z" fill="#E2DFE8"/>
<path fill-rule="evenodd" clip-rule="evenodd" d="M421.567 287.292C429.118 293.899 440.444 296.604 450.762 296.982C458.25 297.233 466.367 292.892 472.848 287.292C466.304 280.308 458.502 274.96 448.183 274.582C437.927 274.205 427.985 278.924 421.567 287.355V287.292Z" fill="#DE4A65"/>
<path fill-rule="evenodd" clip-rule="evenodd" d="M421.569 287.294C423.456 288.93 425.596 290.377 427.861 291.572C427.043 290.377 426.099 288.489 426.54 286.728C427.232 283.896 433.964 277.227 443.717 277.415C453.469 277.604 465.11 282.638 464.921 286.539C464.795 289.119 463.033 292.453 460.579 294.97C464.858 293.208 469.074 290.44 472.786 287.231C466.242 280.247 458.44 274.899 448.121 274.521C437.865 274.144 427.924 278.863 421.506 287.294H421.569Z" fill="#DE4A65"/>
<path fill-rule="evenodd" clip-rule="evenodd" d="M445.545 294.339C445.545 294.339 435.352 292.326 434.408 290.879C433.465 289.431 434.408 289.117 438.435 289.369C442.462 289.62 447.433 291.445 451.208 291.885C454.983 292.326 455.99 293.144 453.977 294.151C451.963 295.094 450.201 295.535 445.545 294.402V294.339Z" fill="#E77E91"/>
<path d="M512.425 445.919C506.133 417.667 477.693 399.924 448.876 406.342C420.121 412.76 401.874 440.885 408.166 469.136C410.243 478.449 414.773 486.691 420.876 493.172C424.022 496.57 416.975 515.131 420.876 517.585C424.085 519.599 438.116 505.567 441.703 506.826C450.952 510.161 461.271 510.979 471.653 508.65C500.408 502.233 518.654 474.107 512.362 445.856M448.939 483.482C436.795 483.482 433.46 475.491 432.579 471.527C432.202 469.954 432.202 468.822 432.202 468.318C432.202 466.431 433.712 464.921 435.599 464.921C437.361 464.921 438.745 466.242 438.997 467.941C438.997 468.067 438.997 468.256 438.997 468.444C438.997 468.633 438.997 468.822 438.997 469.011C438.997 469.136 438.997 469.262 438.997 469.388C438.997 469.64 439.06 469.954 439.123 470.269C439.249 470.961 439.501 471.653 439.815 472.408C439.815 472.471 439.878 472.534 439.941 472.66C441.074 474.799 443.465 476.876 448.058 477.127C454.916 477.316 456.992 474.988 456.992 472.157C456.741 468.822 456.552 466.494 448.561 463.222C439.249 459.447 433.334 457.119 433.334 449.191C433.334 441.263 440.696 437.991 447.429 437.991C449.127 437.991 450.575 438.18 451.896 438.494C454.539 438.998 457.433 440.13 459.635 442.269C460.201 442.773 460.768 443.465 461.271 444.346C461.271 444.409 461.397 444.535 461.397 444.597C461.523 444.849 461.649 445.101 461.774 445.352C461.774 445.415 461.837 445.541 461.9 445.604C462.592 447.051 463.033 448.813 463.033 450.638C463.033 450.952 463.033 451.456 462.97 452.085C462.97 452.085 462.97 452.211 462.97 452.274C462.97 452.4 462.907 452.525 462.844 452.714C462.844 452.714 462.844 452.84 462.781 452.903C462.781 452.903 462.781 452.966 462.718 453.029C462.152 454.161 461.019 454.916 459.698 454.916C458.502 454.916 457.496 454.287 456.93 453.406C456.93 453.343 456.804 453.28 456.804 453.155C456.741 452.966 456.615 452.84 456.552 452.651C456.552 452.651 456.552 452.651 456.552 452.588C456.552 452.525 456.552 452.4 456.489 452.337C456.363 451.77 456.237 451.204 456.237 450.764C456.237 450.638 456.237 450.575 456.237 450.449C456.237 450.26 456.237 450.134 456.237 450.009C456.112 449.191 455.923 448.499 455.608 447.932C455.608 447.932 455.608 447.806 455.545 447.743C455.545 447.681 455.419 447.555 455.356 447.492C453.658 445.038 450.008 443.842 447.366 443.842C443.779 443.842 439.941 445.793 439.941 449.379C439.941 452.966 443.402 455.168 449.19 457.056C460.579 461.208 462.907 464.606 463.914 468.696C465.046 473.226 463.096 483.482 448.813 483.482M493.738 442.647L472.723 481.217C471.842 482.79 469.891 483.356 468.318 482.538C466.745 481.658 466.179 479.707 466.997 478.134L488.012 439.564C488.893 437.991 490.844 437.425 492.417 438.242C493.99 439.123 494.556 441.074 493.738 442.647Z" fill="#10CBB4"/>
<path d="M545.144 613.917C543.76 611.652 541.872 610.267 533 610.519C524.129 610.771 492.228 614.861 483.86 615.93C475.428 616.937 421.883 624.613 413.074 626.501C408.984 627.382 401.748 628.514 393.757 630.15C393.757 630.15 415.276 553.387 415.842 551.248C416.409 549.109 418.296 542.88 415.842 542.062C413.389 541.244 409.739 541.558 406.279 543.635C402.818 545.711 400.427 548.731 399.42 551.814C398.414 554.897 395.268 564.902 393.82 568.929C392.436 572.956 387.654 586.421 384.256 591.706C380.481 597.432 375.699 601.584 372.113 599.068C369.344 597.117 370.729 590.825 371.546 587.113C372.364 583.4 374.818 575.913 375.951 572.264C377.083 568.614 378.782 563.832 379.034 560.057C379.286 556.282 376.328 552.884 373.56 552.381C370.791 551.814 367.834 551.311 366.765 553.513C365.632 555.653 366.387 558.987 366.009 562.07C365.695 564.839 364.311 567.545 363.367 570.187C362.297 573.144 361.228 576.102 360.221 579.059C358.774 583.463 357.452 587.931 356.446 592.461C355.502 596.865 354.558 601.584 354.935 606.115C355.25 609.638 356.634 613.225 359.34 615.49C361.542 617.378 364.562 618.195 367.52 618.007C372.49 617.692 377.083 614.357 380.481 610.96C382.054 609.387 384.634 607.059 385.326 604.856C382.243 614.357 378.971 623.795 376.014 633.296C375.888 633.674 375.762 634.114 375.51 634.429C375.196 634.806 374.693 634.995 374.252 635.184C373.937 635.31 373.56 635.436 373.245 635.624C370.791 636.442 368.526 637.386 366.387 638.33C361.102 640.784 356.697 643.615 353.237 646.132C348.329 649.467 343.799 653.242 339.709 657.584C334.486 663.184 330.208 669.664 327.313 676.712C324.608 683.255 322.406 690.994 324.23 697.979C325.992 704.774 331.655 709.808 338.702 710.563C343.61 711.066 348.643 709.619 352.859 707.102C357.138 704.585 360.724 701.125 363.996 697.349C373.497 686.338 379.663 673.188 384.445 659.597C385.704 656.074 386.899 652.487 388.032 648.901C402.378 644.937 437.047 638.456 445.981 636.946C454.979 635.373 498.709 629.584 509.154 628.2C519.598 626.816 541.746 625.368 544.389 622.726C547.095 620.02 546.528 616.371 545.081 614.106M369.093 657.269C368.526 658.779 367.897 660.289 367.268 661.799C365.947 664.945 364.436 668.029 362.926 671.112C359.717 677.404 356.131 683.57 351.475 688.855C349.147 691.498 342.288 698.734 338.702 694.329C335.808 690.869 339.457 680.801 347.385 670.923C357.264 658.527 370.288 653.746 370.288 653.746C369.911 653.871 369.218 656.829 369.03 657.269" fill="white"/>
<path d="M466.493 585.541C466.493 585.541 464.794 590.008 459.132 591.644C453.469 593.343 459.32 570.377 459.32 570.377C459.32 570.377 464.165 547.914 464.92 544.58C465.675 541.245 465.361 537.973 461.648 536.903C457.936 535.771 454.287 535.582 453.217 539.106L452.085 542.629C452.085 542.629 448.121 537.407 440.067 538.539C432.013 539.735 422.197 550.997 416.409 568.678C410.557 586.359 412.696 596.867 413.703 601.208C414.71 605.55 417.038 611.338 425.28 612.597C433.523 613.855 439.563 607.752 442.772 599.887C442.772 599.887 442.898 606.493 448.561 608.381C454.224 610.269 462.089 604.669 464.92 602.026C467.752 599.383 466.493 585.541 466.493 585.541ZM449.694 556.912C448.687 561.946 446.422 570.188 443.464 578.997C440.381 588.435 436.858 596.111 432.076 595.168C426.728 594.161 426.035 585.981 426.35 581.388C426.665 576.795 427.986 571.384 430.251 566.161C434.593 556.346 439.878 553.263 443.842 551.753C446.988 550.494 450.7 551.627 449.631 556.912" fill="white"/>
<path d="M510.791 534.824C507.142 529.728 499.528 530.483 495.438 532.685C491.349 534.95 486.944 541.242 486.189 543.067L487.007 537.53C487.007 537.53 488.14 535.642 483.483 534.51C478.827 533.377 476.436 533.063 475.367 536.901C474.297 540.739 456.742 633.987 456.742 633.987C456.742 633.987 455.547 639.461 456.742 642.418C457.938 645.376 462.028 647.075 465.992 642.418C469.956 637.762 471.466 618.76 472.787 609.511C474.171 600.262 474.612 598.06 474.612 598.06C474.612 598.06 477.946 603.093 485.749 604.352C494.809 605.799 501.29 599.066 506.135 589.502C511.043 579.624 514.252 565.593 514.818 557.413C515.321 549.485 514.503 539.921 510.854 534.824M501.73 557.728C501.29 563.579 499.906 569.242 498.018 574.716C496.382 579.372 494.62 584.28 491.223 587.866C488.203 591.012 481.848 593.089 478.387 589.188C478.387 589.188 480.023 580.064 482.477 570.815C484.805 562.069 487.636 551.75 493.614 547.409C500.975 541.997 502.171 552.442 501.793 557.79" fill="white"/>
<path d="M557.035 572.452C555.022 571.76 552.882 575.032 551.687 576.479C550.429 578.052 548.793 579.247 547.22 580.569C543.822 583.463 536.146 588.559 531.741 584.407C529.917 582.645 529.665 578.492 530.042 575.849C530.357 573.521 531.867 569.62 531.993 569.62C535.705 569.557 539.606 567.984 541.62 567.104C547.723 564.524 553.071 560.434 556.784 554.897C561.88 547.221 567.669 533.189 558.231 526.52C556.846 525.513 555.211 524.884 553.512 524.632C547.597 523.626 542.501 524.569 537.907 528.47C531.741 533.693 529.665 536.461 524.442 546.025C518.591 556.91 515.256 570.25 516.011 582.582C516.2 585.602 516.577 588.622 517.647 591.454C518.654 594.285 520.415 596.928 522.806 598.753C526.582 601.584 531.741 602.087 536.209 600.955C541.871 599.571 548.226 595.481 550.051 594.096C551.813 592.712 559.615 585.665 560.748 583.4C561.817 581.135 560.307 577.485 560.307 577.485C559.804 576.164 558.734 573.018 557.098 572.452M543.57 539.607C544.577 538.601 545.647 537.657 547.031 537.342C548.981 536.839 550.68 537.783 550.995 539.733C551.561 542.753 549.988 546.277 548.226 548.605C546.59 550.807 544.388 552.632 542.06 554.142C540.991 554.834 539.921 555.4 538.725 555.841C535.516 557.162 534.573 556.848 534.51 557.162C535.202 553.513 538.914 544.389 543.633 539.544" fill="white"/>
<path d="M672.31 414.835L739.068 537.341C748.506 554.644 769.773 561.566 787.58 553.071C805.386 544.577 813.44 523.687 805.953 505.503L752.911 376.454L672.31 414.835Z" fill="#973043"/>
<path d="M689.298 335.556C689.298 335.556 710.439 290.505 749.198 276.033C749.198 276.033 779.4 262.379 807.211 272.069C807.211 272.069 854.15 242.811 879.255 259.925C896.432 275.907 881.017 296.167 860.127 304.85C839.237 313.533 827.471 309.318 816.649 328.571C816.649 328.571 833.512 356.76 827.786 374.126C822.06 391.492 807.966 401.496 804.946 423.267C801.926 445.037 795.885 473.54 774.241 476.623C752.596 479.706 751.086 452.902 750.708 446.988C750.708 446.988 741.333 467.5 728.497 477.253C715.662 487.005 700.875 477.945 700.875 477.945C700.875 477.945 673.19 498.771 657.146 479.266C649.28 469.765 654.44 449.63 654.44 449.63C654.44 449.63 611.528 437.864 625.119 387.276C638.71 336.688 689.298 335.367 689.298 335.367V335.556Z" fill="#DE4A65"/>
<path d="M818.598 296.735C812.18 291.136 812.18 284.214 814.193 279.244C815.389 276.223 823.065 270.812 825.142 269.868C835.335 265.024 846.409 261.626 857.168 258.92C862.642 257.536 868.368 256.655 874.031 257.221C848.17 246.588 807.272 272.134 807.272 272.134C805.51 271.504 803.686 271.001 801.924 270.561C803.56 274.273 805.259 300.259 818.661 296.673L818.598 296.735Z" fill="#BE3C54"/>
<path d="M882.967 280.941C874.536 288.617 864.909 295.476 853.835 298.811C845.026 301.453 835.147 301.705 826.213 299.566C822.186 298.622 818.033 296.986 814.95 294.092C812.37 291.638 811.049 288.051 809.916 284.779C809.287 282.955 807.211 276.725 807.211 272.195C801.737 270.245 796.137 269.301 790.725 268.923C790.6 271.881 790.474 274.775 790.474 277.732C790.474 285.094 791.166 292.581 792.298 299.88C793.054 304.788 794.123 311.835 799.031 314.352C802.051 315.925 799.786 320.141 796.829 319.511C791.481 318.442 785.629 319.763 780.532 321.336C777.638 322.28 774.618 323.412 771.912 325.048C782.672 325.803 793.179 327.943 801.485 335.745C811.175 344.931 810.923 358.648 805.071 369.785C804.442 370.98 803.247 371.295 802.177 371.106C797.143 372.428 791.606 372.931 786.887 375.07C782.042 377.272 778.582 381.866 774.052 384.634C772.919 385.326 772.793 385.389 771.786 384.634C770.591 383.69 757.818 381.803 747.31 385.389C737.684 388.661 729 396.904 727.616 398.351C724.848 401.245 722.897 404.391 720.632 407.6C719.248 409.551 717.171 409.739 714.906 410.369C712.327 411.124 710.124 412.697 707.545 413.389C703.392 414.584 699.554 416.283 695.527 417.73C690.179 419.618 684.767 421.694 677.657 425.469C675.581 426.602 673.064 427.168 672.498 424.777C671.365 420.247 668.723 415.528 665.451 411.942C665.388 412.822 665.199 413.766 664.947 414.647C663.689 418.611 660.669 421.757 657.082 423.771C653.433 425.784 649.091 426.854 644.939 426.728C640.031 426.539 636.256 424.714 633.424 420.625C630.782 416.849 628.705 412.76 624.678 410.117C623.986 409.676 623.294 409.299 622.539 408.984C624.301 441.514 654.44 449.82 654.44 449.82C654.44 449.82 654.44 449.883 654.44 450.008C657.586 447.617 661.109 445.856 664.947 444.723C676.273 441.388 690.808 443.842 697.414 454.539C698.484 450.952 699.805 447.429 700.812 443.779C702.448 437.739 704.273 431.824 707.167 426.225C707.796 424.966 708.929 424.652 709.998 424.903C716.668 418.359 725.792 414.333 734.915 418.863C746.492 424.589 748.38 439.312 748.065 450.826C748.065 451.393 748.065 451.959 748.002 452.462C749.072 450.449 749.89 448.876 750.331 447.932C750.331 447.555 750.205 447.177 750.142 446.8C749.009 435.914 749.198 423.708 755.742 414.458C755.805 414.333 755.93 414.27 755.993 414.207C755.993 413.829 756.182 413.515 756.434 413.137C761.971 404.706 770.528 399.924 780.532 399.043C783.741 398.728 794.438 400.238 799.22 408.04C804.002 415.78 802.869 429.811 803.624 432.265C808.154 414.584 822.752 389.982 827.849 374.315C833.574 356.949 816.712 328.761 816.712 328.761C827.597 309.507 839.3 313.723 860.19 305.04C873.843 299.377 885.106 288.743 886.553 277.606C885.358 278.739 884.225 279.934 883.03 281.004L882.967 280.941Z" fill="#BE3C54"/>
<path d="M751.586 300.573C762.848 289.562 787.954 280.375 791.918 297.049C794.372 307.368 800.475 270.497 800.664 270.308C774.866 264.519 749.195 276.097 749.195 276.097C710.436 290.505 689.294 335.619 689.294 335.619C689.294 335.619 638.643 336.941 625.116 387.529C624.235 390.863 623.605 394.009 623.165 397.03C626.94 393.066 630.715 389.102 634.302 384.949C634.302 384.697 637.385 376.14 654.499 369.093C685.645 356.257 690.742 359.97 702.948 349.462C707.73 358.082 715.784 360.221 725.537 360.158C724.782 356.635 725.285 326.307 751.586 300.698V300.573Z" fill="#BE3C54"/>
<path d="M699.932 476.685C688.355 452.209 703.707 429.621 714.907 413.136C715.851 411.751 716.795 410.367 717.676 409.109C721.891 402.754 726.61 397.406 731.581 393.127L733.406 395.266C728.624 399.356 724.093 404.578 720.004 410.682C719.123 412.003 718.179 413.387 717.235 414.772C705.784 431.571 691.564 452.524 702.449 475.553L699.869 476.748L699.932 476.685Z" fill="#973043"/>
<path d="M657.08 450.007L654.374 449.126C656.828 441.386 660.729 435.094 665.511 431.445C684.01 417.917 717.106 408.857 718.49 408.479L719.245 411.248C718.93 411.31 685.205 420.623 667.21 433.773C662.994 437.045 659.345 442.834 657.08 450.069V450.007Z" fill="#973043"/>
<path d="M749.323 445.415C746.744 428.238 753.036 416.472 762.6 398.602L765.053 393.946C774.617 375.951 791.165 370.603 803.435 369.344L803.75 372.176C792.235 373.434 776.568 378.405 767.57 395.33L765.116 399.987C755.49 417.919 749.701 428.804 752.155 445.038L749.323 445.478V445.415Z" fill="#973043"/>
<path d="M673.128 428.111C672.876 427.608 666.773 415.967 664.697 410.808C664.256 409.675 663.879 407.976 663.438 405.9C661.739 397.972 659.223 385.954 647.519 385.514C647.079 385.514 646.639 385.514 646.198 385.514C629.839 385.514 627.133 397.783 627.07 397.909L624.302 397.343C624.302 397.343 627.637 381.99 647.582 382.682C661.488 383.186 664.508 397.595 666.144 405.334C666.521 407.221 666.899 408.857 667.276 409.801C669.353 414.835 675.519 426.727 675.582 426.853L673.065 428.174L673.128 428.111Z" fill="#973043"/>
<path d="M727.427 362.485C722.393 362.485 717.737 361.478 713.396 359.465C699.742 353.11 694.582 339.267 694.394 338.638L697.036 337.694C697.036 337.694 702.07 351.096 714.591 356.885C722.708 360.66 732.209 360.534 742.842 356.633C761.844 349.649 783.363 335.492 783.615 335.303L785.188 337.694C785.188 337.694 763.103 352.166 743.849 359.276C738.06 361.415 732.586 362.485 727.49 362.485H727.427Z" fill="#973043"/>
<path d="M221.606 414.835L154.848 537.341C145.41 554.644 124.143 561.566 106.336 553.071C88.5296 544.577 80.4758 523.687 87.9633 505.503L141.005 376.454L221.606 414.835Z" fill="#973043"/>
<path d="M1.70009 237.966C1.70009 237.966 -8.1155 266.154 19.947 288.869C48.0096 311.583 71.9193 333.479 83.7484 353.677C83.7484 353.677 96.2696 395.141 112.314 406.97C128.359 418.862 151.64 423.204 162.714 433.9C173.788 444.597 192.412 470.206 213.302 459.572C213.302 459.572 222.111 473.163 226.389 477.819C226.389 477.819 225.76 532.497 251.369 534.384C276.977 536.272 274.586 499.778 274.586 499.778C274.586 499.778 296.734 504.497 294.658 472.282C292.581 440.067 286.856 436.103 278.613 413.766C270.371 391.429 244.007 371.735 214.749 362.674C214.749 362.674 200.78 331.34 158.75 308.626C116.719 285.911 103.002 303.34 78.2743 282.136C53.5466 260.932 17.9965 216.133 1.70009 237.966Z" fill="#DE4A65"/>
<path d="M169.637 440.569C168.252 437.486 167.434 434.088 165.861 431.068C162.652 424.902 155.731 420.812 149.817 417.477C138.113 410.933 125.089 406.34 115.147 396.965C107.408 389.666 102.5 379.599 96.5859 370.853C93.377 366.071 90.0422 361.352 86.0782 357.262C85.5119 356.696 84.9456 356.067 84.3164 355.5C86.9591 363.617 98.2848 396.588 112.316 406.969C128.361 418.861 151.641 423.203 162.715 433.899C164.918 436.039 167.434 438.744 170.203 441.702C170.014 441.324 169.825 440.884 169.637 440.506V440.569Z" fill="#BE3C54"/>
<path d="M293.086 456.553C290.318 437.929 285.284 431.888 278.615 413.83C274.21 401.875 264.583 390.675 252.062 381.426C242.121 388.347 235.325 399.17 225.258 405.965C223.559 407.098 221.42 406.468 219.47 406.28C217.267 406.028 215.065 405.713 212.926 405.273C208.396 404.455 203.928 403.259 199.587 401.749C191.092 398.855 179.137 393.507 171.147 389.354C179.326 385.83 182.787 381.992 189.142 376.959C193.169 372.617 198.957 367.709 204.306 365.255C204.935 364.941 205.564 364.752 206.13 364.563C206.382 364.312 206.697 364.123 207.074 363.997C209.528 363.305 212.045 362.739 214.499 361.984C212.674 358.271 201.537 337.256 174.418 318.191C160.702 326.119 150.697 340.779 144.028 355.377C142.329 355.377 140.253 355.188 137.547 354.748C137.421 354.748 127.48 354.748 127.291 354.748C131.066 371.17 147.426 377.84 159.129 383.88C170.58 389.794 182.535 395.394 193.169 402.63C202.984 409.3 213.115 417.416 217.708 428.679C221.986 439.187 221.735 451.897 213.429 459.699C213.995 460.58 216.764 464.796 219.784 469.074C226.768 458.126 224.881 440.697 240.17 436.796C253.95 433.272 261.375 447.178 266.408 457.434C270.75 466.18 275.72 476.184 275.658 486.126C275.658 489.398 274.777 492.732 272.7 495.186C272.7 496.193 271.819 496.948 271.001 497.263C270.372 497.514 269.743 497.703 269.114 497.892C267.478 498.647 265.716 499.087 263.891 499.276C256.718 500.472 249.608 498.899 243.191 494.431C241.051 492.921 239.038 491.222 237.024 489.46C239.919 499.716 244.952 509.721 253.698 516.013C259.046 519.851 265.024 521.55 271.064 521.676C275.343 511.734 274.525 499.528 274.525 499.528C274.525 499.528 274.777 499.528 275.28 499.654C275.28 499.465 275.28 499.213 275.28 499.024C275.343 497.137 287.738 484.93 276.224 454.603C283.9 451.897 291.073 454.728 293.086 456.238V456.553Z" fill="#BE3C54"/>
<path d="M87.9635 319.447C82.4265 317.685 76.8266 315.986 71.5413 313.595C71.1009 313.406 70.6604 313.154 70.22 312.903C70.157 312.903 70.0312 312.84 69.9683 312.777C66.1301 310.826 62.6695 308.435 59.2089 305.919C54.3011 302.332 49.4562 298.746 44.6743 295.033C26.9936 281.317 9.62755 265.524 0.315321 244.886C-0.754327 254.638 0.378243 273.074 19.9465 288.93C44.4855 308.813 65.7526 327.941 78.6513 345.999C78.5255 343.23 77.9592 334.673 80.0356 328.948C81.9232 323.599 86.3905 320.957 87.9635 319.509V319.447Z" fill="#BE3C54"/>
<path d="M203.425 463.284C200.908 463.284 197.95 462.906 194.679 461.837C188.387 459.76 182.032 455.482 175.865 449.127C156.486 429.307 150.194 427.042 150.131 427.042L150.823 424.777C150.823 424.777 157.43 426.916 177.564 447.491C183.479 453.531 189.519 457.621 195.434 459.572C205.878 463.032 212.611 458.691 212.674 458.691C216.449 455.922 218.84 451.266 219.469 445.415C220.287 437.99 217.267 428.866 210.975 419.554C200.153 403.635 159.003 385.2 158.625 385.011L159.569 382.872C161.268 383.627 201.726 401.748 212.925 418.233C219.532 427.986 222.678 437.675 221.797 445.666C221.042 452.21 218.4 457.369 213.995 460.578C213.743 460.767 209.842 463.284 203.425 463.284Z" fill="#973043"/>
<path d="M258.228 502.042C248.79 502.042 240.988 496.82 235.388 491.409C229.977 486.186 212.988 461.396 212.296 460.326L214.246 459.005C214.246 459.005 231.801 484.613 237.024 489.71C244.763 497.197 257.032 504.307 271.945 495.687C273.643 494.681 274.713 492.919 275.153 490.276C277.419 477.377 263.387 448.182 253.005 435.976C243.064 424.21 222.049 405.963 221.86 405.774L223.37 404.012C223.37 404.012 244.7 422.574 254.767 434.466C265.338 446.924 279.81 476.748 277.419 490.717C276.852 494.051 275.405 496.379 273.077 497.764C267.792 500.847 262.821 502.042 258.228 502.042Z" fill="#973043"/>
<path d="M184.297 379.222C180.018 379.222 176.746 375.824 172.845 371.734C170.391 369.155 167.623 366.26 164.037 363.555C151.264 353.865 120.496 356.445 120.181 356.508L119.992 354.18C121.314 354.054 152.019 351.411 165.484 361.73C169.196 364.561 172.027 367.519 174.544 370.161C180.962 376.894 184.171 380.292 193.106 372.175C206.885 359.654 214.75 361.604 215.065 361.73L214.436 363.995C214.436 363.995 207.326 362.422 194.679 373.937C190.463 377.838 187.128 379.348 184.297 379.348V379.222Z" fill="#973043"/>
</g>
<defs>
<clipPath id="clip0_11126_13897">
<rect width="886.612" height="1300" fill="white"/>
</clipPath>
</defs>
</svg>
