<svg width="1413" height="1300" viewBox="0 0 1413 1300" fill="none" xmlns="http://www.w3.org/2000/svg">
<g clip-path="url(#clip0_11025_922)">
<path d="M1059.76 462.307C1039.45 438.386 1003.6 435.457 979.675 455.765C955.754 476.074 952.825 511.929 973.133 535.85L1040.21 614.859C1060.52 638.78 1096.37 641.709 1120.29 621.401C1144.21 601.093 1147.14 565.238 1126.84 541.316L1059.76 462.307Z" fill="#2C2044"/>
<path d="M294.938 433.207C306.377 653.859 306.377 1018.59 313.991 1134.94C314.525 1142.99 315.697 1150.48 317.437 1157.51C310.873 1155.15 304.172 1153.17 297.401 1151.65C278.812 1140.09 258.656 1130.5 237.19 1126.43C233.331 1125.71 229.248 1127.65 227.181 1130.7C226.458 1130.62 225.751 1130.72 225.045 1130.82C219.446 1104.79 218.671 1077.09 218.671 1050.68C218.671 954.413 219.291 627.07 194.018 244.771C191.382 204.82 181.7 162.371 200.271 124.694C222.943 78.6101 286.685 48.3411 337.094 54.5603C231.54 44.5854 283.498 212.555 294.938 433.207Z" fill="#973043"/>
<path d="M379.801 1232C343.726 1221.06 313.647 1208.04 292.216 1197.5C269.32 1186.25 233.934 1172.21 224.786 1134.39C222.857 1126.43 221.53 1117.06 221.1 1106C218.671 1042.41 218.343 933.223 218.343 933.223L307.135 1000.57C307.135 1000.57 389.052 1231.99 379.801 1231.99V1232Z" fill="#973043"/>
<path d="M307.548 1130.45C300.175 1009.66 300.175 630.102 289.097 400.991C278.02 171.898 227.698 43.1555 329.927 53.5093L665.126 70.4441C665.126 70.4441 768.319 58.2814 817.177 52.9235C859.781 48.2376 905.779 81.3148 920.216 120.18C951.243 203.717 990.694 277.038 1013.43 520.706C1036.18 764.375 969.177 1010.11 959.684 1063.29C936.599 1192.78 869.825 1263.98 784.668 1263.98C767.423 1263.05 523.669 1249.35 440.339 1244.68C423.042 1243.72 400.026 1240.89 383.522 1233.69C353.735 1220.72 311.286 1191.6 307.531 1130.45H307.548Z" fill="#DE4A65"/>
<path d="M577.557 1115.53C577.557 1115.53 624.744 1017.48 643.471 963.94C664.23 904.59 679.063 843.312 689.503 781.344C700.012 718.962 706.214 655.926 709.797 592.787C713.432 528.631 714.414 464.337 714.5 400.078C714.586 337.869 713.863 275.66 713.811 213.433C714.517 191.847 714.121 170.209 711.916 148.692C709.056 120.817 703.319 93.2704 693.517 67.1016C727.697 63.1048 784.548 56.4893 817.177 52.906C859.781 48.22 905.779 81.2972 920.216 120.163C951.243 203.7 990.694 277.021 1013.43 520.689C1036.18 764.357 969.177 1010.09 959.684 1063.27C936.599 1192.76 869.825 1263.96 784.669 1263.96C771.352 1263.24 623.09 1254.91 517.829 1249.01C536.004 1208.8 570.15 1133.03 570.15 1133.03L577.557 1115.51V1115.53Z" fill="#DE4A65"/>
<path d="M393.79 1035.68C387.502 933.464 388.432 656.616 385.986 462.563C383.436 261.017 336.181 129.122 420.923 129.122C530.733 129.122 778.897 156.221 845.379 170.434C845.379 170.434 898.423 176.601 909.569 236.622C914.152 261.31 947.022 348.326 956.532 507.441C967.661 693.776 947.728 857.835 922.559 1005.15C911.326 1070.92 879.817 1135.98 795.935 1135.98C722.287 1135.98 492.659 1132 483.667 1131.03C458.428 1129.14 398.786 1116.11 393.807 1035.71L393.79 1035.68Z" fill="#742384"/>
<path d="M637.44 1198.56C637.44 1213.86 649.844 1226.25 665.142 1226.25C680.423 1226.25 692.81 1213.86 692.81 1198.56C692.81 1183.28 680.423 1170.88 665.142 1170.88C649.844 1170.88 637.44 1183.28 637.44 1198.56Z" fill="#973043"/>
<path d="M689.985 634.995C703.543 638.009 717.05 636.959 729.161 632.617C733.846 630.946 752.228 649.276 756.432 646.658C761.549 643.471 752.349 619.145 756.484 614.735C764.512 606.173 770.404 595.457 773.126 583.243C781.378 546.255 757.535 509.474 719.858 501.084C682.198 492.677 644.986 515.848 636.734 552.836C628.482 589.824 652.342 626.605 690.002 634.995H689.985ZM699.942 582.743C701.286 577.368 704.353 572.958 719.237 567.514C726.852 564.999 731.348 562.191 731.348 557.47C731.348 552.75 726.335 550.2 721.649 550.2C718.187 550.2 713.449 551.819 711.227 555.024C711.14 555.144 711.071 555.265 711.003 555.386C710.951 555.455 710.916 555.523 710.882 555.592C710.486 556.299 710.158 557.177 710.038 558.263C710.021 558.452 709.986 558.659 709.986 558.848C709.986 558.986 709.969 559.107 709.969 559.245C709.969 559.882 709.883 560.623 709.676 561.329C709.642 561.45 709.607 561.57 709.573 561.691C709.573 561.725 709.555 561.76 709.538 561.777C709.452 562.001 709.349 562.225 709.228 562.449C709.176 562.552 709.108 562.656 709.039 562.759C708.246 563.931 706.92 564.723 705.386 564.723C703.646 564.723 702.148 563.707 701.424 562.259C701.39 562.191 701.355 562.139 701.321 562.07C701.286 562.001 701.269 561.915 701.235 561.846C701.166 561.656 701.114 561.484 701.062 561.295C701.062 561.226 701.028 561.157 701.011 561.088C700.873 560.313 700.924 559.606 700.924 559.21C700.924 556.867 701.527 554.593 702.406 552.646C702.458 552.526 702.509 552.422 702.561 552.319C702.733 551.975 702.888 551.647 703.078 551.337C703.147 551.216 703.216 551.113 703.285 550.993C703.974 549.855 704.732 548.908 705.455 548.271C708.315 545.497 712.122 544.084 715.568 543.395C717.291 542.982 719.237 542.723 721.443 542.723C730.263 542.723 739.928 547.013 739.928 557.401C739.928 567.789 732.175 570.787 720.013 575.749C709.624 579.987 709.366 583.105 709.021 587.429C709.056 591.167 711.709 594.182 720.702 593.924C726.68 593.614 729.781 590.857 731.28 588.066C731.331 587.963 731.366 587.877 731.435 587.774C731.917 586.809 732.21 585.844 732.382 584.983C732.451 584.586 732.503 584.19 732.537 583.829C732.537 583.639 732.554 583.467 732.554 583.294C732.554 583.019 732.589 582.76 732.623 582.519C732.641 582.209 732.658 581.968 732.675 581.83C732.675 581.813 732.692 581.796 732.692 581.778C732.951 579.556 734.811 577.816 737.102 577.816C739.566 577.816 741.565 579.814 741.565 582.278C741.565 582.984 741.547 584.414 741.065 586.482C739.945 591.684 735.586 602.124 719.685 602.124C700.993 602.124 698.444 588.669 699.908 582.778L699.942 582.743ZM662.61 542.878C664.677 541.758 667.262 542.517 668.381 544.567L695.894 595.009C697.014 597.077 696.256 599.661 694.206 600.781C692.138 601.9 689.571 601.142 688.434 599.092L660.922 548.65C659.802 546.582 660.56 543.998 662.61 542.878Z" fill="#10CBB4"/>
<path d="M763.03 690.554C762.289 687.728 759.826 679.614 763.03 678.494C766.235 677.392 771.024 677.874 775.572 680.579C780.12 683.284 783.204 687.229 784.513 691.294C784.961 692.673 785.754 695.119 786.649 697.927C782.704 707.058 778.07 716.102 772.626 724.923C767.509 706.662 763.306 691.622 763.03 690.554Z" fill="white"/>
<path d="M742.168 762.859C751.677 753.642 759.843 743.856 766.872 733.744C766.218 728.007 764.891 721.34 762.307 713.519C754.675 690.399 741.892 675.635 731.331 674.084C720.771 672.534 715.603 679.39 715.603 679.39L714.156 674.791C712.708 670.191 707.936 670.467 703.095 671.914C698.254 673.361 697.841 677.599 698.857 681.992C699.874 686.385 706.214 715.741 706.214 715.741C706.214 715.741 713.845 745.752 706.455 743.546C701.924 742.185 699.322 739.481 697.996 737.586C692.07 706.369 685.937 674.412 685.247 671.896C683.869 666.883 680.717 667.314 674.618 668.778C668.537 670.26 670.001 672.723 670.001 672.723L671.035 679.993C670.035 677.547 664.281 669.347 658.924 666.384C653.566 663.438 643.608 662.507 638.819 669.157C634.03 675.807 632.91 688.349 633.599 698.685C634.305 709.384 638.492 727.783 644.952 740.704C651.223 753.246 659.716 762.083 671.586 760.171C681.785 758.534 686.178 751.902 686.178 751.902C686.178 751.902 686.798 754.779 688.59 766.907C689.02 769.819 689.451 773.471 689.951 777.416C682.439 776.365 676.634 775.573 674.067 775.263C663.058 773.919 621.367 768.578 609.739 768.199C598.11 767.837 595.715 769.681 593.872 772.627C592.029 775.573 591.288 780.379 594.785 783.876C598.282 787.374 627.259 789.234 640.903 791.078C649.069 792.18 672.844 795.333 693.138 798.124C694.292 803.43 695.687 807.84 697.479 809.959C698.926 811.665 700.373 812.664 701.752 813.215C704.491 809.167 707.23 805.239 709.952 801.431C709.917 801.104 709.866 800.742 709.831 800.467C710.09 800.501 710.314 800.536 710.572 800.57C715.224 794.11 719.841 788.028 724.44 782.395C718.221 781.482 711.916 780.551 705.938 779.69C704.853 773.901 703.56 767.131 702.182 759.844C706.972 763.358 714.448 767.355 720.202 765.443C727.576 762.979 727.783 754.348 727.783 754.348C729.971 759.809 733.261 764.547 737.447 767.613C739.015 765.977 740.565 764.392 742.116 762.893L742.168 762.859ZM681.44 740.256C676.892 745.355 668.571 742.651 664.643 738.55C660.164 733.882 657.838 727.49 655.719 721.374C653.221 714.173 651.378 706.783 650.827 699.116C650.327 692.122 651.877 678.477 661.542 685.558C669.346 691.26 673.05 704.75 676.082 716.172C679.287 728.265 681.44 740.239 681.44 740.239V740.256ZM741.771 748.094C735.501 749.3 730.97 739.257 726.887 726.939C723.079 715.414 720.047 704.595 718.773 698.031C717.412 691.14 722.218 689.675 726.353 691.278C731.487 693.276 738.464 697.256 744.114 710.142C747.112 716.964 748.818 724.062 749.248 730.04C749.679 736.035 748.783 746.733 741.754 748.077L741.771 748.094Z" fill="white"/>
<path d="M632.048 731.676C632.979 715.517 628.672 698.083 620.988 683.852C614.218 671.311 611.513 667.71 603.399 660.853C597.352 655.737 590.719 654.496 582.949 655.84C580.727 656.219 578.574 657.046 576.747 658.338C564.412 667.073 571.941 685.42 578.625 695.447C583.466 702.717 590.478 707.988 598.454 711.399C601.142 712.554 606.207 714.569 611.099 714.673C611.289 714.673 613.253 719.807 613.684 722.839C614.183 726.319 613.873 731.745 611.444 734.037C605.707 739.463 595.646 732.779 591.184 728.989C589.169 727.283 587.032 725.664 585.361 723.631C583.811 721.736 581.054 717.498 578.384 718.377C576.196 719.1 574.852 723.218 574.163 724.94C574.163 724.94 572.182 729.781 573.612 732.71C575.025 735.639 585.241 744.873 587.584 746.716C589.927 748.56 598.282 753.848 605.673 755.692C611.547 757.156 618.283 756.519 623.245 752.832C626.415 750.472 628.637 747.009 629.998 743.305C631.359 739.601 631.893 735.639 632.117 731.694L632.048 731.676ZM607.964 698.375C607.895 697.996 606.672 698.41 602.434 696.67C600.901 696.032 599.454 695.309 598.058 694.413C595.009 692.449 592.149 690.106 589.961 687.177C587.67 684.094 585.585 679.494 586.309 675.549C586.774 672.982 588.962 671.741 591.529 672.379C593.303 672.827 594.785 674.05 596.06 675.359C602.158 681.613 607.085 693.569 607.964 698.375Z" fill="white"/>
<path d="M765.856 756.071C764.529 761.721 761.463 769.319 750.695 770.938C745.63 771.696 741.22 770.301 737.499 767.579C739.067 765.942 740.617 764.357 742.168 762.858C751.677 753.642 759.843 743.856 766.872 733.744C768.164 744.959 766.717 752.332 765.839 756.088L765.856 756.071Z" fill="white"/>
<path d="M791.818 713.691C790.595 710.194 788.407 703.371 786.65 697.945C782.704 707.075 778.07 716.12 772.626 724.94C781.033 754.968 791.904 793.731 791.904 793.731C791.904 793.765 791.921 793.8 791.938 793.834C781.481 791.698 772.023 790.216 766.7 789.079C761.342 787.942 743.339 785.168 724.509 782.378C719.927 788.011 715.293 794.092 710.641 800.553C716.447 801.38 721.098 802.069 723.614 802.517C735.311 804.532 780.654 813.008 799.433 818.194C800.949 822.88 802.499 827.549 804.136 832.2C810.355 850.031 818.383 867.224 830.856 881.643C835.094 886.536 839.797 891.119 845.379 894.409C850.96 897.682 857.49 899.612 863.933 898.906C873.115 897.906 880.506 891.256 882.849 882.401C885.261 873.254 882.349 863.141 878.818 854.562C875.01 845.31 869.394 836.817 862.572 829.53C857.266 823.862 851.305 818.917 844.896 814.576C840.348 811.251 834.56 807.599 827.686 804.377C824.947 803.085 821.932 801.914 818.762 800.811C818.314 800.622 817.866 800.432 817.418 800.26C816.832 800.019 816.212 799.777 815.782 799.295C815.42 798.882 815.265 798.348 815.092 797.831C811.216 785.375 807.013 773.006 802.947 760.602C803.894 763.496 807.254 766.58 809.321 768.63C813.8 773.075 819.796 777.416 826.29 777.847C830.098 778.105 834.043 776.985 836.972 774.522C840.52 771.541 842.295 766.873 842.708 762.256C843.26 756.312 842.037 750.179 840.762 744.391C839.452 738.447 837.747 732.59 835.835 726.818C834.543 722.925 833.164 719.066 831.734 715.224C830.46 711.779 828.685 708.281 828.237 704.629C827.755 700.563 828.737 696.274 827.255 693.431C825.774 690.606 821.949 691.26 818.331 691.967C814.713 692.69 810.786 697.118 811.147 702.028C811.509 706.955 813.732 713.226 815.213 718.015C816.695 722.804 819.882 732.659 820.984 737.448C822.087 742.237 823.896 750.472 820.244 753.073C815.575 756.398 809.304 750.989 804.377 743.477C799.88 736.638 793.678 718.997 791.835 713.708L791.818 713.691ZM822.587 824.499C822.587 824.499 839.625 830.77 852.58 846.964C862.917 859.885 867.689 873.03 863.933 877.595C859.213 883.314 850.22 873.874 847.222 870.428C841.123 863.468 836.42 855.406 832.251 847.171C830.218 843.157 828.306 839.108 826.549 834.974C825.739 833.027 824.947 831.063 824.206 829.099C823.982 828.496 823.086 824.689 822.587 824.499Z" fill="white"/>
<path d="M709.607 809.924C708.47 812.698 705.387 814.593 701.803 813.18C704.542 809.132 707.282 805.204 710.004 801.396C710.331 803.826 710.589 807.495 709.607 809.924Z" fill="white"/>
<path d="M246.128 280.222L243.317 282.608C230.015 293.902 228.386 313.84 239.679 327.143L290.622 387.148C301.915 400.451 321.854 402.08 335.156 390.786L337.967 388.4C351.269 377.107 352.898 357.168 341.605 343.866L290.662 283.86C279.369 270.558 259.43 268.929 246.128 280.222Z" fill="#403556"/>
<path d="M243.825 311.406L242.761 312.309C237.677 316.625 237.054 324.246 241.371 329.331L288.422 384.753C292.738 389.837 300.359 390.46 305.444 386.143L306.508 385.24C311.592 380.924 312.215 373.303 307.898 368.218L260.847 312.796C256.53 307.712 248.909 307.089 243.825 311.406Z" fill="#2C2044"/>
<path d="M837.971 326.033C835.163 326.033 832.751 323.914 832.389 321.089C832.286 320.228 829.426 300.089 812.285 299.554C812.095 299.554 811.888 299.554 811.716 299.554C794.73 299.451 790.371 318.264 790.181 319.091C789.51 322.123 786.512 324.052 783.445 323.38C780.413 322.708 778.501 319.711 779.156 316.662C781.395 306.549 791.267 287.685 812.612 288.288C834.112 288.942 842.278 309.133 843.587 319.711C843.966 322.812 841.761 325.62 838.677 325.982C838.453 326.033 838.195 326.051 837.971 326.033Z" fill="#DE4A65"/>
<path d="M586.499 324.431C586.258 324.431 586.016 324.431 585.775 324.38C582.691 323.983 580.521 321.106 580.951 318.023C582.381 307.462 590.806 287.375 612.289 286.996C612.599 286.996 612.874 286.996 613.15 286.996C633.944 287.133 643.333 305.808 645.4 315.783C646.038 318.832 644.091 321.83 641.024 322.45C637.923 323.088 634.995 321.141 634.357 318.092C634.168 317.265 629.912 298.383 613.064 298.28C612.874 298.28 612.702 298.28 612.478 298.28C595.181 298.607 592.236 318.695 592.115 319.556C591.719 322.416 589.29 324.466 586.482 324.431H586.499Z" fill="#DE4A65"/>
<path fill-rule="evenodd" clip-rule="evenodd" d="M749.817 336.525C755.364 332.993 774.797 325.379 770.628 351.651C766.459 377.94 739.222 388.208 715.293 390C691.329 391.774 661.577 362.797 661.301 348.188C660.991 333.579 676.737 334.303 687.091 338.386C696.773 342.227 741.014 342.193 749.834 336.542L749.817 336.525Z" fill="#3F0D4A"/>
<path fill-rule="evenodd" clip-rule="evenodd" d="M749.818 336.525C751.213 335.647 753.504 334.475 756.089 333.683C755.761 337.387 753.849 343.571 745.183 346.69C732.314 351.289 707.11 351.72 694.517 348.757C685.007 346.5 681.096 341.521 680.27 336.405C682.647 336.87 684.955 337.559 687.074 338.369C696.756 342.21 740.997 342.176 749.818 336.525Z" fill="white"/>
<path fill-rule="evenodd" clip-rule="evenodd" d="M749.817 336.525C751.213 335.647 753.504 334.475 756.088 333.683C755.778 337.145 754.09 342.779 746.785 346.035C747.991 344.622 750.196 341.883 750.472 340.401C750.817 338.351 749.025 338.282 746.889 339.109C744.77 339.953 729.696 342.882 716.396 342.71C703.096 342.589 693.724 341.332 691.433 340.832C689.331 340.384 684.421 339.523 688.556 346.638C683.301 344.054 680.924 340.246 680.287 336.37C682.664 336.835 684.973 337.524 687.092 338.334C696.773 342.176 741.014 342.141 749.835 336.491L749.817 336.525Z" fill="#E2DFE8"/>
<path fill-rule="evenodd" clip-rule="evenodd" d="M759.103 373.495C748.009 384.022 730.936 388.828 715.276 390C703.906 390.827 691.243 384.745 681.027 376.562C690.589 365.536 702.097 356.922 717.843 355.682C733.451 354.442 748.87 361.057 759.103 373.495Z" fill="#E77E91"/>
<path fill-rule="evenodd" clip-rule="evenodd" d="M759.103 373.495C756.312 376.131 753.177 378.423 749.748 380.369C750.868 378.526 752.264 375.58 751.471 372.927C750.231 368.689 739.601 358.904 724.734 359.782C709.884 360.713 692.501 369.085 692.966 374.977C693.293 378.905 696.17 383.849 700.064 387.588C693.397 385.176 686.816 381.213 681.044 376.562C690.606 365.536 702.114 356.922 717.86 355.682C733.468 354.442 748.887 361.057 759.12 373.495H759.103Z" fill="#DE4A65"/>
<path opacity="0.2" d="M267.718 117.992C294.834 49.9432 353.925 85.8284 485.234 88.4642C577.489 90.3076 658.838 132.946 712.157 174.516C783.566 230.196 857.714 297.246 977.705 290.097C962.803 216.845 944.421 220.618 923.3 126.382C910.913 71.0815 822.053 -26.9095 679.614 20.1738C505.563 77.7142 317.592 49.8054 292.629 65.0346C270.681 78.4377 267.701 103.917 267.701 117.975L267.718 117.992Z" fill="black"/>
<path d="M267.718 110.24C294.834 42.1904 353.925 78.0756 485.234 80.7115C577.489 82.5548 658.838 109.688 712.157 151.259C791.163 212.848 873.512 272.869 1017.59 246.424C978.566 229.524 944.421 212.848 923.317 118.612C910.93 63.3115 822.07 -34.6795 679.631 12.4037C505.58 69.9442 317.609 42.0353 292.646 57.2646C270.698 70.6677 267.718 96.1475 267.718 110.205V110.24Z" fill="#624029"/>
<path d="M267.718 110.24C294.834 42.1904 353.925 67.2222 485.234 69.858C577.489 71.7014 711.882 59.108 789.458 145.453C856.405 219.98 929.519 236.536 1017.57 246.424C978.549 229.524 944.404 212.848 923.3 118.612C910.913 63.3115 822.053 -34.6795 679.614 12.4037C505.563 69.9442 317.592 42.0353 292.629 57.2646C270.681 70.6677 267.701 96.1475 267.701 110.205L267.718 110.24Z" fill="#815C41"/>
<path d="M825.998 131.016C823.293 110.343 812.664 90.8068 796.797 77.3003C805.376 85.3973 810.131 97.3878 809.442 109.172C801.776 90.1177 787.029 74.0098 768.716 64.7241C774.849 70.6849 779.69 77.9894 782.774 85.9658C769.973 69.5479 750.73 58.2982 730.143 55.1972C736.466 52.682 743.736 52.6648 750.076 55.1628C743.701 47.5137 735.242 41.6218 725.871 38.2969C745.7 36.6775 764.185 47.462 781.137 57.8675C768.285 42.2248 752.298 29.1834 734.381 19.7427C756.398 26.8577 785.203 36.2123 800.553 54.4737C820.433 78.11 822.225 102.143 826.015 131.033L825.998 131.016Z" fill="#9F7554"/>
<path d="M990.815 559.934L337.094 546.255L419.459 1271.26C419.459 1271.26 610.307 1318.97 896.425 1291.47C948.797 889.637 990.815 559.934 990.815 559.934Z" fill="#61BDFF"/>
<path d="M1005.25 471.642C977.67 498.173 805.79 544.653 716.206 544.653C716.206 544.653 799.398 643.747 843.88 663.731C927.779 602.676 990.798 560.675 1005.25 471.642Z" fill="#1E88E8"/>
<path d="M716.206 544.653C716.206 544.653 463.114 525.582 294.92 440.959C310.563 527.063 491.798 622.97 586.137 651.533C685.747 603.968 716.189 544.636 716.189 544.636L716.206 544.653Z" fill="#1E88E8"/>
<path d="M663.265 559.796C680.303 619.128 678.959 624.779 710.572 624.779C742.185 624.779 740.807 619.128 757.879 559.796C758.758 556.661 760.825 553.456 756.966 552.474C749.059 550.441 733.967 547.702 710.572 547.702C687.177 547.702 672.085 550.459 664.161 552.474C660.284 553.456 662.369 556.661 663.282 559.796H663.265Z" fill="#DBAD25"/>
<path d="M634.615 1016.6C634.615 1026.89 713.656 1132 713.656 1132C713.656 1132 788.045 1026.89 788.045 1016.6C788.045 990.884 760.429 694.137 752.849 671.862C745.234 649.604 734.398 617.061 734.398 617.061L710.555 612.771L686.677 617.061C686.677 617.061 675.841 649.621 668.261 671.862C660.646 694.137 634.615 990.884 634.615 1016.6Z" fill="#DBAD25"/>
<path d="M672.74 551.647C686.763 613.443 689.209 619.335 715.223 619.335C741.237 619.335 743.649 613.443 757.707 551.647C758.43 548.374 756.587 545.032 753.4 544.015C746.888 541.896 734.484 539.037 715.223 539.037C695.98 539.037 683.559 541.896 677.029 544.015C673.842 545.032 671.999 548.374 672.74 551.647Z" fill="#F4C12A"/>
<path d="M645.624 1014.61C645.624 1025.3 715.223 1123.5 715.223 1123.5C715.223 1123.5 784.823 1025.32 784.823 1014.61C784.823 987.817 756.26 691.622 750.023 668.416C743.752 645.245 734.846 611.324 734.846 611.324L715.223 606.862L695.584 611.324C695.584 611.324 686.677 645.228 680.441 668.416C674.17 691.622 645.641 987.817 645.641 1014.61H645.624Z" fill="#F4C12A"/>
<path d="M1007.59 464.665C980.013 491.195 805.807 536.9 716.223 536.9C716.223 536.9 799.415 635.994 843.897 655.978C927.796 594.923 993.157 553.697 1007.59 464.665Z" fill="#61BDFF"/>
<path d="M716.206 536.9C716.206 536.9 463.114 517.829 294.92 433.207C310.563 519.311 491.798 615.217 586.137 643.781C685.747 596.215 716.189 536.883 716.189 536.883L716.206 536.9Z" fill="#61BDFF"/>
<path d="M294.938 433.207C474.743 561.363 550.769 789.63 607.965 884.279C625.761 915.892 641.214 1015.69 632.17 1060.35C623.125 1105 585.448 1273.09 570.15 1291.47C469.006 1291.47 293.387 1254.97 238.19 1163.94C225.441 1144.85 221.944 1129.51 221.1 1106.02C220.893 1100.4 219.222 1085.57 218.826 1068.24C215.691 929.329 206.37 463.769 204.079 419.614C244.909 416.892 268.769 412.775 294.921 433.207H294.938Z" fill="#403556"/>
<path opacity="0.8" d="M294.938 433.207C306.377 653.859 306.377 1018.59 313.991 1134.94C314.526 1142.99 315.697 1150.48 317.437 1157.51C317.437 1175.62 322.605 1233.52 315.835 1232C297.246 1220.44 260.792 1196.32 238.19 1163.92C228.439 1149.93 224.477 1133.01 223.839 1131.15C218.24 1105.12 218.688 1077.09 218.688 1050.68C218.688 969.487 219.119 723.89 204.096 419.597C211.952 419.597 270.612 407.245 294.938 433.19V433.207Z" fill="#2C2044"/>
<path d="M388.536 848.342C388.536 848.342 388.983 867.448 361.66 890.791C337.766 911.189 303.62 918.459 288.46 919.854C273.317 921.25 230.006 917.27 216.913 906.089L216.379 862.452L337.645 849.531L388.553 848.342H388.536Z" fill="black"/>
<path d="M189.28 883.263C189.28 883.263 345.483 901.8 387.984 848.343C387.984 848.343 413.722 817.143 387.984 791.905C387.984 791.905 403.713 755.244 393.497 736.621C383.281 717.998 348.429 692.156 344.226 687.936C344.226 687.936 348.757 647.675 328.773 639.25C308.771 630.843 274.523 649.466 256.485 662.68C238.448 675.894 225.837 684.318 225.837 684.318C225.837 684.318 216.827 651.861 197.584 666.884C178.358 681.906 178.961 720.375 165.127 728.783C165.127 728.783 93.8044 796.711 189.263 883.246L189.28 883.263Z" fill="#DE4A65"/>
<path d="M11.6109 685.145C12.5584 677.892 20.0869 657.718 42.6035 625.141C72.5107 581.848 127.639 523.291 222.185 485.321C262.205 469.248 275.487 487.078 278.502 496.071C286.892 525.513 255.917 540.243 255.917 540.243C255.917 540.243 120.318 610.652 105.037 685.231C118.44 701.356 145.901 725.526 199.685 745.976V884.279C199.685 884.279 126.072 884.279 56.9369 817.35C4.30639 766.408 5.65015 713.105 11.6281 685.145H11.6109Z" fill="#DE4A65"/>
<path d="M8.94085 705.146C25.2899 703.544 45.0328 718.136 57.9191 739.601C69.8579 759.482 81.2798 779.259 97.3532 796.194C110.929 810.493 126.675 822.88 144.092 832.166C159.752 840.504 176.359 846.344 193.398 850.909C200.323 851.323 207.231 851.633 214.157 851.753C247.613 852.322 284.997 850.255 314.715 833.182C326.843 826.222 337.507 816.092 343.451 803.292C350.6 787.908 351.065 771.076 348.274 754.572C346.396 743.46 342.985 732.59 338.386 722.322C331.77 707.609 322.088 694.413 318.832 678.34C316.248 665.608 320.693 653.446 320.107 640.749C320.055 639.526 319.849 638.423 319.676 637.286C322.915 637.493 325.982 638.096 328.773 639.267C348.774 647.674 344.226 687.953 344.226 687.953C348.429 692.156 383.281 717.998 393.497 736.638C403.713 755.261 387.984 791.922 387.984 791.922C413.722 817.16 387.984 848.36 387.984 848.36C352.099 893.479 235.244 887.311 199.651 884.296C199.651 884.296 126.037 884.296 56.9027 817.367C14.9878 776.796 7.30422 734.726 8.94085 705.163V705.146Z" fill="#BE3C54"/>
<path d="M129.81 585.379C151.758 568.961 177.117 555.059 201.891 544.808C222.409 536.315 243.358 528.373 262.515 517.037C268.407 513.54 274.437 509.56 279.846 504.96C280.552 528.459 255.917 540.243 255.917 540.243C255.917 540.243 120.731 610.445 105.123 684.886C103.193 682.113 101.436 679.201 99.7996 676.428C97.0604 671.793 94.683 666.918 92.7535 661.887C89.6697 653.894 87.3612 645.607 85.4834 637.252C94.9069 615.924 110.929 599.523 129.827 585.379H129.81Z" fill="#DE4A65"/>
<path d="M294.937 433.207C278.502 496.071 290.286 548.34 298.504 555.558L370.567 549.356C370.567 549.356 297.263 568.634 279.743 582.295C341.004 653.738 630.791 934.274 634.839 1026.2C626.208 944.128 620.816 911.602 607.964 884.279C595.112 856.956 427.47 493.056 294.937 433.207Z" fill="#2C2044"/>
<path d="M294.938 433.207C286.944 491.729 294.938 539.037 303.155 546.255H370.567C370.567 546.255 312.768 565.533 295.248 579.194C356.51 650.637 630.791 934.274 634.84 1026.2C626.209 944.128 620.816 911.602 607.965 884.279C595.113 856.956 427.47 493.056 294.938 433.207Z" fill="#403556"/>
<path opacity="0.5" d="M238.19 1163.92C234.331 1163.2 225.286 1136.63 224.787 1134.39C219.188 1108.36 218.671 1077.09 218.671 1050.68" fill="black"/>
<path d="M1013.04 460.392C991.142 473.692 796.004 923.644 803.464 1003.44C797.175 1037.59 873.821 1276.59 896.424 1291.47C962.802 1263.99 989.936 1017.45 1005.25 896.648C1020.57 775.831 1053.73 561.691 1013.02 460.392H1013.04Z" fill="#403556"/>
<path d="M831.913 1071.68C834.312 1071.21 834.77 1063.3 832.936 1054.01C831.102 1044.72 827.67 1037.57 825.271 1038.05C822.872 1038.52 822.414 1046.44 824.248 1055.72C826.082 1065.01 829.514 1072.16 831.913 1071.68Z" fill="black"/>
<path d="M861.065 1161.61C863.464 1161.14 863.922 1153.23 862.088 1143.94C860.254 1134.65 856.823 1127.51 854.424 1127.98C852.025 1128.45 851.567 1136.37 853.401 1145.65C855.235 1154.94 858.666 1162.09 861.065 1161.61Z" fill="black"/>
<path d="M607.051 1051.37C616.48 1051.37 624.124 1043.73 624.124 1034.3C624.124 1024.87 616.48 1017.23 607.051 1017.23C597.622 1017.23 589.979 1024.87 589.979 1034.3C589.979 1043.73 597.622 1051.37 607.051 1051.37Z" fill="black"/>
<path d="M581.606 1161.47C591.035 1161.47 598.678 1153.83 598.678 1144.4C598.678 1134.97 591.035 1127.33 581.606 1127.33C572.177 1127.33 564.533 1134.97 564.533 1144.4C564.533 1153.83 572.177 1161.47 581.606 1161.47Z" fill="black"/>
<path d="M357.159 1029.4L509.381 1042.99C512.063 1043.23 514.431 1041.25 514.67 1038.56L517.819 1003.28C518.058 1000.6 516.078 998.234 513.396 997.994L361.174 984.409C358.493 984.17 356.124 986.15 355.885 988.832L352.736 1024.11C352.497 1026.79 354.477 1029.16 357.159 1029.4Z" fill="black"/>
<path d="M363.352 1023.21L515.574 1036.79C518.256 1037.03 520.624 1035.05 520.863 1032.37L524.012 997.092C524.251 994.41 522.271 992.041 519.589 991.802L367.367 978.217C364.685 977.977 362.317 979.957 362.078 982.639L358.929 1017.92C358.69 1020.6 360.67 1022.97 363.352 1023.21Z" fill="#2C2044"/>
<path d="M194.156 908.019C194.156 908.019 197.946 897.768 194.156 883.78C189.297 883.263 183.233 883.004 179.65 882.091C184.405 892.169 188.608 901.903 194.156 908.019Z" fill="black"/>
<path d="M153.808 724.493C153.808 724.493 160.441 727.473 163.938 730.057C156.788 761.842 177.927 820.123 196.877 889.465C190.451 889.206 183.181 888.759 179.632 887.777C176.307 881.213 124.418 766.408 153.808 724.493Z" fill="#61BDFF"/>
<path d="M159.511 726.646C144.213 758.414 167.315 873.874 194.156 908.019C147.762 902.764 -42.7075 831.855 8.7515 668.141C50.5803 546.255 211.762 477.809 238.19 471.642C264.617 465.474 305.739 489.111 279.932 528.51C254.125 567.91 155.566 610.996 128.932 648.449C99.6964 689.555 129.207 707.782 159.511 726.646Z" fill="#403556"/>
<path opacity="0.8" d="M141.043 594.923C162.595 577.988 178.616 564.706 204.096 551.699C223.873 541.621 243.358 528.373 262.515 517.037C268.407 513.54 281.621 501.222 287.03 496.622C292.646 516.916 272.679 539.054 261.723 548.408C241.928 565.309 209.247 585.5 178.685 606.414C145.505 629.12 115.184 653.067 117.131 684.903C115.201 682.13 113.444 679.218 111.807 676.445C109.068 671.81 106.501 658.304 107.277 649.121C106.966 626.14 129.431 604.071 141.06 594.94L141.043 594.923Z" fill="#2C2044"/>
<path d="M803.464 1003.44C827.669 866.345 984.871 626.984 1032.64 598.455C1014.5 590.237 997.62 587.791 977.739 587.791C1015.61 574.285 1032.2 572.355 1032.2 572.355C1037.93 503.703 1026.92 486.492 1007.58 464.682C984.044 486.492 811.01 870.945 803.464 1003.46V1003.44Z" fill="black"/>
<path d="M803.464 1003.44C827.669 866.345 980.22 625.434 1027.99 596.905C1009.85 588.687 996.069 586.241 976.189 586.241C1014.05 572.734 1030.65 567.704 1030.65 567.704C1036.38 499.051 1026.92 486.492 1007.58 464.682C984.044 486.492 811.01 870.945 803.464 1003.46V1003.44Z" fill="#403556"/>
<path d="M267.718 110.24C267.718 110.24 223.632 116.149 189.625 166.058C192.398 123.212 214.277 79.8331 292.629 57.2993C275.125 82.0382 268.476 91.1861 267.7 110.24H267.718Z" fill="#624029"/>
<path d="M761.756 768.302L672 737.775L669.64 759.172L764.03 789.923L761.756 768.302Z" fill="#F4C12A"/>
<path d="M755.243 710.486L678.58 684.421L675.772 705.576L757.81 732.297L755.243 710.486Z" fill="#F4C12A"/>
<path d="M743.667 650.948L691.432 633.186L686.109 653.342L750.144 674.205L743.667 650.948Z" fill="#F4C12A"/>
<path d="M748.111 596.853L690.054 577.127L679.717 587.429L682.181 596.474L740.548 615.493C740.548 615.493 742.547 612.306 744.201 608.309C746.233 603.382 748.111 596.87 748.111 596.87V596.853Z" fill="#F4C12A"/>
<path d="M769.835 847.257L767.682 825.619L666.194 791.663L663.954 812.939L769.835 847.257Z" fill="#F4C12A"/>
<path d="M775.366 904.832L773.35 883.435L660.784 845.172L658.683 866.81L775.366 904.832Z" fill="#F4C12A"/>
<path d="M780.551 962.114L778.673 940.855L655.599 899.009L653.583 920.75L780.551 962.114Z" fill="#F4C12A"/>
<path d="M784.806 1020.81L783.48 998.085L650.671 952.949L648.828 974.5L784.806 1020.81Z" fill="#F4C12A"/>
<path d="M758.706 1066.2L769.784 1049.03L646.296 1007.06C646.296 1007.06 645.331 1018.57 645.917 1021.96C646.382 1024.6 649.741 1030.7 649.741 1030.7L758.706 1066.2Z" fill="#F4C12A"/>
<path d="M761.756 762.1L672 731.59L669.64 752.969L764.03 783.721L761.756 762.1Z" fill="#F7D163"/>
<path d="M755.243 704.284L678.58 678.219L675.772 699.374L757.81 726.094L755.243 704.284Z" fill="#F7D163"/>
<path d="M743.667 644.746L691.432 626.984L686.109 647.14L750.144 668.003L743.667 644.746Z" fill="#F7D163"/>
<path d="M748.111 590.651L690.054 570.925L679.717 581.227L682.181 590.271L740.548 609.291C740.548 609.291 742.547 606.104 744.201 602.107C746.233 597.18 748.111 590.668 748.111 590.668V590.651Z" fill="#F7D163"/>
<path d="M769.835 841.055L767.682 819.434L666.194 785.461L663.954 806.737L769.835 841.055Z" fill="#F7D163"/>
<path d="M775.366 898.63L773.35 877.233L660.784 838.97L658.683 860.608L775.366 898.63Z" fill="#F7D163"/>
<path d="M780.551 955.912L778.673 934.653L655.599 892.807L653.583 914.548L780.551 955.912Z" fill="#F7D163"/>
<path d="M784.806 1014.61L783.48 991.883L650.671 946.747L648.828 968.298L784.806 1014.61Z" fill="#F7D163"/>
<path d="M758.706 1060L769.784 1042.83L646.296 1000.86C646.296 1000.86 645.331 1012.37 645.917 1015.76C646.382 1018.4 649.741 1024.5 649.741 1024.5L758.706 1060Z" fill="#F7D163"/>
<path d="M1127.21 581.193C1111.96 537.899 1100.93 493.194 1094.42 447.764C1087.13 396.77 1083.26 345.897 1085.91 294.386C1086.84 276.228 1092.92 258.932 1106.02 245.856C1117.92 233.952 1137.46 224.993 1154.55 225.751C1172.29 226.544 1190.71 232.384 1203.08 245.856C1215.45 259.328 1224.11 276.159 1223.18 294.386C1224.09 393.204 1277.1 503.806 1293.09 549.149C1298.76 565.257 1261.05 583.26 1252.66 597.593C1244.32 611.823 1228.01 625.416 1211.64 629.137C1194.07 633.134 1174.34 632.273 1158.75 622.212L1144.86 611.479C1136.35 602.917 1130.48 592.821 1127.21 581.193Z" fill="#DE4A65"/>
<path d="M988.007 503.875C1144.95 411.982 1325.94 497.156 1355.49 525.668C1403.59 564.585 1412 623.848 1412.77 641.421C1417.27 743.615 1290.59 948.469 1131.58 954.43C1009.7 956.566 900.146 879.162 861.366 760.498C856.525 745.682 853.08 729.678 851.219 712.399C833.647 601.504 960.425 520.672 988.024 503.858L988.007 503.875Z" fill="#DE4A65"/>
<path d="M990.246 503.875C1003.48 496.123 1016.88 489.697 1030.34 484.339C995.346 558.246 1011.56 593.424 1036.61 633.858C1068.53 685.386 1012.99 773.695 1033.14 829.512C1051.75 881.04 1057.09 921.164 1154.51 952.518C1147.67 953.517 1140.78 954.189 1133.8 954.465C1011.92 956.601 902.368 879.197 863.588 760.533C858.747 745.717 855.302 729.713 853.441 712.433C835.869 601.539 962.647 520.706 990.246 503.892V503.875Z" fill="#BE3C54"/>
</g>
<defs>
<clipPath id="clip0_11025_922">
<rect width="1412.88" height="1300" fill="white"/>
</clipPath>
</defs>
</svg>
